0
SECTION
2
HEADER
9
$INSUNITS
70
4
9
$ACADVER
1
AC1014
9
$HANDSEED
5
FFFF
0
ENDSEC
0
SECTION
2
TABLES
0
TABLE
2
VPORT
5
8
100
AcDbSymbolTable
0
ENDTAB
0
TABLE
2
LTYPE
5
5
100
AcDbSymbolTable
0
LTYPE
5
14
100
AcDbSymbolTableRecord
100
AcDbLinetypeTableRecord
2
BYBLOCK
70
0
0
LTYPE
5
15
100
AcDbSymbolTableRecord
100
AcDbLinetypeTableRecord
2
BYLAYER
70
0
0
ENDTAB
0
TABLE
2
LAYER
5
2
100
AcDbSymbolTable
70
2
0
LAYER
5
50
100
AcDbSymbolTableRecord
100
AcDbLayerTableRecord
2
0
70
0
6
CONTINUOUS
0
ENDTAB
0
TABLE
2
STYLE
5
3
100
AcDbSymbolTable
70
1
0
STYLE
5
11
100
AcDbSymbolTableRecord
100
AcDbTextStyleTableRecord
2
STANDARD
70
0
0
ENDTAB
0
TABLE
2
VIEW
5
6
100
AcDbSymbolTable
70
0
0
ENDTAB
0
TABLE
2
UCS
5
7
100
AcDbSymbolTable
70
0
0
ENDTAB
0
TABLE
2
APPID
5
9
100
AcDbSymbolTable
70
2
0
APPID
5
12
100
AcDbSymbolTableRecord
100
AcDbRegAppTableRecord
2
ACAD
70
0
0
ENDTAB
0
TABLE
2
DIMSTYLE
5
A
100
AcDbSymbolTable
70
1
0
ENDTAB
0
TABLE
2
BLOCK_RECORD
5
1
100
AcDbSymbolTable
70
1
0
BLOCK_RECORD
5
1F
100
AcDbSymbolTableRecord
100
AcDbBlockTableRecord
2
*MODEL_SPACE
0
BLOCK_RECORD
5
1B
100
AcDbSymbolTableRecord
100
AcDbBlockTableRecord
2
*PAPER_SPACE
0
ENDTAB
0
ENDSEC
0
SECTION
2
BLOCKS
0
BLOCK
5
20
100
AcDbEntity
100
AcDbBlockBegin
2
*MODEL_SPACE
0
ENDBLK
5
21
100
AcDbEntity
100
AcDbBlockEnd
0
BLOCK
5
1C
100
AcDbEntity
100
AcDbBlockBegin
2
*PAPER_SPACE
0
ENDBLK
5
1D
100
AcDbEntity
100
AcDbBlockEnd
0
ENDSEC
0
SECTION
2
ENTITIES
0
CIRCLE
5
100
100
AcDbEntity
8
0
100
AcDbCircle
10
131
20
153.5
30
0
40
1.6000000000000014
210
0
220
0
230
1
0
LWPOLYLINE
5
101
100
AcDbEntity
8
0
100
AcDbPolyline
90
4
70
1
43
0.0
10
62.5
20
140.35799999999998
10
87.500000000000028
20
140.35799999999998
10
87.499999999999972
20
115.35799999999998
10
62.499999999999964
20
115.35799999999998
0
CIRCLE
5
102
100
AcDbEntity
8
0
100
AcDbCircle
10
-131
20
153.5
30
0
40
1.6000000000000014
210
0
220
0
230
1
0
CIRCLE
5
103
100
AcDbEntity
8
0
100
AcDbCircle
10
-131
20
-153.5
30
0
40
1.6000000000000014
210
0
220
0
230
1
0
LWPOLYLINE
5
104
100
AcDbEntity
8
0
100
AcDbPolyline
90
4
70
1
43
0.0
10
48.000000000000007
20
101.85799999999998
10
-48.000000000000007
20
101.85799999999998
10
-48.000000000000007
20
153.858
10
48.000000000000007
20
153.858
0
LINE
5
105
100
AcDbEntity
8
0
100
AcDbLine
10
-135.60000000000002
20
158.09999999999997
30
0
11
-135.59999999999999
21
-158.10000000000008
31
0
0
LINE
5
106
100
AcDbEntity
8
0
100
AcDbLine
10
-135.59999999999999
20
-158.10000000000008
30
0
11
135.60000000000005
21
-158.09999999999999
31
0
0
LINE
5
107
100
AcDbEntity
8
0
100
AcDbLine
10
135.60000000000005
20
-158.09999999999999
30
0
11
135.60000000000002
21
158.09999999999999
31
0
0
LINE
5
108
100
AcDbEntity
8
0
100
AcDbLine
10
135.60000000000002
20
158.09999999999999
30
0
11
-135.60000000000002
21
158.09999999999997
31
0
0
LINE
5
109
100
AcDbEntity
8
0
100
AcDbLine
10
30.000000000000007
20
-112.5
30
0
11
30.000000000000007
21
-142.5
31
0
0
LINE
5
110
100
AcDbEntity
8
0
100
AcDbLine
10
8.8817841970012523e-15
20
-112.5
30
0
11
8.8817841970012523e-15
21
-142.5
31
0
0
LINE
5
111
100
AcDbEntity
8
0
100
AcDbLine
10
90
20
-52.500000000000007
30
0
11
60.000000000000007
21
-52.500000000000028
31
0
0
LINE
5
112
100
AcDbEntity
8
0
100
AcDbLine
10
-29.999999999999993
20
-112.5
30
0
11
-59.999999999999993
21
-112.50000000000003
31
0
0
LINE
5
113
100
AcDbEntity
8
0
100
AcDbLine
10
120
20
-142.5
30
0
11
90
21
-142.50000000000003
31
0
0
LINE
5
114
100
AcDbEntity
8
0
100
AcDbLine
10
-29.999999999999993
20
-82.5
30
0
11
-29.999999999999993
21
-112.5
31
0
0
LINE
5
115
100
AcDbEntity
8
0
100
AcDbLine
10
60.000000000000007
20
-52.500000000000007
30
0
11
60.000000000000007
21
-82.5
31
0
0
LINE
5
116
100
AcDbEntity
8
0
100
AcDbLine
10
-29.999999999999993
20
-112.5
30
0
11
-29.999999999999993
21
-142.5
31
0
0
LINE
5
117
100
AcDbEntity
8
0
100
AcDbLine
10
60.000000000000007
20
-112.5
30
0
11
30.000000000000007
21
-112.50000000000003
31
0
0
LINE
5
118
100
AcDbEntity
8
0
100
AcDbLine
10
-59.999999999999993
20
37.499999999999993
30
0
11
-59.999999999999993
21
7.4999999999999911
31
0
0
LINE
5
119
100
AcDbEntity
8
0
100
AcDbLine
10
-90
20
67.499999999999986
30
0
11
-90
21
37.499999999999993
31
0
0
LINE
5
120
100
AcDbEntity
8
0
100
AcDbLine
10
-29.999999999999993
20
97.5
30
0
11
-29.999999999999993
21
67.499999999999986
31
0
0
LINE
5
121
100
AcDbEntity
8
0
100
AcDbLine
10
-59.999999999999993
20
67.499999999999986
30
0
11
-90
21
67.499999999999972
31
0
0
LINE
5
122
100
AcDbEntity
8
0
100
AcDbLine
10
-90
20
37.499999999999993
30
0
11
-120
21
37.499999999999972
31
0
0
LWPOLYLINE
5
123
100
AcDbEntity
8
0
100
AcDbPolyline
90
4
70
1
43
0.0
10
-120.00000000000003
20
97.499999999999929
10
-90
20
97.5
10
-90
20
67.499999999999986
10
-120
20
67.499999999999972
0
LINE
5
124
100
AcDbEntity
8
0
100
AcDbLine
10
-59.999999999999993
20
97.5
30
0
11
-59.999999999999993
21
67.499999999999986
31
0
0
LINE
5
125
100
AcDbEntity
8
0
100
AcDbLine
10
-90
20
7.4999999999999911
30
0
11
-120
21
7.4999999999999734
31
0
0
LINE
5
126
100
AcDbEntity
8
0
100
AcDbLine
10
-29.999999999999993
20
67.499999999999986
30
0
11
-29.999999999999993
21
37.499999999999993
31
0
0
LINE
5
127
100
AcDbEntity
8
0
100
AcDbLine
10
60.000000000000007
20
7.4999999999999911
30
0
11
30.000000000000007
21
7.4999999999999734
31
0
0
LINE
5
128
100
AcDbEntity
8
0
100
AcDbLine
10
-29.999999999999993
20
7.4999999999999911
30
0
11
-29.999999999999993
21
-22.500000000000007
31
0
0
LINE
5
129
100
AcDbEntity
8
0
100
AcDbLine
10
8.8817841970012523e-15
20
67.499999999999986
30
0
11
-29.999999999999993
21
67.499999999999972
31
0
0
LINE
5
130
100
AcDbEntity
8
0
100
AcDbLine
10
120
20
-82.5
30
0
11
120
21
-112.5
31
0
0
LINE
5
131
100
AcDbEntity
8
0
100
AcDbLine
10
-59.999999999999993
20
-22.500000000000007
30
0
11
-90
21
-22.500000000000028
31
0
0
LINE
5
132
100
AcDbEntity
8
0
100
AcDbLine
10
-59.999999999999993
20
-82.5
30
0
11
-90
21
-82.500000000000028
31
0
0
LINE
5
133
100
AcDbEntity
8
0
100
AcDbLine
10
30.000000000000007
20
7.4999999999999911
30
0
11
8.8817841970012523e-15
21
7.4999999999999734
31
0
0
LINE
5
134
100
AcDbEntity
8
0
100
AcDbLine
10
60.000000000000007
20
7.4999999999999911
30
0
11
60.000000000000007
21
-22.500000000000007
31
0
0
LINE
5
135
100
AcDbEntity
8
0
100
AcDbLine
10
60.000000000000007
20
-22.500000000000007
30
0
11
60.000000000000007
21
-52.500000000000007
31
0
0
LINE
5
136
100
AcDbEntity
8
0
100
AcDbLine
10
120
20
7.4999999999999911
30
0
11
120
21
-22.500000000000007
31
0
0
LINE
5
137
100
AcDbEntity
8
0
100
AcDbLine
10
-90
20
7.4999999999999911
30
0
11
-90
21
-22.500000000000007
31
0
0
LINE
5
138
100
AcDbEntity
8
0
100
AcDbLine
10
30.000000000000007
20
-82.5
30
0
11
8.8817841970012523e-15
21
-82.500000000000028
31
0
0
LINE
5
139
100
AcDbEntity
8
0
100
AcDbLine
10
30.000000000000007
20
7.4999999999999911
30
0
11
30.000000000000007
21
-22.500000000000007
31
0
0
LINE
5
140
100
AcDbEntity
8
0
100
AcDbLine
10
60.000000000000007
20
37.499999999999993
30
0
11
60.000000000000007
21
7.4999999999999911
31
0
0
LINE
5
141
100
AcDbEntity
8
0
100
AcDbLine
10
120
20
7.4999999999999911
30
0
11
90
21
7.4999999999999734
31
0
0
LINE
5
142
100
AcDbEntity
8
0
100
AcDbLine
10
8.8817841970012523e-15
20
7.4999999999999911
30
0
11
8.8817841970012523e-15
21
-22.500000000000007
31
0
0
LINE
5
143
100
AcDbEntity
8
0
100
AcDbLine
10
8.8817841970012523e-15
20
7.4999999999999911
30
0
11
-29.999999999999993
21
7.4999999999999734
31
0
0
LINE
5
144
100
AcDbEntity
8
0
100
AcDbLine
10
120
20
67.499999999999986
30
0
11
120
21
37.499999999999993
31
0
0
LINE
5
145
100
AcDbEntity
8
0
100
AcDbLine
10
120
20
97.5
30
0
11
-90
21
97.5
31
0
0
LINE
5
146
100
AcDbEntity
8
0
100
AcDbLine
10
30.000000000000007
20
-112.5
30
0
11
8.8817841970012523e-15
21
-112.50000000000003
31
0
0
LINE
5
147
100
AcDbEntity
8
0
100
AcDbLine
10
30.000000000000007
20
97.5
30
0
11
30.000000000000007
21
67.499999999999986
31
0
0
LINE
5
148
100
AcDbEntity
8
0
100
AcDbLine
10
30.000000000000007
20
-22.500000000000007
30
0
11
8.8817841970012523e-15
21
-22.500000000000028
31
0
0
LINE
5
149
100
AcDbEntity
8
0
100
AcDbLine
10
30.000000000000007
20
-52.500000000000007
30
0
11
8.8817841970012523e-15
21
-52.500000000000028
31
0
0
LINE
5
150
100
AcDbEntity
8
0
100
AcDbLine
10
8.8817841970012523e-15
20
37.499999999999993
30
0
11
-29.999999999999993
21
37.499999999999972
31
0
0
LINE
5
151
100
AcDbEntity
8
0
100
AcDbLine
10
30.000000000000007
20
-142.5
30
0
11
8.8817841970012523e-15
21
-142.50000000000003
31
0
0
LINE
5
152
100
AcDbEntity
8
0
100
AcDbLine
10
-59.999999999999993
20
-142.5
30
0
11
-90
21
-142.50000000000003
31
0
0
LINE
5
153
100
AcDbEntity
8
0
100
AcDbLine
10
60.000000000000007
20
-82.5
30
0
11
60.000000000000007
21
-112.5
31
0
0
LINE
5
154
100
AcDbEntity
8
0
100
AcDbLine
10
90
20
7.4999999999999911
30
0
11
90
21
-22.500000000000007
31
0
0
LINE
5
155
100
AcDbEntity
8
0
100
AcDbLine
10
8.8817841970012523e-15
20
37.499999999999993
30
0
11
8.8817841970012523e-15
21
7.4999999999999911
31
0
0
LINE
5
156
100
AcDbEntity
8
0
100
AcDbLine
10
30.000000000000007
20
-82.5
30
0
11
30.000000000000007
21
-112.5
31
0
0
LINE
5
157
100
AcDbEntity
8
0
100
AcDbLine
10
8.8817841970012523e-15
20
97.5
30
0
11
8.8817841970012523e-15
21
67.499999999999986
31
0
0
LINE
5
158
100
AcDbEntity
8
0
100
AcDbLine
10
90
20
67.499999999999986
30
0
11
60.000000000000007
21
67.499999999999972
31
0
0
LINE
5
159
100
AcDbEntity
8
0
100
AcDbLine
10
-29.999999999999993
20
37.499999999999993
30
0
11
-29.999999999999993
21
7.4999999999999911
31
0
0
LINE
5
160
100
AcDbEntity
8
0
100
AcDbLine
10
-59.999999999999993
20
7.4999999999999911
30
0
11
-90
21
7.4999999999999734
31
0
0
LINE
5
161
100
AcDbEntity
8
0
100
AcDbLine
10
120
20
67.499999999999986
30
0
11
90
21
67.499999999999972
31
0
0
LINE
5
162
100
AcDbEntity
8
0
100
AcDbLine
10
120
20
37.499999999999993
30
0
11
90
21
37.499999999999972
31
0
0
LINE
5
163
100
AcDbEntity
8
0
100
AcDbLine
10
90
20
37.499999999999993
30
0
11
60.000000000000007
21
37.499999999999972
31
0
0
LINE
5
164
100
AcDbEntity
8
0
100
AcDbLine
10
-59.999999999999993
20
7.4999999999999911
30
0
11
-59.999999999999993
21
-22.500000000000007
31
0
0
LINE
5
165
100
AcDbEntity
8
0
100
AcDbLine
10
60.000000000000007
20
37.499999999999993
30
0
11
30.000000000000007
21
37.499999999999972
31
0
0
LINE
5
166
100
AcDbEntity
8
0
100
AcDbLine
10
120
20
37.499999999999993
30
0
11
120
21
7.4999999999999911
31
0
0
LINE
5
167
100
AcDbEntity
8
0
100
AcDbLine
10
120
20
97.5
30
0
11
120
21
67.499999999999986
31
0
0
LINE
5
168
100
AcDbEntity
8
0
100
AcDbLine
10
60.000000000000007
20
97.5
30
0
11
60.000000000000007
21
67.499999999999986
31
0
0
LINE
5
169
100
AcDbEntity
8
0
100
AcDbLine
10
90
20
97.5
30
0
11
90
21
67.499999999999986
31
0
0
LINE
5
170
100
AcDbEntity
8
0
100
AcDbLine
10
90
20
67.499999999999986
30
0
11
90
21
37.499999999999993
31
0
0
LINE
5
171
100
AcDbEntity
8
0
100
AcDbLine
10
8.8817841970012523e-15
20
67.499999999999986
30
0
11
8.8817841970012523e-15
21
37.499999999999993
31
0
0
LINE
5
172
100
AcDbEntity
8
0
100
AcDbLine
10
30.000000000000007
20
37.499999999999993
30
0
11
8.8817841970012523e-15
21
37.499999999999972
31
0
0
LINE
5
173
100
AcDbEntity
8
0
100
AcDbLine
10
-120
20
-142.50000000000003
30
0
11
-120
21
67.499999999999972
31
0
0
LINE
5
174
100
AcDbEntity
8
0
100
AcDbLine
10
30.000000000000007
20
37.499999999999993
30
0
11
30.000000000000007
21
7.4999999999999911
31
0
0
LINE
5
175
100
AcDbEntity
8
0
100
AcDbLine
10
-59.999999999999993
20
67.499999999999986
30
0
11
-59.999999999999993
21
37.499999999999993
31
0
0
LINE
5
176
100
AcDbEntity
8
0
100
AcDbLine
10
-59.999999999999993
20
37.499999999999993
30
0
11
-90
21
37.499999999999972
31
0
0
LINE
5
177
100
AcDbEntity
8
0
100
AcDbLine
10
-29.999999999999993
20
7.4999999999999911
30
0
11
-59.999999999999993
21
7.4999999999999734
31
0
0
LINE
5
178
100
AcDbEntity
8
0
100
AcDbLine
10
-90
20
37.499999999999993
30
0
11
-90
21
7.4999999999999911
31
0
0
LINE
5
179
100
AcDbEntity
8
0
100
AcDbLine
10
-29.999999999999993
20
67.499999999999986
30
0
11
-59.999999999999993
21
67.499999999999972
31
0
0
LINE
5
180
100
AcDbEntity
8
0
100
AcDbLine
10
90
20
7.4999999999999911
30
0
11
60.000000000000007
21
7.4999999999999734
31
0
0
LINE
5
181
100
AcDbEntity
8
0
100
AcDbLine
10
60.000000000000007
20
67.499999999999986
30
0
11
30.000000000000007
21
67.499999999999972
31
0
0
LINE
5
182
100
AcDbEntity
8
0
100
AcDbLine
10
90
20
37.499999999999993
30
0
11
90
21
7.4999999999999911
31
0
0
LINE
5
183
100
AcDbEntity
8
0
100
AcDbLine
10
30.000000000000007
20
67.499999999999986
30
0
11
8.8817841970012523e-15
21
67.499999999999972
31
0
0
LINE
5
184
100
AcDbEntity
8
0
100
AcDbLine
10
30.000000000000007
20
67.499999999999986
30
0
11
30.000000000000007
21
37.499999999999993
31
0
0
LINE
5
185
100
AcDbEntity
8
0
100
AcDbLine
10
60.000000000000007
20
67.499999999999986
30
0
11
60.000000000000007
21
37.499999999999993
31
0
0
LINE
5
186
100
AcDbEntity
8
0
100
AcDbLine
10
-29.999999999999993
20
37.499999999999993
30
0
11
-59.999999999999993
21
37.499999999999972
31
0
0
LINE
5
187
100
AcDbEntity
8
0
100
AcDbLine
10
30.000000000000007
20
-22.500000000000007
30
0
11
30.000000000000007
21
-52.500000000000007
31
0
0
LINE
5
188
100
AcDbEntity
8
0
100
AcDbLine
10
-29.999999999999993
20
-22.500000000000007
30
0
11
-59.999999999999993
21
-22.500000000000028
31
0
0
LINE
5
189
100
AcDbEntity
8
0
100
AcDbLine
10
-90
20
-82.5
30
0
11
-90
21
-112.5
31
0
0
LINE
5
190
100
AcDbEntity
8
0
100
AcDbLine
10
-29.999999999999993
20
-82.5
30
0
11
-59.999999999999993
21
-82.500000000000028
31
0
0
LINE
5
191
100
AcDbEntity
8
0
100
AcDbLine
10
8.8817841970012523e-15
20
-112.5
30
0
11
-29.999999999999993
21
-112.50000000000003
31
0
0
LINE
5
192
100
AcDbEntity
8
0
100
AcDbLine
10
90
20
-142.5
30
0
11
60.000000000000007
21
-142.50000000000003
31
0
0
LINE
5
193
100
AcDbEntity
8
0
100
AcDbLine
10
90
20
-52.500000000000007
30
0
11
90
21
-82.5
31
0
0
LINE
5
194
100
AcDbEntity
8
0
100
AcDbLine
10
90
20
-112.5
30
0
11
60.000000000000007
21
-112.50000000000003
31
0
0
LINE
5
195
100
AcDbEntity
8
0
100
AcDbLine
10
-90
20
-112.5
30
0
11
-120
21
-112.50000000000003
31
0
0
LINE
5
196
100
AcDbEntity
8
0
100
AcDbLine
10
-59.999999999999993
20
-52.500000000000007
30
0
11
-90
21
-52.500000000000028
31
0
0
LINE
5
197
100
AcDbEntity
8
0
100
AcDbLine
10
-90
20
-82.5
30
0
11
-120
21
-82.500000000000028
31
0
0
LINE
5
198
100
AcDbEntity
8
0
100
AcDbLine
10
8.8817841970012523e-15
20
-52.500000000000007
30
0
11
8.8817841970012523e-15
21
-82.5
31
0
0
LINE
5
199
100
AcDbEntity
8
0
100
AcDbLine
10
8.8817841970012523e-15
20
-82.5
30
0
11
8.8817841970012523e-15
21
-112.5
31
0
0
LINE
5
200
100
AcDbEntity
8
0
100
AcDbLine
10
-59.999999999999993
20
-52.500000000000007
30
0
11
-59.999999999999993
21
-82.5
31
0
0
LINE
5
201
100
AcDbEntity
8
0
100
AcDbLine
10
-29.999999999999993
20
-52.500000000000007
30
0
11
-59.999999999999993
21
-52.500000000000028
31
0
0
LINE
5
202
100
AcDbEntity
8
0
100
AcDbLine
10
8.8817841970012523e-15
20
-22.500000000000007
30
0
11
-29.999999999999993
21
-22.500000000000028
31
0
0
LINE
5
203
100
AcDbEntity
8
0
100
AcDbLine
10
60.000000000000007
20
-82.5
30
0
11
30.000000000000007
21
-82.500000000000028
31
0
0
LINE
5
204
100
AcDbEntity
8
0
100
AcDbLine
10
90
20
-82.5
30
0
11
60.000000000000007
21
-82.500000000000028
31
0
0
LINE
5
205
100
AcDbEntity
8
0
100
AcDbLine
10
-59.999999999999993
20
-82.5
30
0
11
-59.999999999999993
21
-112.5
31
0
0
LINE
5
206
100
AcDbEntity
8
0
100
AcDbLine
10
120
20
-52.500000000000007
30
0
11
120
21
-82.5
31
0
0
LINE
5
207
100
AcDbEntity
8
0
100
AcDbLine
10
120
20
-112.5
30
0
11
120
21
-142.5
31
0
0
LINE
5
208
100
AcDbEntity
8
0
100
AcDbLine
10
120
20
-52.500000000000007
30
0
11
90
21
-52.500000000000028
31
0
0
LINE
5
209
100
AcDbEntity
8
0
100
AcDbLine
10
120
20
-82.5
30
0
11
90
21
-82.500000000000028
31
0
0
LINE
5
210
100
AcDbEntity
8
0
100
AcDbLine
10
8.8817841970012523e-15
20
-22.500000000000007
30
0
11
8.8817841970012523e-15
21
-52.500000000000007
31
0
0
LINE
5
211
100
AcDbEntity
8
0
100
AcDbLine
10
8.8817841970012523e-15
20
-52.500000000000007
30
0
11
-29.999999999999993
21
-52.500000000000028
31
0
0
LINE
5
212
100
AcDbEntity
8
0
100
AcDbLine
10
90
20
-112.5
30
0
11
90
21
-142.5
31
0
0
LINE
5
213
100
AcDbEntity
8
0
100
AcDbLine
10
-29.999999999999993
20
-22.500000000000007
30
0
11
-29.999999999999993
21
-52.500000000000007
31
0
0
LINE
5
214
100
AcDbEntity
8
0
100
AcDbLine
10
120
20
-22.500000000000007
30
0
11
120
21
-52.500000000000007
31
0
0
LINE
5
215
100
AcDbEntity
8
0
100
AcDbLine
10
-90
20
-52.500000000000007
30
0
11
-90
21
-82.5
31
0
0
LINE
5
216
100
AcDbEntity
8
0
100
AcDbLine
10
60.000000000000007
20
-52.500000000000007
30
0
11
30.000000000000007
21
-52.500000000000028
31
0
0
LINE
5
217
100
AcDbEntity
8
0
100
AcDbLine
10
-90
20
-112.5
30
0
11
-90
21
-142.5
31
0
0
LINE
5
218
100
AcDbEntity
8
0
100
AcDbLine
10
8.8817841970012523e-15
20
-142.5
30
0
11
-29.999999999999993
21
-142.50000000000003
31
0
0
LINE
5
219
100
AcDbEntity
8
0
100
AcDbLine
10
120
20
-112.5
30
0
11
90
21
-112.50000000000003
31
0
0
LINE
5
220
100
AcDbEntity
8
0
100
AcDbLine
10
-90
20
-22.500000000000007
30
0
11
-90
21
-52.500000000000007
31
0
0
LINE
5
221
100
AcDbEntity
8
0
100
AcDbLine
10
8.8817841970012523e-15
20
-82.5
30
0
11
-29.999999999999993
21
-82.500000000000028
31
0
0
LINE
5
222
100
AcDbEntity
8
0
100
AcDbLine
10
60.000000000000007
20
-112.5
30
0
11
60.000000000000007
21
-142.5
31
0
0
LINE
5
223
100
AcDbEntity
8
0
100
AcDbLine
10
60.000000000000007
20
-22.500000000000007
30
0
11
30.000000000000007
21
-22.500000000000028
31
0
0
LINE
5
224
100
AcDbEntity
8
0
100
AcDbLine
10
90
20
-82.5
30
0
11
90
21
-112.5
31
0
0
LINE
5
225
100
AcDbEntity
8
0
100
AcDbLine
10
-90
20
-22.500000000000007
30
0
11
-120
21
-22.500000000000028
31
0
0
LINE
5
226
100
AcDbEntity
8
0
100
AcDbLine
10
-90
20
-52.500000000000007
30
0
11
-120
21
-52.500000000000028
31
0
0
LINE
5
227
100
AcDbEntity
8
0
100
AcDbLine
10
90
20
-22.500000000000007
30
0
11
90
21
-52.500000000000007
31
0
0
LINE
5
228
100
AcDbEntity
8
0
100
AcDbLine
10
120
20
-22.500000000000007
30
0
11
90
21
-22.500000000000028
31
0
0
LINE
5
229
100
AcDbEntity
8
0
100
AcDbLine
10
-29.999999999999993
20
-52.500000000000007
30
0
11
-29.999999999999993
21
-82.5
31
0
0
LINE
5
230
100
AcDbEntity
8
0
100
AcDbLine
10
-59.999999999999993
20
-22.500000000000007
30
0
11
-59.999999999999993
21
-52.500000000000007
31
0
0
LINE
5
231
100
AcDbEntity
8
0
100
AcDbLine
10
90
20
-22.500000000000007
30
0
11
60.000000000000007
21
-22.500000000000028
31
0
0
LINE
5
232
100
AcDbEntity
8
0
100
AcDbLine
10
-59.999999999999993
20
-112.5
30
0
11
-90
21
-112.50000000000003
31
0
0
LINE
5
233
100
AcDbEntity
8
0
100
AcDbLine
10
-59.999999999999993
20
-112.5
30
0
11
-59.999999999999993
21
-142.5
31
0
0
LINE
5
234
100
AcDbEntity
8
0
100
AcDbLine
10
-90
20
-142.5
30
0
11
-120
21
-142.50000000000003
31
0
0
LINE
5
235
100
AcDbEntity
8
0
100
AcDbLine
10
60.000000000000007
20
-142.5
30
0
11
30.000000000000007
21
-142.50000000000003
31
0
0
LINE
5
236
100
AcDbEntity
8
0
100
AcDbLine
10
30.000000000000007
20
-52.500000000000007
30
0
11
30.000000000000007
21
-82.5
31
0
0
LINE
5
237
100
AcDbEntity
8
0
100
AcDbLine
10
-29.999999999999993
20
-142.5
30
0
11
-59.999999999999993
21
-142.50000000000003
31
0
0
LINE
5
238
100
AcDbEntity
8
0
100
AcDbLine
10
120
20
-142.5
30
0
11
135.60000000000002
21
-142.5
31
0
0
LINE
5
239
100
AcDbEntity
8
0
100
AcDbLine
10
-120
20
-142.50000000000003
30
0
11
-135.59999999999999
21
-142.50000000000003
31
0
0
LINE
5
240
100
AcDbEntity
8
0
100
AcDbLine
10
8.8817841970012523e-15
20
-142.50000000000003
30
0
11
1.5300261058115439e-14
21
-158.10000000000005
31
0
0
LINE
5
241
100
AcDbEntity
8
0
100
AcDbLine
10
120
20
88.928571428571402
30
0
11
111.42857142857144
21
97.5
31
0
0
LINE
5
242
100
AcDbEntity
8
0
100
AcDbLine
10
120
20
80.357142857142861
30
0
11
102.85714285714289
21
97.5
31
0
0
LINE
5
243
100
AcDbEntity
8
0
100
AcDbLine
10
120
20
71.785714285714249
30
0
11
94.285714285714306
21
97.5
31
0
0
LINE
5
244
100
AcDbEntity
8
0
100
AcDbLine
10
115.71428571428568
20
67.5
30
0
11
90
21
93.214285714285751
31
0
0
LINE
5
245
100
AcDbEntity
8
0
100
AcDbLine
10
98.571428571428584
20
67.499999999999986
30
0
11
90
21
76.071428571428555
31
0
0
LINE
5
246
100
AcDbEntity
8
0
100
AcDbLine
10
107.1428571428572
20
67.5
30
0
11
90
21
84.642857142857139
31
0
0
LINE
5
247
100
AcDbEntity
8
0
100
AcDbLine
10
115.71428571428572
20
93.214285714285694
30
0
11
111.42857142857142
21
88.928571428571416
31
0
0
LINE
5
248
100
AcDbEntity
8
0
100
AcDbLine
10
111.42857142857142
20
88.928571428571416
30
0
11
107.14285714285717
21
84.64285714285711
31
0
0
LINE
5
249
100
AcDbEntity
8
0
100
AcDbLine
10
107.14285714285717
20
84.64285714285711
30
0
11
102.85714285714285
21
80.357142857142861
31
0
0
LINE
5
250
100
AcDbEntity
8
0
100
AcDbLine
10
102.85714285714285
20
80.357142857142861
30
0
11
98.571428571428584
21
76.071428571428555
31
0
0
LINE
5
251
100
AcDbEntity
8
0
100
AcDbLine
10
98.571428571428584
20
76.071428571428555
30
0
11
94.285714285714292
21
71.785714285714278
31
0
0
LINE
5
252
100
AcDbEntity
8
0
100
AcDbLine
10
94.285714285714292
20
71.785714285714278
30
0
11
90
21
67.499999999999986
31
0
0
LINE
5
253
100
AcDbEntity
8
0
100
AcDbLine
10
115.71428571428572
20
93.214285714285694
30
0
11
120
21
97.5
31
0
0
LINE
5
254
100
AcDbEntity
8
0
100
AcDbLine
10
60
20
88.928571428571402
30
0
11
51.428571428571445
21
97.5
31
0
0
LINE
5
255
100
AcDbEntity
8
0
100
AcDbLine
10
60
20
80.357142857142861
30
0
11
42.857142857142883
21
97.5
31
0
0
LINE
5
256
100
AcDbEntity
8
0
100
AcDbLine
10
60
20
71.785714285714249
30
0
11
34.285714285714306
21
97.5
31
0
0
LINE
5
257
100
AcDbEntity
8
0
100
AcDbLine
10
55.71428571428568
20
67.5
30
0
11
30
21
93.214285714285751
31
0
0
LINE
5
258
100
AcDbEntity
8
0
100
AcDbLine
10
47.142857142857189
20
67.5
30
0
11
30
21
84.642857142857139
31
0
0
LINE
5
259
100
AcDbEntity
8
0
100
AcDbLine
10
38.571428571428577
20
67.499999999999986
30
0
11
30
21
76.071428571428555
31
0
0
LINE
5
260
100
AcDbEntity
8
0
100
AcDbLine
10
0
20
88.928571428571402
30
0
11
-8.5714285714285587
21
97.5
31
0
0
LINE
5
261
100
AcDbEntity
8
0
100
AcDbLine
10
0
20
80.357142857142861
30
0
11
-17.142857142857117
21
97.5
31
0
0
LINE
5
262
100
AcDbEntity
8
0
100
AcDbLine
10
0
20
71.785714285714249
30
0
11
-25.714285714285694
21
97.5
31
0
0
LINE
5
263
100
AcDbEntity
8
0
100
AcDbLine
10
-4.2857142857143238
20
67.5
30
0
11
-30
21
93.214285714285751
31
0
0
LINE
5
264
100
AcDbEntity
8
0
100
AcDbLine
10
-12.857142857142811
20
67.5
30
0
11
-30
21
84.642857142857139
31
0
0
LINE
5
265
100
AcDbEntity
8
0
100
AcDbLine
10
-21.428571428571423
20
67.499999999999986
30
0
11
-30
21
76.071428571428555
31
0
0
LINE
5
266
100
AcDbEntity
8
0
100
AcDbLine
10
-60
20
88.928571428571402
30
0
11
-68.571428571428555
21
97.5
31
0
0
LINE
5
267
100
AcDbEntity
8
0
100
AcDbLine
10
-60
20
80.357142857142861
30
0
11
-77.14285714285711
21
97.5
31
0
0
LINE
5
268
100
AcDbEntity
8
0
100
AcDbLine
10
-60
20
71.785714285714249
30
0
11
-85.714285714285694
21
97.5
31
0
0
LINE
5
269
100
AcDbEntity
8
0
100
AcDbLine
10
-64.28571428571432
20
67.5
30
0
11
-90
21
93.214285714285751
31
0
0
LINE
5
270
100
AcDbEntity
8
0
100
AcDbLine
10
-72.857142857142804
20
67.5
30
0
11
-90
21
84.642857142857139
31
0
0
LINE
5
271
100
AcDbEntity
8
0
100
AcDbLine
10
-81.428571428571416
20
67.499999999999986
30
0
11
-90
21
76.071428571428555
31
0
0
LINE
5
272
100
AcDbEntity
8
0
100
AcDbLine
10
120
20
28.928571428571406
30
0
11
111.42857142857144
21
37.5
31
0
0
LINE
5
273
100
AcDbEntity
8
0
100
AcDbLine
10
120
20
20.357142857142865
30
0
11
102.85714285714289
21
37.5
31
0
0
LINE
5
274
100
AcDbEntity
8
0
100
AcDbLine
10
120
20
11.785714285714253
30
0
11
94.285714285714306
21
37.5
31
0
0
LINE
5
275
100
AcDbEntity
8
0
100
AcDbLine
10
115.71428571428568
20
7.5
30
0
11
90
21
33.214285714285751
31
0
0
LINE
5
276
100
AcDbEntity
8
0
100
AcDbLine
10
107.1428571428572
20
7.5
30
0
11
90
21
24.642857142857135
31
0
0
LINE
5
277
100
AcDbEntity
8
0
100
AcDbLine
10
98.571428571428584
20
7.4999999999999822
30
0
11
90
21
16.071428571428548
31
0
0
LINE
5
278
100
AcDbEntity
8
0
100
AcDbLine
10
60
20
28.928571428571406
30
0
11
51.428571428571445
21
37.5
31
0
0
LINE
5
279
100
AcDbEntity
8
0
100
AcDbLine
10
60
20
20.357142857142865
30
0
11
42.857142857142883
21
37.5
31
0
0
LINE
5
280
100
AcDbEntity
8
0
100
AcDbLine
10
60
20
11.785714285714253
30
0
11
34.285714285714306
21
37.5
31
0
0
LINE
5
281
100
AcDbEntity
8
0
100
AcDbLine
10
55.71428571428568
20
7.5
30
0
11
30
21
33.214285714285751
31
0
0
LINE
5
282
100
AcDbEntity
8
0
100
AcDbLine
10
47.142857142857189
20
7.5
30
0
11
30
21
24.642857142857135
31
0
0
LINE
5
283
100
AcDbEntity
8
0
100
AcDbLine
10
38.571428571428577
20
7.4999999999999822
30
0
11
30
21
16.071428571428548
31
0
0
LINE
5
284
100
AcDbEntity
8
0
100
AcDbLine
10
0
20
28.928571428571406
30
0
11
-8.5714285714285587
21
37.5
31
0
0
LINE
5
285
100
AcDbEntity
8
0
100
AcDbLine
10
0
20
20.357142857142865
30
0
11
-17.142857142857117
21
37.5
31
0
0
LINE
5
286
100
AcDbEntity
8
0
100
AcDbLine
10
0
20
11.785714285714253
30
0
11
-25.714285714285694
21
37.5
31
0
0
LINE
5
287
100
AcDbEntity
8
0
100
AcDbLine
10
-4.2857142857143238
20
7.5
30
0
11
-30
21
33.214285714285751
31
0
0
LINE
5
288
100
AcDbEntity
8
0
100
AcDbLine
10
-12.857142857142811
20
7.5
30
0
11
-30
21
24.642857142857135
31
0
0
LINE
5
289
100
AcDbEntity
8
0
100
AcDbLine
10
-21.428571428571423
20
7.4999999999999822
30
0
11
-30
21
16.071428571428548
31
0
0
LINE
5
290
100
AcDbEntity
8
0
100
AcDbLine
10
-60
20
28.928571428571406
30
0
11
-68.571428571428555
21
37.5
31
0
0
LINE
5
291
100
AcDbEntity
8
0
100
AcDbLine
10
-60
20
20.357142857142865
30
0
11
-77.14285714285711
21
37.5
31
0
0
LINE
5
292
100
AcDbEntity
8
0
100
AcDbLine
10
-60
20
11.785714285714253
30
0
11
-85.714285714285694
21
37.5
31
0
0
LINE
5
293
100
AcDbEntity
8
0
100
AcDbLine
10
-64.28571428571432
20
7.5
30
0
11
-90
21
33.214285714285751
31
0
0
LINE
5
294
100
AcDbEntity
8
0
100
AcDbLine
10
-72.857142857142804
20
7.5
30
0
11
-90
21
24.642857142857135
31
0
0
LINE
5
295
100
AcDbEntity
8
0
100
AcDbLine
10
-81.428571428571416
20
7.4999999999999822
30
0
11
-90
21
16.071428571428548
31
0
0
LINE
5
296
100
AcDbEntity
8
0
100
AcDbLine
10
120
20
-31.071428571428594
30
0
11
111.42857142857144
21
-22.5
31
0
0
LINE
5
297
100
AcDbEntity
8
0
100
AcDbLine
10
120
20
-39.642857142857139
30
0
11
102.85714285714289
21
-22.5
31
0
0
LINE
5
298
100
AcDbEntity
8
0
100
AcDbLine
10
120
20
-48.214285714285751
30
0
11
94.285714285714306
21
-22.5
31
0
0
LINE
5
299
100
AcDbEntity
8
0
100
AcDbLine
10
115.71428571428568
20
-52.5
30
0
11
90
21
-26.785714285714253
31
0
0
LINE
5
300
100
AcDbEntity
8
0
100
AcDbLine
10
107.1428571428572
20
-52.5
30
0
11
90
21
-35.357142857142861
31
0
0
LINE
5
301
100
AcDbEntity
8
0
100
AcDbLine
10
98.571428571428584
20
-52.500000000000014
30
0
11
90
21
-43.928571428571452
31
0
0
LINE
5
302
100
AcDbEntity
8
0
100
AcDbLine
10
60
20
-31.071428571428594
30
0
11
51.428571428571445
21
-22.5
31
0
0
LINE
5
303
100
AcDbEntity
8
0
100
AcDbLine
10
60
20
-39.642857142857139
30
0
11
42.857142857142883
21
-22.5
31
0
0
LINE
5
304
100
AcDbEntity
8
0
100
AcDbLine
10
60
20
-48.214285714285751
30
0
11
34.285714285714306
21
-22.5
31
0
0
LINE
5
305
100
AcDbEntity
8
0
100
AcDbLine
10
55.71428571428568
20
-52.5
30
0
11
30
21
-26.785714285714253
31
0
0
LINE
5
306
100
AcDbEntity
8
0
100
AcDbLine
10
47.142857142857189
20
-52.5
30
0
11
30
21
-35.357142857142861
31
0
0
LINE
5
307
100
AcDbEntity
8
0
100
AcDbLine
10
38.571428571428577
20
-52.500000000000014
30
0
11
30
21
-43.928571428571452
31
0
0
LINE
5
308
100
AcDbEntity
8
0
100
AcDbLine
10
0
20
-31.071428571428594
30
0
11
-8.5714285714285587
21
-22.5
31
0
0
LINE
5
309
100
AcDbEntity
8
0
100
AcDbLine
10
0
20
-39.642857142857139
30
0
11
-17.142857142857117
21
-22.5
31
0
0
LINE
5
310
100
AcDbEntity
8
0
100
AcDbLine
10
0
20
-48.214285714285751
30
0
11
-25.714285714285694
21
-22.5
31
0
0
LINE
5
311
100
AcDbEntity
8
0
100
AcDbLine
10
-4.2857142857143238
20
-52.5
30
0
11
-30
21
-26.785714285714253
31
0
0
LINE
5
312
100
AcDbEntity
8
0
100
AcDbLine
10
-12.857142857142811
20
-52.5
30
0
11
-30
21
-35.357142857142861
31
0
0
LINE
5
313
100
AcDbEntity
8
0
100
AcDbLine
10
-21.428571428571423
20
-52.500000000000014
30
0
11
-30
21
-43.928571428571452
31
0
0
LINE
5
314
100
AcDbEntity
8
0
100
AcDbLine
10
-60
20
-31.071428571428594
30
0
11
-68.571428571428555
21
-22.5
31
0
0
LINE
5
315
100
AcDbEntity
8
0
100
AcDbLine
10
-60
20
-39.642857142857139
30
0
11
-77.14285714285711
21
-22.5
31
0
0
LINE
5
316
100
AcDbEntity
8
0
100
AcDbLine
10
-60
20
-48.214285714285751
30
0
11
-85.714285714285694
21
-22.5
31
0
0
LINE
5
317
100
AcDbEntity
8
0
100
AcDbLine
10
-64.28571428571432
20
-52.5
30
0
11
-90
21
-26.785714285714253
31
0
0
LINE
5
318
100
AcDbEntity
8
0
100
AcDbLine
10
-72.857142857142804
20
-52.5
30
0
11
-90
21
-35.357142857142861
31
0
0
LINE
5
319
100
AcDbEntity
8
0
100
AcDbLine
10
-81.428571428571416
20
-52.500000000000014
30
0
11
-90
21
-43.928571428571452
31
0
0
LINE
5
320
100
AcDbEntity
8
0
100
AcDbLine
10
120
20
-91.071428571428598
30
0
11
111.42857142857144
21
-82.5
31
0
0
LINE
5
321
100
AcDbEntity
8
0
100
AcDbLine
10
120
20
-99.642857142857139
30
0
11
102.85714285714289
21
-82.5
31
0
0
LINE
5
322
100
AcDbEntity
8
0
100
AcDbLine
10
120
20
-108.21428571428575
30
0
11
94.285714285714306
21
-82.5
31
0
0
LINE
5
323
100
AcDbEntity
8
0
100
AcDbLine
10
115.71428571428568
20
-112.5
30
0
11
90
21
-86.785714285714249
31
0
0
LINE
5
324
100
AcDbEntity
8
0
100
AcDbLine
10
107.1428571428572
20
-112.5
30
0
11
90
21
-95.357142857142861
31
0
0
LINE
5
325
100
AcDbEntity
8
0
100
AcDbLine
10
98.571428571428584
20
-112.50000000000001
30
0
11
90
21
-103.92857142857146
31
0
0
LINE
5
326
100
AcDbEntity
8
0
100
AcDbLine
10
60
20
-91.071428571428598
30
0
11
51.428571428571445
21
-82.5
31
0
0
LINE
5
327
100
AcDbEntity
8
0
100
AcDbLine
10
60
20
-99.642857142857139
30
0
11
42.857142857142883
21
-82.5
31
0
0
LINE
5
328
100
AcDbEntity
8
0
100
AcDbLine
10
60
20
-108.21428571428575
30
0
11
34.285714285714306
21
-82.5
31
0
0
LINE
5
329
100
AcDbEntity
8
0
100
AcDbLine
10
55.71428571428568
20
-112.5
30
0
11
30
21
-86.785714285714249
31
0
0
LINE
5
330
100
AcDbEntity
8
0
100
AcDbLine
10
47.142857142857189
20
-112.5
30
0
11
30
21
-95.357142857142861
31
0
0
LINE
5
331
100
AcDbEntity
8
0
100
AcDbLine
10
38.571428571428577
20
-112.50000000000001
30
0
11
30
21
-103.92857142857146
31
0
0
LINE
5
332
100
AcDbEntity
8
0
100
AcDbLine
10
0
20
-91.071428571428598
30
0
11
-8.5714285714285587
21
-82.5
31
0
0
LINE
5
333
100
AcDbEntity
8
0
100
AcDbLine
10
0
20
-99.642857142857139
30
0
11
-17.142857142857117
21
-82.5
31
0
0
LINE
5
334
100
AcDbEntity
8
0
100
AcDbLine
10
0
20
-108.21428571428575
30
0
11
-25.714285714285694
21
-82.5
31
0
0
LINE
5
335
100
AcDbEntity
8
0
100
AcDbLine
10
-4.2857142857143238
20
-112.5
30
0
11
-30
21
-86.785714285714249
31
0
0
LINE
5
336
100
AcDbEntity
8
0
100
AcDbLine
10
-12.857142857142811
20
-112.5
30
0
11
-30
21
-95.357142857142861
31
0
0
LINE
5
337
100
AcDbEntity
8
0
100
AcDbLine
10
-21.428571428571423
20
-112.50000000000001
30
0
11
-30
21
-103.92857142857146
31
0
0
LINE
5
338
100
AcDbEntity
8
0
100
AcDbLine
10
-60
20
-91.071428571428598
30
0
11
-68.571428571428555
21
-82.5
31
0
0
LINE
5
339
100
AcDbEntity
8
0
100
AcDbLine
10
-60
20
-99.642857142857139
30
0
11
-77.14285714285711
21
-82.5
31
0
0
LINE
5
340
100
AcDbEntity
8
0
100
AcDbLine
10
-60
20
-108.21428571428575
30
0
11
-85.714285714285694
21
-82.5
31
0
0
LINE
5
341
100
AcDbEntity
8
0
100
AcDbLine
10
-64.28571428571432
20
-112.5
30
0
11
-90
21
-86.785714285714249
31
0
0
LINE
5
342
100
AcDbEntity
8
0
100
AcDbLine
10
-72.857142857142804
20
-112.5
30
0
11
-90
21
-95.357142857142861
31
0
0
LINE
5
343
100
AcDbEntity
8
0
100
AcDbLine
10
-81.428571428571416
20
-112.50000000000001
30
0
11
-90
21
-103.92857142857146
31
0
0
LINE
5
344
100
AcDbEntity
8
0
100
AcDbLine
10
81.428571428571445
20
67.499999999999986
30
0
11
90
21
58.928571428571416
31
0
0
LINE
5
345
100
AcDbEntity
8
0
100
AcDbLine
10
90
20
50.357142857142819
30
0
11
72.857142857142946
21
67.499999999999972
31
0
0
LINE
5
346
100
AcDbEntity
8
0
100
AcDbLine
10
90
20
41.78571428571427
30
0
11
64.285714285714334
21
67.499999999999943
31
0
0
LINE
5
347
100
AcDbEntity
8
0
100
AcDbLine
10
60
20
46.071428571428612
30
0
11
68.571428571428626
21
37.499999999999964
31
0
0
LINE
5
348
100
AcDbEntity
8
0
100
AcDbLine
10
77.142857142857139
20
37.499999999999972
30
0
11
60
21
54.642857142857117
31
0
0
LINE
5
349
100
AcDbEntity
8
0
100
AcDbLine
10
85.714285714285722
20
37.499999999999972
30
0
11
60
21
63.214285714285758
31
0
0
LINE
5
350
100
AcDbEntity
8
0
100
AcDbLine
10
85.714285714285708
20
63.214285714285708
30
0
11
81.428571428571459
21
58.928571428571395
31
0
0
LINE
5
351
100
AcDbEntity
8
0
100
AcDbLine
10
81.428571428571459
20
58.928571428571395
30
0
11
77.142857142857167
21
54.64285714285711
31
0
0
LINE
5
352
100
AcDbEntity
8
0
100
AcDbLine
10
77.142857142857167
20
54.64285714285711
30
0
11
72.857142857142847
21
50.357142857142847
31
0
0
LINE
5
353
100
AcDbEntity
8
0
100
AcDbLine
10
72.857142857142847
20
50.357142857142847
30
0
11
68.571428571428569
21
46.071428571428555
31
0
0
LINE
5
354
100
AcDbEntity
8
0
100
AcDbLine
10
68.571428571428569
20
46.071428571428555
30
0
11
64.285714285714292
21
41.785714285714278
31
0
0
LINE
5
355
100
AcDbEntity
8
0
100
AcDbLine
10
64.285714285714292
20
41.785714285714278
30
0
11
60.000000000000007
21
37.499999999999993
31
0
0
LINE
5
356
100
AcDbEntity
8
0
100
AcDbLine
10
85.714285714285708
20
63.214285714285708
30
0
11
90
21
67.499999999999986
31
0
0
LINE
5
357
100
AcDbEntity
8
0
100
AcDbLine
10
21.428571428571441
20
67.499999999999986
30
0
11
30
21
58.928571428571416
31
0
0
LINE
5
358
100
AcDbEntity
8
0
100
AcDbLine
10
30
20
50.357142857142819
30
0
11
12.857142857142954
21
67.499999999999972
31
0
0
LINE
5
359
100
AcDbEntity
8
0
100
AcDbLine
10
30
20
41.78571428571427
30
0
11
4.2857142857143415
21
67.499999999999943
31
0
0
LINE
5
360
100
AcDbEntity
8
0
100
AcDbLine
10
25.71428571428573
20
37.499999999999972
30
0
11
0
21
63.214285714285758
31
0
0
LINE
5
361
100
AcDbEntity
8
0
100
AcDbLine
10
17.142857142857146
20
37.499999999999972
30
0
11
0
21
54.642857142857117
31
0
0
LINE
5
362
100
AcDbEntity
8
0
100
AcDbLine
10
0
20
46.071428571428612
30
0
11
8.5714285714286209
21
37.499999999999964
31
0
0
LINE
5
363
100
AcDbEntity
8
0
100
AcDbLine
10
-38.571428571428555
20
67.499999999999986
30
0
11
-30
21
58.928571428571416
31
0
0
LINE
5
364
100
AcDbEntity
8
0
100
AcDbLine
10
-30
20
50.357142857142819
30
0
11
-47.142857142857046
21
67.499999999999972
31
0
0
LINE
5
365
100
AcDbEntity
8
0
100
AcDbLine
10
-30
20
41.78571428571427
30
0
11
-55.714285714285658
21
67.499999999999943
31
0
0
LINE
5
366
100
AcDbEntity
8
0
100
AcDbLine
10
-34.28571428571427
20
37.499999999999972
30
0
11
-60
21
63.214285714285758
31
0
0
LINE
5
367
100
AcDbEntity
8
0
100
AcDbLine
10
-42.857142857142854
20
37.499999999999972
30
0
11
-60
21
54.642857142857117
31
0
0
LINE
5
368
100
AcDbEntity
8
0
100
AcDbLine
10
-60
20
46.071428571428612
30
0
11
-51.428571428571381
21
37.499999999999964
31
0
0
LINE
5
369
100
AcDbEntity
8
0
100
AcDbLine
10
-98.571428571428555
20
67.499999999999986
30
0
11
-90
21
58.928571428571416
31
0
0
LINE
5
370
100
AcDbEntity
8
0
100
AcDbLine
10
-90
20
50.357142857142819
30
0
11
-107.14285714285705
21
67.499999999999972
31
0
0
LINE
5
371
100
AcDbEntity
8
0
100
AcDbLine
10
-90
20
41.78571428571427
30
0
11
-115.71428571428567
21
67.499999999999943
31
0
0
LINE
5
372
100
AcDbEntity
8
0
100
AcDbLine
10
-94.285714285714278
20
37.499999999999972
30
0
11
-120
21
63.214285714285758
31
0
0
LINE
5
373
100
AcDbEntity
8
0
100
AcDbLine
10
-102.85714285714285
20
37.499999999999972
30
0
11
-120
21
54.642857142857117
31
0
0
LINE
5
374
100
AcDbEntity
8
0
100
AcDbLine
10
-120
20
46.071428571428612
30
0
11
-111.42857142857139
21
37.499999999999964
31
0
0
LINE
5
375
100
AcDbEntity
8
0
100
AcDbLine
10
81.428571428571445
20
7.4999999999999822
30
0
11
90
21
-1.0714285714285854
31
0
0
LINE
5
376
100
AcDbEntity
8
0
100
AcDbLine
10
90
20
-9.6428571428571797
30
0
11
72.857142857142946
21
7.4999999999999645
31
0
0
LINE
5
377
100
AcDbEntity
8
0
100
AcDbLine
10
90
20
-18.21428571428573
30
0
11
64.285714285714334
21
7.4999999999999467
31
0
0
LINE
5
378
100
AcDbEntity
8
0
100
AcDbLine
10
85.714285714285722
20
-22.500000000000028
30
0
11
60
21
3.2142857142857562
31
0
0
LINE
5
379
100
AcDbEntity
8
0
100
AcDbLine
10
77.142857142857139
20
-22.500000000000028
30
0
11
60
21
-5.3571428571428825
31
0
0
LINE
5
380
100
AcDbEntity
8
0
100
AcDbLine
10
60
20
-13.928571428571388
30
0
11
68.571428571428626
21
-22.500000000000036
31
0
0
LINE
5
381
100
AcDbEntity
8
0
100
AcDbLine
10
21.428571428571441
20
7.4999999999999822
30
0
11
30
21
-1.0714285714285854
31
0
0
LINE
5
382
100
AcDbEntity
8
0
100
AcDbLine
10
30
20
-9.6428571428571797
30
0
11
12.857142857142954
21
7.4999999999999645
31
0
0
LINE
5
383
100
AcDbEntity
8
0
100
AcDbLine
10
30
20
-18.21428571428573
30
0
11
4.2857142857143415
21
7.4999999999999467
31
0
0
LINE
5
384
100
AcDbEntity
8
0
100
AcDbLine
10
25.71428571428573
20
-22.500000000000028
30
0
11
0
21
3.2142857142857562
31
0
0
LINE
5
385
100
AcDbEntity
8
0
100
AcDbLine
10
17.142857142857146
20
-22.500000000000028
30
0
11
0
21
-5.3571428571428825
31
0
0
LINE
5
386
100
AcDbEntity
8
0
100
AcDbLine
10
0
20
-13.928571428571388
30
0
11
8.5714285714286209
21
-22.500000000000036
31
0
0
LINE
5
387
100
AcDbEntity
8
0
100
AcDbLine
10
-38.571428571428555
20
7.4999999999999822
30
0
11
-30
21
-1.0714285714285854
31
0
0
LINE
5
388
100
AcDbEntity
8
0
100
AcDbLine
10
-30
20
-9.6428571428571797
30
0
11
-47.142857142857046
21
7.4999999999999645
31
0
0
LINE
5
389
100
AcDbEntity
8
0
100
AcDbLine
10
-30
20
-18.21428571428573
30
0
11
-55.714285714285658
21
7.4999999999999467
31
0
0
LINE
5
390
100
AcDbEntity
8
0
100
AcDbLine
10
-34.28571428571427
20
-22.500000000000028
30
0
11
-60
21
3.2142857142857562
31
0
0
LINE
5
391
100
AcDbEntity
8
0
100
AcDbLine
10
-42.857142857142854
20
-22.500000000000028
30
0
11
-60
21
-5.3571428571428825
31
0
0
LINE
5
392
100
AcDbEntity
8
0
100
AcDbLine
10
-60
20
-13.928571428571388
30
0
11
-51.428571428571381
21
-22.500000000000036
31
0
0
LINE
5
393
100
AcDbEntity
8
0
100
AcDbLine
10
-98.571428571428555
20
7.4999999999999822
30
0
11
-90
21
-1.0714285714285854
31
0
0
LINE
5
394
100
AcDbEntity
8
0
100
AcDbLine
10
-90
20
-9.6428571428571797
30
0
11
-107.14285714285705
21
7.4999999999999645
31
0
0
LINE
5
395
100
AcDbEntity
8
0
100
AcDbLine
10
-90
20
-18.21428571428573
30
0
11
-115.71428571428567
21
7.4999999999999467
31
0
0
LINE
5
396
100
AcDbEntity
8
0
100
AcDbLine
10
-94.285714285714278
20
-22.500000000000028
30
0
11
-120
21
3.2142857142857562
31
0
0
LINE
5
397
100
AcDbEntity
8
0
100
AcDbLine
10
-102.85714285714285
20
-22.500000000000028
30
0
11
-120
21
-5.3571428571428825
31
0
0
LINE
5
398
100
AcDbEntity
8
0
100
AcDbLine
10
-120
20
-13.928571428571388
30
0
11
-111.42857142857139
21
-22.500000000000036
31
0
0
LINE
5
399
100
AcDbEntity
8
0
100
AcDbLine
10
81.428571428571445
20
-52.500000000000014
30
0
11
90
21
-61.071428571428584
31
0
0
LINE
5
400
100
AcDbEntity
8
0
100
AcDbLine
10
90
20
-69.642857142857181
30
0
11
72.857142857142946
21
-52.500000000000036
31
0
0
LINE
5
401
100
AcDbEntity
8
0
100
AcDbLine
10
90
20
-78.214285714285722
30
0
11
64.285714285714334
21
-52.500000000000057
31
0
0
LINE
5
402
100
AcDbEntity
8
0
100
AcDbLine
10
85.714285714285722
20
-82.500000000000028
30
0
11
60
21
-56.785714285714242
31
0
0
LINE
5
403
100
AcDbEntity
8
0
100
AcDbLine
10
77.142857142857139
20
-82.500000000000028
30
0
11
60
21
-65.35714285714289
31
0
0
LINE
5
404
100
AcDbEntity
8
0
100
AcDbLine
10
60
20
-73.928571428571388
30
0
11
68.571428571428626
21
-82.500000000000028
31
0
0
LINE
5
405
100
AcDbEntity
8
0
100
AcDbLine
10
21.428571428571441
20
-52.500000000000014
30
0
11
30
21
-61.071428571428584
31
0
0
LINE
5
406
100
AcDbEntity
8
0
100
AcDbLine
10
30
20
-69.642857142857181
30
0
11
12.857142857142954
21
-52.500000000000036
31
0
0
LINE
5
407
100
AcDbEntity
8
0
100
AcDbLine
10
30
20
-78.214285714285722
30
0
11
4.2857142857143415
21
-52.500000000000057
31
0
0
LINE
5
408
100
AcDbEntity
8
0
100
AcDbLine
10
25.71428571428573
20
-82.500000000000028
30
0
11
0
21
-56.785714285714242
31
0
0
LINE
5
409
100
AcDbEntity
8
0
100
AcDbLine
10
17.142857142857146
20
-82.500000000000028
30
0
11
0
21
-65.35714285714289
31
0
0
LINE
5
410
100
AcDbEntity
8
0
100
AcDbLine
10
0
20
-73.928571428571388
30
0
11
8.5714285714286209
21
-82.500000000000028
31
0
0
LINE
5
411
100
AcDbEntity
8
0
100
AcDbLine
10
-38.571428571428555
20
-52.500000000000014
30
0
11
-30
21
-61.071428571428584
31
0
0
LINE
5
412
100
AcDbEntity
8
0
100
AcDbLine
10
-30
20
-69.642857142857181
30
0
11
-47.142857142857046
21
-52.500000000000036
31
0
0
LINE
5
413
100
AcDbEntity
8
0
100
AcDbLine
10
-30
20
-78.214285714285722
30
0
11
-55.714285714285658
21
-52.500000000000057
31
0
0
LINE
5
414
100
AcDbEntity
8
0
100
AcDbLine
10
-34.28571428571427
20
-82.500000000000028
30
0
11
-60
21
-56.785714285714242
31
0
0
LINE
5
415
100
AcDbEntity
8
0
100
AcDbLine
10
-42.857142857142854
20
-82.500000000000028
30
0
11
-60
21
-65.35714285714289
31
0
0
LINE
5
416
100
AcDbEntity
8
0
100
AcDbLine
10
-60
20
-73.928571428571388
30
0
11
-51.428571428571381
21
-82.500000000000028
31
0
0
LINE
5
417
100
AcDbEntity
8
0
100
AcDbLine
10
-98.571428571428555
20
-52.500000000000014
30
0
11
-90
21
-61.071428571428584
31
0
0
LINE
5
418
100
AcDbEntity
8
0
100
AcDbLine
10
-90
20
-69.642857142857181
30
0
11
-107.14285714285705
21
-52.500000000000036
31
0
0
LINE
5
419
100
AcDbEntity
8
0
100
AcDbLine
10
-90
20
-78.214285714285722
30
0
11
-115.71428571428567
21
-52.500000000000057
31
0
0
LINE
5
420
100
AcDbEntity
8
0
100
AcDbLine
10
-94.285714285714278
20
-82.500000000000028
30
0
11
-120
21
-56.785714285714242
31
0
0
LINE
5
421
100
AcDbEntity
8
0
100
AcDbLine
10
-102.85714285714285
20
-82.500000000000028
30
0
11
-120
21
-65.35714285714289
31
0
0
LINE
5
422
100
AcDbEntity
8
0
100
AcDbLine
10
-120
20
-73.928571428571388
30
0
11
-111.42857142857139
21
-82.500000000000028
31
0
0
LINE
5
423
100
AcDbEntity
8
0
100
AcDbLine
10
81.428571428571445
20
-112.50000000000001
30
0
11
90
21
-121.07142857142858
31
0
0
LINE
5
424
100
AcDbEntity
8
0
100
AcDbLine
10
90
20
-129.6428571428572
30
0
11
72.857142857142946
21
-112.50000000000003
31
0
0
LINE
5
425
100
AcDbEntity
8
0
100
AcDbLine
10
90
20
-138.21428571428572
30
0
11
64.285714285714334
21
-112.50000000000006
31
0
0
LINE
5
426
100
AcDbEntity
8
0
100
AcDbLine
10
85.714285714285722
20
-142.50000000000003
30
0
11
60
21
-116.78571428571423
31
0
0
LINE
5
427
100
AcDbEntity
8
0
100
AcDbLine
10
77.142857142857139
20
-142.50000000000003
30
0
11
60
21
-125.35714285714289
31
0
0
LINE
5
428
100
AcDbEntity
8
0
100
AcDbLine
10
60
20
-133.92857142857139
30
0
11
68.571428571428626
21
-142.50000000000003
31
0
0
LINE
5
429
100
AcDbEntity
8
0
100
AcDbLine
10
21.428571428571441
20
-112.50000000000001
30
0
11
30
21
-121.07142857142858
31
0
0
LINE
5
430
100
AcDbEntity
8
0
100
AcDbLine
10
30
20
-129.6428571428572
30
0
11
12.857142857142954
21
-112.50000000000003
31
0
0
LINE
5
431
100
AcDbEntity
8
0
100
AcDbLine
10
30
20
-138.21428571428572
30
0
11
4.2857142857143415
21
-112.50000000000006
31
0
0
LINE
5
432
100
AcDbEntity
8
0
100
AcDbLine
10
25.71428571428573
20
-142.50000000000003
30
0
11
0
21
-116.78571428571423
31
0
0
LINE
5
433
100
AcDbEntity
8
0
100
AcDbLine
10
17.142857142857146
20
-142.50000000000003
30
0
11
0
21
-125.35714285714289
31
0
0
LINE
5
434
100
AcDbEntity
8
0
100
AcDbLine
10
0
20
-133.92857142857139
30
0
11
8.5714285714286209
21
-142.50000000000003
31
0
0
LINE
5
435
100
AcDbEntity
8
0
100
AcDbLine
10
-38.571428571428555
20
-112.50000000000001
30
0
11
-30
21
-121.07142857142858
31
0
0
LINE
5
436
100
AcDbEntity
8
0
100
AcDbLine
10
-30
20
-129.6428571428572
30
0
11
-47.142857142857046
21
-112.50000000000003
31
0
0
LINE
5
437
100
AcDbEntity
8
0
100
AcDbLine
10
-30
20
-138.21428571428572
30
0
11
-55.714285714285658
21
-112.50000000000006
31
0
0
LINE
5
438
100
AcDbEntity
8
0
100
AcDbLine
10
-34.28571428571427
20
-142.50000000000003
30
0
11
-60
21
-116.78571428571423
31
0
0
LINE
5
439
100
AcDbEntity
8
0
100
AcDbLine
10
-42.857142857142854
20
-142.50000000000003
30
0
11
-60
21
-125.35714285714289
31
0
0
LINE
5
440
100
AcDbEntity
8
0
100
AcDbLine
10
-60
20
-133.92857142857139
30
0
11
-51.428571428571381
21
-142.50000000000003
31
0
0
LINE
5
441
100
AcDbEntity
8
0
100
AcDbLine
10
-98.571428571428555
20
-112.50000000000001
30
0
11
-90
21
-121.07142857142858
31
0
0
LINE
5
442
100
AcDbEntity
8
0
100
AcDbLine
10
-90
20
-129.6428571428572
30
0
11
-107.14285714285705
21
-112.50000000000003
31
0
0
LINE
5
443
100
AcDbEntity
8
0
100
AcDbLine
10
-90
20
-138.21428571428572
30
0
11
-115.71428571428567
21
-112.50000000000006
31
0
0
LINE
5
444
100
AcDbEntity
8
0
100
AcDbLine
10
-94.285714285714278
20
-142.50000000000003
30
0
11
-120
21
-116.78571428571423
31
0
0
LINE
5
445
100
AcDbEntity
8
0
100
AcDbLine
10
-102.85714285714285
20
-142.50000000000003
30
0
11
-120
21
-125.35714285714289
31
0
0
LINE
5
446
100
AcDbEntity
8
0
100
AcDbLine
10
-120
20
-133.92857142857139
30
0
11
-111.42857142857139
21
-142.50000000000003
31
0
0
CIRCLE
5
447
100
AcDbEntity
8
0
100
AcDbCircle
10
131
20
-153.5
30
0
40
1.6000000000000014
210
0
220
0
230
1
0
ENDSEC
0
SECTION
2
OBJECTS
0
DICTIONARY
5
C
100
AcDbDictionary
3
ACAD_GROUP
350
D
3
ACAD_MLINESTYLE
350
17
0
DICTIONARY
5
D
100
AcDbDictionary
0
DICTIONARY
5
1A
330
C
100
AcDbDictionary
0
DICTIONARY
5
17
100
AcDbDictionary
0
ENDSEC
0
EOF
