M48
; DRILL file {KiCad 7.0.3} date Sun May 28 11:14:57 2023
; FORMAT={-:-/ absolute / metric / decimal}
; #@! TF.CreationDate,2023-05-28T11:14:57+12:00
; #@! TF.GenerationSoftware,Kicad,Pcbnew,7.0.3
; #@! TF.FileFunction,MixedPlating,1,2
FMAT,2
METRIC
; #@! TA.AperFunction,Plated,PTH,ViaDrill
T1C0.300
; #@! TA.AperFunction,Plated,PTH,ViaDrill
T2C0.500
; #@! TA.AperFunction,Plated,PTH,ComponentDrill
T3C0.600
; #@! TA.AperFunction,Plated,PTH,ComponentDrill
T4C1.000
; #@! TA.AperFunction,Plated,PTH,ComponentDrill
T5C1.200
; #@! TA.AperFunction,Plated,PTH,ComponentDrill
T6C1.500
; #@! TA.AperFunction,Plated,PTH,ComponentDrill
T7C2.500
; #@! TA.AperFunction,NonPlated,NPTH,ComponentDrill
T8C1.700
; #@! TA.AperFunction,NonPlated,NPTH,ComponentDrill
T9C3.200
; #@! TA.AperFunction,NonPlated,NPTH,ComponentDrill
T10C4.000
%
G90
G05
T1
X211.23Y-279.15
X211.879Y-279.826
X212.488Y-280.345
X213.2Y-280.8
X213.85Y-259.6
X214.35Y-229.3
X214.85Y-199.4
X215.5Y-79.4
X216.149Y-109.9
X216.649Y-139.9
X217.149Y-170.0
X218.4Y-325.55
X218.6Y-280.2
X218.6Y-282.075
X219.1Y-330.65
X219.749Y-326.85
X219.85Y-259.0
X219.85Y-296.3
X220.35Y-329.35
X220.35Y-229.0
X220.691Y-310.109
X220.828Y-311.825
X220.9Y-300.4
X220.9Y-315.6
X221.0Y-199.0
X221.0Y-317.0
X221.0Y-318.2
X221.0Y-319.4
X221.2Y-333.2
X221.2Y-334.0
X221.7Y-294.6
X224.0Y-301.8
X224.0Y-303.2
X224.0Y-304.4
X224.2Y-328.0
X224.4Y-337.15
X224.4Y-339.45
X225.1Y-313.6
X225.8Y-307.25
X225.9Y-311.825
X225.9Y-313.1
X225.9Y-315.6
X227.0Y-308.6
X228.0Y-79.0
X228.649Y-109.0
X229.149Y-139.0
X229.5Y-296.5
X229.649Y-169.0
X229.709Y-297.791
X230.0Y-299.0
X230.408Y-318.608
X230.433Y-321.833
X231.0Y-300.0
X231.3Y-72.3
X231.3Y-102.3
X231.3Y-132.3
X231.3Y-162.3
X231.3Y-192.3
X231.3Y-222.3
X231.3Y-252.3
X231.3Y-282.25
X231.35Y-284.799
X231.6Y-337.15
X231.6Y-339.45
X233.0Y-337.15
X233.0Y-339.45
X233.8Y-337.15
X233.8Y-339.45
X235.702Y-321.902
X237.52Y-321.92
X238.2Y-308.549
X238.234Y-305.316
X239.033Y-305.351
X239.05Y-308.549
X248.6Y-283.3
X248.6Y-284.799
X249.875Y-259.0
X249.875Y-296.3
X250.2Y-305.351
X250.375Y-229.0
X250.925Y-300.4
X251.0Y-302.0
X251.0Y-303.2
X251.0Y-304.4
X251.0Y-336.0
X251.0Y-341.45
X251.025Y-199.0
X251.725Y-294.6
X255.6Y-307.25
X256.75Y-306.601
X256.75Y-308.549
X258.025Y-79.0
X258.674Y-109.0
X259.174Y-139.0
X259.525Y-296.5
X259.674Y-169.0
X259.734Y-297.791
X260.025Y-299.0
X261.025Y-300.0
X261.3Y-72.3
X261.3Y-102.3
X261.3Y-132.3
X261.3Y-162.3
X261.3Y-192.3
X261.3Y-222.3
X261.3Y-252.3
X261.3Y-282.25
X268.316Y-317.884
X269.6Y-316.6
X277.15Y-305.356
X277.15Y-307.654
X278.4Y-305.356
X278.4Y-308.8
X278.8Y-328.0
X278.8Y-329.4
X278.901Y-326.8
X279.05Y-284.799
X279.1Y-283.3
X279.55Y-330.6
X279.875Y-259.0
X279.875Y-296.3
X280.2Y-337.15
X280.2Y-341.45
X280.375Y-229.0
X280.925Y-300.4
X281.0Y-301.8
X281.0Y-303.2
X281.0Y-304.4
X281.0Y-330.6
X281.025Y-199.0
X281.725Y-294.6
X282.0Y-344.0
X284.0Y-331.8
X284.0Y-333.2
X284.0Y-334.4
X284.4Y-329.4
X285.2Y-328.0
X285.25Y-326.8
X288.025Y-79.0
X288.674Y-109.0
X289.174Y-139.0
X289.2Y-348.75
X289.2Y-350.049
X289.525Y-296.5
X289.674Y-169.0
X289.734Y-297.791
X290.025Y-299.0
X291.025Y-300.0
X291.2Y-331.255
X291.2Y-342.099
X291.3Y-72.3
X291.3Y-102.3
X291.3Y-132.3
X291.3Y-162.3
X291.3Y-192.3
X291.3Y-222.3
X291.3Y-252.3
X291.3Y-282.25
X295.0Y-310.349
X296.369Y-303.431
X296.894Y-307.206
X297.619Y-304.681
X298.1Y-310.349
X298.338Y-305.356
X309.2Y-283.3
X309.2Y-284.799
X309.875Y-259.0
X309.875Y-296.3
X310.375Y-229.0
X310.925Y-300.4
X311.0Y-302.0
X311.0Y-303.2
X311.0Y-304.4
X311.025Y-199.0
X311.725Y-294.6
X318.025Y-79.0
X318.674Y-109.0
X319.174Y-139.0
X319.525Y-296.5
X319.674Y-169.0
X319.734Y-297.791
X320.025Y-299.0
X321.025Y-300.0
X321.3Y-72.3
X321.3Y-102.3
X321.3Y-132.3
X321.3Y-162.3
X321.3Y-192.3
X321.3Y-222.3
X321.3Y-252.3
X321.3Y-282.25
X321.519Y-317.281
X324.7Y-308.849
X328.319Y-305.356
X335.2Y-335.65
X335.2Y-341.45
X339.0Y-250.775
X339.0Y-252.075
X339.875Y-259.0
X339.875Y-296.3
X340.375Y-229.0
X340.925Y-300.4
X341.0Y-302.0
X341.0Y-303.2
X341.025Y-199.0
X341.2Y-304.4
X341.725Y-294.6
X348.025Y-79.0
X348.674Y-109.0
X349.174Y-139.0
X349.525Y-296.5
X349.674Y-169.0
X349.734Y-297.791
X350.025Y-299.0
X351.025Y-300.0
X351.3Y-72.3
X351.3Y-102.3
X351.3Y-132.3
X351.3Y-162.3
X351.3Y-192.3
X351.3Y-222.3
X351.3Y-252.3
X351.3Y-282.25
X356.644Y-306.956
X358.269Y-305.331
X369.0Y-250.775
X369.0Y-252.084
X369.875Y-259.0
X369.875Y-296.3
X370.375Y-229.0
X370.8Y-327.474
X370.8Y-334.4
X370.925Y-300.4
X371.0Y-302.0
X371.0Y-303.2
X371.0Y-304.4
X371.025Y-199.0
X371.725Y-294.6
X375.2Y-344.749
X375.8Y-333.2
X378.025Y-79.0
X378.674Y-109.0
X379.0Y-326.8
X379.174Y-139.0
X379.525Y-296.5
X379.674Y-169.0
X379.734Y-297.791
X379.8Y-333.4
X379.8Y-341.45
X379.855Y-329.145
X379.859Y-331.341
X380.025Y-299.0
X380.441Y-332.841
X380.6Y-341.45
X381.006Y-332.275
X381.025Y-300.0
X381.3Y-72.3
X381.3Y-102.3
X381.3Y-132.3
X381.3Y-162.3
X381.3Y-192.3
X381.3Y-222.3
X381.3Y-252.3
X381.3Y-282.25
X381.4Y-341.45
X386.694Y-307.006
X388.3Y-305.356
X394.241Y-332.441
X394.481Y-331.281
X395.159Y-333.359
X395.859Y-332.659
X398.2Y-307.0
X398.2Y-309.849
X398.8Y-306.4
X399.0Y-250.775
X399.0Y-252.084
X399.6Y-305.8
X399.9Y-259.0
X399.9Y-296.3
X400.2Y-309.849
X400.4Y-229.0
X400.81Y-310.555
X400.95Y-300.4
X401.0Y-302.0
X401.0Y-303.2
X401.0Y-304.4
X401.0Y-319.4
X401.05Y-199.0
X401.75Y-294.6
X402.6Y-335.2
X404.2Y-324.255
X405.8Y-314.4
X405.8Y-330.6
X406.0Y-329.0
X408.05Y-79.0
X408.15Y-320.6
X408.7Y-109.0
X409.2Y-139.0
X409.55Y-296.5
X409.7Y-169.0
X409.759Y-297.791
X409.95Y-320.6
X410.05Y-299.0
X411.05Y-300.0
X411.3Y-72.3
X411.3Y-102.3
X411.3Y-132.3
X411.3Y-162.3
X411.3Y-192.3
X411.3Y-222.3
X411.3Y-252.3
X411.3Y-282.25
X416.694Y-307.006
X418.319Y-305.356
X429.0Y-250.775
X429.0Y-252.075
X429.45Y-332.377
X429.875Y-259.0
X429.875Y-296.3
X430.375Y-229.0
X430.925Y-300.4
X431.0Y-302.0
X431.0Y-303.2
X431.0Y-304.4
X431.025Y-199.0
X431.35Y-328.077
X431.725Y-294.6
X431.85Y-338.178
X432.45Y-326.977
X432.45Y-328.477
X433.15Y-332.577
X434.71Y-332.157
X435.45Y-338.178
X436.25Y-327.377
X437.45Y-335.777
X438.025Y-79.0
X438.674Y-109.0
X439.174Y-139.0
X439.525Y-296.5
X439.674Y-169.0
X439.734Y-297.791
X440.025Y-299.0
X440.35Y-323.877
X441.025Y-300.0
X441.3Y-72.3
X441.3Y-102.3
X441.3Y-132.3
X441.3Y-162.3
X441.3Y-192.3
X441.3Y-222.3
X441.3Y-252.3
X441.3Y-282.25
X443.2Y-337.6
X444.087Y-339.687
X445.259Y-341.059
X445.97Y-342.83
X447.03Y-341.77
X447.65Y-329.277
X452.0Y-334.4
X452.4Y-338.1
X453.4Y-338.1
X454.9Y-337.6
X456.662Y-330.07
X456.69Y-333.24
X456.71Y-326.82
X456.91Y-323.47
X457.41Y-336.54
X459.33Y-330.27
X459.332Y-328.97
X459.6Y-342.2
T2
X225.0Y-75.0
X225.0Y-105.0
X225.0Y-135.0
X225.0Y-165.0
X225.0Y-195.0
X225.0Y-225.0
X225.0Y-255.0
X225.0Y-285.0
X226.5Y-77.5
X226.5Y-107.5
X226.5Y-137.5
X226.5Y-167.5
X226.5Y-197.5
X226.5Y-227.5
X226.5Y-257.5
X226.5Y-287.5
X255.0Y-75.0
X255.0Y-105.0
X255.0Y-135.0
X255.0Y-165.0
X255.0Y-195.0
X255.0Y-225.0
X255.0Y-255.0
X255.0Y-285.0
X256.5Y-77.5
X256.5Y-107.5
X256.5Y-137.5
X256.5Y-167.5
X256.5Y-197.5
X256.5Y-227.5
X256.5Y-257.5
X256.5Y-287.5
X285.0Y-75.0
X285.0Y-105.0
X285.0Y-135.0
X285.0Y-165.0
X285.0Y-195.0
X285.0Y-225.0
X285.0Y-255.0
X285.0Y-285.0
X286.5Y-77.5
X286.5Y-107.5
X286.5Y-137.5
X286.5Y-167.5
X286.5Y-197.5
X286.5Y-227.5
X286.5Y-257.5
X286.5Y-287.5
X315.0Y-75.0
X315.0Y-105.0
X315.0Y-135.0
X315.0Y-165.0
X315.0Y-195.0
X315.0Y-225.0
X315.0Y-255.0
X315.0Y-285.0
X316.5Y-77.5
X316.5Y-107.5
X316.5Y-137.5
X316.5Y-167.5
X316.5Y-197.5
X316.5Y-227.5
X316.5Y-257.5
X316.5Y-287.5
X345.0Y-75.0
X345.0Y-105.0
X345.0Y-135.0
X345.0Y-165.0
X345.0Y-195.0
X345.0Y-225.0
X345.0Y-255.0
X345.0Y-285.0
X346.5Y-77.5
X346.5Y-107.5
X346.5Y-137.5
X346.5Y-167.5
X346.5Y-197.5
X346.5Y-227.5
X346.5Y-257.5
X346.5Y-287.5
X375.0Y-75.0
X375.0Y-105.0
X375.0Y-135.0
X375.0Y-165.0
X375.0Y-195.0
X375.0Y-225.0
X375.0Y-255.0
X375.0Y-285.0
X376.5Y-77.5
X376.5Y-107.5
X376.5Y-137.5
X376.5Y-167.5
X376.5Y-197.5
X376.5Y-227.5
X376.5Y-257.5
X376.5Y-287.5
X405.0Y-75.0
X405.0Y-105.0
X405.0Y-135.0
X405.0Y-165.0
X405.0Y-195.0
X405.0Y-225.0
X405.0Y-255.0
X405.0Y-285.0
X406.5Y-77.5
X406.5Y-107.5
X406.5Y-137.5
X406.5Y-167.5
X406.5Y-197.5
X406.5Y-227.5
X406.5Y-257.5
X406.5Y-287.5
X435.0Y-75.0
X435.0Y-105.0
X435.0Y-135.0
X435.0Y-165.0
X435.0Y-195.0
X435.0Y-225.0
X435.0Y-255.0
X435.0Y-285.0
X436.5Y-77.5
X436.5Y-107.5
X436.5Y-137.5
X436.5Y-167.5
X436.5Y-197.5
X436.5Y-227.5
X436.5Y-257.5
X436.5Y-287.5
T4
X443.7Y-323.857
X446.24Y-323.857
X448.78Y-323.857
X451.32Y-323.857
T5
X298.0Y-315.0
X300.54Y-315.0
X303.08Y-315.0
X305.62Y-315.0
X308.16Y-315.0
X310.7Y-315.0
X313.24Y-315.0
X315.78Y-315.0
X318.32Y-315.0
X320.86Y-315.0
X323.4Y-315.0
X325.94Y-315.0
X328.48Y-315.0
X331.02Y-315.0
X333.56Y-315.0
X336.1Y-315.0
T6
X251.19Y-327.817
X257.54Y-325.277
T7
X292.501Y-315.0
X292.501Y-346.001
X367.499Y-346.001
X367.5Y-315.0
T8
X249.92Y-330.357
X260.08Y-330.357
T9
X199.0Y-49.0
X199.0Y-356.0
X461.0Y-49.0
X461.0Y-356.0
T10
X255.0Y-330.357
T3
G00X458.6Y-325.7
M15
G01X459.4Y-325.7
M16
G05
G00X458.6Y-334.34
M15
G01X459.4Y-334.34
M16
G05
G00X462.4Y-325.7
M15
G01X463.6Y-325.7
M16
G05
G00X462.4Y-334.34
M15
G01X463.6Y-334.34
M16
G05
T0
M30
