%TF.GenerationSoftware,KiCad,Pcbnew,7.0.3*%
%TF.CreationDate,2023-05-28T11:15:03+12:00*%
%TF.ProjectId,ChessBoardKiCad,43686573-7342-46f6-9172-644b69436164,rev?*%
%TF.SameCoordinates,Original*%
%TF.FileFunction,Copper,L1,Top*%
%TF.FilePolarity,Positive*%
%FSLAX46Y46*%
G04 Gerber Fmt 4.6, Leading zero omitted, Abs format (unit mm)*
G04 Created by KiCad (PCBNEW 7.0.3) date 2023-05-28 11:15:03*
%MOMM*%
%LPD*%
G01*
G04 APERTURE LIST*
G04 Aperture macros list*
%AMRoundRect*
0 Rectangle with rounded corners*
0 $1 Rounding radius*
0 $2 $3 $4 $5 $6 $7 $8 $9 X,Y pos of 4 corners*
0 Add a 4 corners polygon primitive as box body*
4,1,4,$2,$3,$4,$5,$6,$7,$8,$9,$2,$3,0*
0 Add four circle primitives for the rounded corners*
1,1,$1+$1,$2,$3*
1,1,$1+$1,$4,$5*
1,1,$1+$1,$6,$7*
1,1,$1+$1,$8,$9*
0 Add four rect primitives between the rounded corners*
20,1,$1+$1,$2,$3,$4,$5,0*
20,1,$1+$1,$4,$5,$6,$7,0*
20,1,$1+$1,$6,$7,$8,$9,0*
20,1,$1+$1,$8,$9,$2,$3,0*%
G04 Aperture macros list end*
%TA.AperFunction,SMDPad,CuDef*%
%ADD10R,1.000000X0.700000*%
%TD*%
%TA.AperFunction,SMDPad,CuDef*%
%ADD11RoundRect,0.218750X0.218750X0.256250X-0.218750X0.256250X-0.218750X-0.256250X0.218750X-0.256250X0*%
%TD*%
%TA.AperFunction,SMDPad,CuDef*%
%ADD12RoundRect,0.135000X-0.185000X0.135000X-0.185000X-0.135000X0.185000X-0.135000X0.185000X0.135000X0*%
%TD*%
%TA.AperFunction,SMDPad,CuDef*%
%ADD13RoundRect,0.140000X-0.140000X-0.170000X0.140000X-0.170000X0.140000X0.170000X-0.140000X0.170000X0*%
%TD*%
%TA.AperFunction,SMDPad,CuDef*%
%ADD14RoundRect,0.250000X0.475000X-0.250000X0.475000X0.250000X-0.475000X0.250000X-0.475000X-0.250000X0*%
%TD*%
%TA.AperFunction,SMDPad,CuDef*%
%ADD15RoundRect,0.150000X0.587500X0.150000X-0.587500X0.150000X-0.587500X-0.150000X0.587500X-0.150000X0*%
%TD*%
%TA.AperFunction,ComponentPad*%
%ADD16R,1.700000X1.700000*%
%TD*%
%TA.AperFunction,ComponentPad*%
%ADD17O,1.700000X1.700000*%
%TD*%
%TA.AperFunction,SMDPad,CuDef*%
%ADD18RoundRect,0.150000X-0.825000X-0.150000X0.825000X-0.150000X0.825000X0.150000X-0.825000X0.150000X0*%
%TD*%
%TA.AperFunction,SMDPad,CuDef*%
%ADD19RoundRect,0.135000X0.135000X0.185000X-0.135000X0.185000X-0.135000X-0.185000X0.135000X-0.185000X0*%
%TD*%
%TA.AperFunction,SMDPad,CuDef*%
%ADD20RoundRect,0.135000X-0.135000X-0.185000X0.135000X-0.185000X0.135000X0.185000X-0.135000X0.185000X0*%
%TD*%
%TA.AperFunction,SMDPad,CuDef*%
%ADD21R,1.200000X1.400000*%
%TD*%
%TA.AperFunction,SMDPad,CuDef*%
%ADD22RoundRect,0.140000X-0.170000X0.140000X-0.170000X-0.140000X0.170000X-0.140000X0.170000X0.140000X0*%
%TD*%
%TA.AperFunction,SMDPad,CuDef*%
%ADD23RoundRect,0.140000X0.140000X0.170000X-0.140000X0.170000X-0.140000X-0.170000X0.140000X-0.170000X0*%
%TD*%
%TA.AperFunction,SMDPad,CuDef*%
%ADD24R,1.500000X2.000000*%
%TD*%
%TA.AperFunction,SMDPad,CuDef*%
%ADD25R,3.800000X2.000000*%
%TD*%
%TA.AperFunction,ComponentPad*%
%ADD26C,3.000000*%
%TD*%
%TA.AperFunction,ComponentPad*%
%ADD27R,1.800000X2.600000*%
%TD*%
%TA.AperFunction,ComponentPad*%
%ADD28O,1.800000X2.600000*%
%TD*%
%TA.AperFunction,SMDPad,CuDef*%
%ADD29RoundRect,0.135000X0.185000X-0.135000X0.185000X0.135000X-0.185000X0.135000X-0.185000X-0.135000X0*%
%TD*%
%TA.AperFunction,SMDPad,CuDef*%
%ADD30RoundRect,0.140000X0.170000X-0.140000X0.170000X0.140000X-0.170000X0.140000X-0.170000X-0.140000X0*%
%TD*%
%TA.AperFunction,SMDPad,CuDef*%
%ADD31RoundRect,0.225000X-0.225000X-0.250000X0.225000X-0.250000X0.225000X0.250000X-0.225000X0.250000X0*%
%TD*%
%TA.AperFunction,SMDPad,CuDef*%
%ADD32R,1.000000X1.500000*%
%TD*%
%TA.AperFunction,ComponentPad*%
%ADD33C,2.200000*%
%TD*%
%TA.AperFunction,SMDPad,CuDef*%
%ADD34RoundRect,0.250000X-0.250000X-0.475000X0.250000X-0.475000X0.250000X0.475000X-0.250000X0.475000X0*%
%TD*%
%TA.AperFunction,SMDPad,CuDef*%
%ADD35RoundRect,0.075000X-0.662500X-0.075000X0.662500X-0.075000X0.662500X0.075000X-0.662500X0.075000X0*%
%TD*%
%TA.AperFunction,SMDPad,CuDef*%
%ADD36RoundRect,0.075000X-0.075000X-0.662500X0.075000X-0.662500X0.075000X0.662500X-0.075000X0.662500X0*%
%TD*%
%TA.AperFunction,SMDPad,CuDef*%
%ADD37R,1.200000X1.200000*%
%TD*%
%TA.AperFunction,SMDPad,CuDef*%
%ADD38R,1.500000X1.600000*%
%TD*%
%TA.AperFunction,SMDPad,CuDef*%
%ADD39R,1.150000X0.600000*%
%TD*%
%TA.AperFunction,SMDPad,CuDef*%
%ADD40R,1.150000X0.300000*%
%TD*%
%TA.AperFunction,ComponentPad*%
%ADD41O,1.800000X1.000000*%
%TD*%
%TA.AperFunction,ComponentPad*%
%ADD42O,2.200000X1.000000*%
%TD*%
%TA.AperFunction,SMDPad,CuDef*%
%ADD43RoundRect,0.150000X0.512500X0.150000X-0.512500X0.150000X-0.512500X-0.150000X0.512500X-0.150000X0*%
%TD*%
%TA.AperFunction,ViaPad*%
%ADD44C,0.600000*%
%TD*%
%TA.AperFunction,ViaPad*%
%ADD45C,1.000000*%
%TD*%
%TA.AperFunction,Conductor*%
%ADD46C,0.500000*%
%TD*%
%TA.AperFunction,Conductor*%
%ADD47C,0.300000*%
%TD*%
%TA.AperFunction,Conductor*%
%ADD48C,1.000000*%
%TD*%
%TA.AperFunction,Conductor*%
%ADD49C,0.200000*%
%TD*%
G04 APERTURE END LIST*
D10*
%TO.P,U27,1,VCC*%
%TO.N,+3.3V*%
X343800000Y-134050000D03*
%TO.P,U27,2,VOUT*%
%TO.N,HALL_C4R2*%
X343800000Y-135950000D03*
%TO.P,U27,3,GND*%
%TO.N,GND*%
X346200000Y-135000000D03*
%TD*%
%TO.P,U43,1,VCC*%
%TO.N,+3.3V*%
X343800000Y-194050000D03*
%TO.P,U43,2,VOUT*%
%TO.N,HALL_C4R4*%
X343800000Y-195950000D03*
%TO.P,U43,3,GND*%
%TO.N,GND*%
X346200000Y-195000000D03*
%TD*%
D11*
%TO.P,D11,1,K*%
%TO.N,LED_C1*%
X255787500Y-102250000D03*
%TO.P,D11,2,A*%
%TO.N,/R1TE*%
X254212500Y-102250000D03*
%TD*%
D12*
%TO.P,R14,1*%
%TO.N,+3.3V*%
X432500000Y-74490000D03*
%TO.P,R14,2*%
%TO.N,HALL_C7R0*%
X432500000Y-75510000D03*
%TD*%
D10*
%TO.P,U36,1,VCC*%
%TO.N,+3.3V*%
X373800000Y-164050000D03*
%TO.P,U36,2,VOUT*%
%TO.N,HALL_C5R3*%
X373800000Y-165950000D03*
%TO.P,U36,3,GND*%
%TO.N,GND*%
X376200000Y-165000000D03*
%TD*%
%TO.P,U41,1,VCC*%
%TO.N,+3.3V*%
X283800000Y-194050000D03*
%TO.P,U41,2,VOUT*%
%TO.N,HALL_C2R4*%
X283800000Y-195950000D03*
%TO.P,U41,3,GND*%
%TO.N,GND*%
X286200000Y-195000000D03*
%TD*%
D13*
%TO.P,C77,1*%
%TO.N,HALL_C7R7*%
X434540000Y-287500000D03*
%TO.P,C77,2*%
%TO.N,GND*%
X435500000Y-287500000D03*
%TD*%
D12*
%TO.P,R68,1*%
%TO.N,+3.3V*%
X342500000Y-254500000D03*
%TO.P,R68,2*%
%TO.N,HALL_C4R6*%
X342500000Y-255520000D03*
%TD*%
D10*
%TO.P,U9,1,VCC*%
%TO.N,+3.3V*%
X283800000Y-74050000D03*
%TO.P,U9,2,VOUT*%
%TO.N,HALL_C2R0*%
X283800000Y-75950000D03*
%TO.P,U9,3,GND*%
%TO.N,GND*%
X286200000Y-75000000D03*
%TD*%
D14*
%TO.P,C10,1*%
%TO.N,+3.3V*%
X454900000Y-340470000D03*
%TO.P,C10,2*%
%TO.N,GND*%
X454900000Y-338570000D03*
%TD*%
D11*
%TO.P,D37,1,K*%
%TO.N,LED_C3*%
X315787500Y-192250000D03*
%TO.P,D37,2,A*%
%TO.N,/R4TE*%
X314212500Y-192250000D03*
%TD*%
%TO.P,D10,1,K*%
%TO.N,LED_C0*%
X225787500Y-102250000D03*
%TO.P,D10,2,A*%
%TO.N,/R1TE*%
X224212500Y-102250000D03*
%TD*%
D12*
%TO.P,R30,1*%
%TO.N,+3.3V*%
X432500000Y-134490000D03*
%TO.P,R30,2*%
%TO.N,HALL_C7R2*%
X432500000Y-135510000D03*
%TD*%
%TO.P,R24,1*%
%TO.N,+3.3V*%
X252500000Y-134490000D03*
%TO.P,R24,2*%
%TO.N,HALL_C1R2*%
X252500000Y-135510000D03*
%TD*%
%TO.P,R77,1*%
%TO.N,+3.3V*%
X312500000Y-284500000D03*
%TO.P,R77,2*%
%TO.N,HALL_C3R7*%
X312500000Y-285520000D03*
%TD*%
D11*
%TO.P,D39,1,K*%
%TO.N,LED_C5*%
X375787500Y-192250000D03*
%TO.P,D39,2,A*%
%TO.N,/R4TE*%
X374212500Y-192250000D03*
%TD*%
%TO.P,D56,1,K*%
%TO.N,LED_C6*%
X405787500Y-252250000D03*
%TO.P,D56,2,A*%
%TO.N,/R6TE*%
X404212500Y-252250000D03*
%TD*%
D12*
%TO.P,R61,1*%
%TO.N,+3.3V*%
X432500000Y-224490000D03*
%TO.P,R61,2*%
%TO.N,HALL_C7R5*%
X432500000Y-225510000D03*
%TD*%
D15*
%TO.P,Q1,1,B*%
%TO.N,/R0TB*%
X215000000Y-75950000D03*
%TO.P,Q1,2,E*%
%TO.N,/R0TE*%
X215000000Y-74050000D03*
%TO.P,Q1,3,C*%
%TO.N,/R0TC*%
X213125000Y-75000000D03*
%TD*%
D12*
%TO.P,R80,1*%
%TO.N,+3.3V*%
X402500000Y-284490000D03*
%TO.P,R80,2*%
%TO.N,HALL_C6R7*%
X402500000Y-285510000D03*
%TD*%
%TO.P,R79,1*%
%TO.N,+3.3V*%
X372500000Y-284490000D03*
%TO.P,R79,2*%
%TO.N,HALL_C5R7*%
X372500000Y-285510000D03*
%TD*%
D10*
%TO.P,U20,1,VCC*%
%TO.N,+3.3V*%
X373800000Y-104050000D03*
%TO.P,U20,2,VOUT*%
%TO.N,HALL_C5R1*%
X373800000Y-105950000D03*
%TO.P,U20,3,GND*%
%TO.N,GND*%
X376200000Y-105000000D03*
%TD*%
%TO.P,U56,1,VCC*%
%TO.N,+3.3V*%
X223800000Y-254050000D03*
%TO.P,U56,2,VOUT*%
%TO.N,HALL_C0R6*%
X223800000Y-255950000D03*
%TO.P,U56,3,GND*%
%TO.N,GND*%
X226200000Y-255000000D03*
%TD*%
%TO.P,U38,1,VCC*%
%TO.N,+3.3V*%
X433800000Y-164050000D03*
%TO.P,U38,2,VOUT*%
%TO.N,HALL_C7R3*%
X433800000Y-165950000D03*
%TO.P,U38,3,GND*%
%TO.N,GND*%
X436200000Y-165000000D03*
%TD*%
D13*
%TO.P,C46,1*%
%TO.N,HALL_C0R4*%
X224520000Y-197500000D03*
%TO.P,C46,2*%
%TO.N,GND*%
X225480000Y-197500000D03*
%TD*%
D12*
%TO.P,R75,1*%
%TO.N,+3.3V*%
X252500000Y-284490000D03*
%TO.P,R75,2*%
%TO.N,HALL_C1R7*%
X252500000Y-285510000D03*
%TD*%
D16*
%TO.P,J2,1,Pin_1*%
%TO.N,GND*%
X443700000Y-323857500D03*
D17*
%TO.P,J2,2,Pin_2*%
%TO.N,/SWCLK*%
X446240000Y-323857500D03*
%TO.P,J2,3,Pin_3*%
%TO.N,/SWDIO*%
X448780000Y-323857500D03*
%TO.P,J2,4,Pin_4*%
%TO.N,+3.3V*%
X451320000Y-323857500D03*
%TD*%
D18*
%TO.P,U75,1,X4*%
%TO.N,HALL_C1R4*%
X252525000Y-295555000D03*
%TO.P,U75,2,X6*%
%TO.N,HALL_C1R6*%
X252525000Y-296825000D03*
%TO.P,U75,3,X*%
%TO.N,HALL_C1*%
X252525000Y-298095000D03*
%TO.P,U75,4,X7*%
%TO.N,HALL_C1R7*%
X252525000Y-299365000D03*
%TO.P,U75,5,X5*%
%TO.N,HALL_C1R5*%
X252525000Y-300635000D03*
%TO.P,U75,6,Inh*%
%TO.N,GND*%
X252525000Y-301905000D03*
%TO.P,U75,7,VEE*%
X252525000Y-303175000D03*
%TO.P,U75,8,VSS*%
X252525000Y-304445000D03*
%TO.P,U75,9,C*%
%TO.N,HALL_ROW_C*%
X257475000Y-304445000D03*
%TO.P,U75,10,B*%
%TO.N,HALL_ROW_B*%
X257475000Y-303175000D03*
%TO.P,U75,11,A*%
%TO.N,HALL_ROW_A*%
X257475000Y-301905000D03*
%TO.P,U75,12,X3*%
%TO.N,HALL_C1R3*%
X257475000Y-300635000D03*
%TO.P,U75,13,X0*%
%TO.N,HALL_C1R0*%
X257475000Y-299365000D03*
%TO.P,U75,14,X1*%
%TO.N,HALL_C1R1*%
X257475000Y-298095000D03*
%TO.P,U75,15,X2*%
%TO.N,HALL_C1R2*%
X257475000Y-296825000D03*
%TO.P,U75,16,VDD*%
%TO.N,+3.3V*%
X257475000Y-295555000D03*
%TD*%
D10*
%TO.P,U54,1,VCC*%
%TO.N,+3.3V*%
X403800000Y-224050000D03*
%TO.P,U54,2,VOUT*%
%TO.N,HALL_C6R5*%
X403800000Y-225950000D03*
%TO.P,U54,3,GND*%
%TO.N,GND*%
X406200000Y-225000000D03*
%TD*%
D12*
%TO.P,R28,1*%
%TO.N,+3.3V*%
X372500000Y-134490000D03*
%TO.P,R28,2*%
%TO.N,HALL_C5R2*%
X372500000Y-135510000D03*
%TD*%
D10*
%TO.P,U30,1,VCC*%
%TO.N,+3.3V*%
X433800000Y-134050000D03*
%TO.P,U30,2,VOUT*%
%TO.N,HALL_C7R2*%
X433800000Y-135950000D03*
%TO.P,U30,3,GND*%
%TO.N,GND*%
X436200000Y-135000000D03*
%TD*%
D11*
%TO.P,D36,1,K*%
%TO.N,LED_C2*%
X285787500Y-192250000D03*
%TO.P,D36,2,A*%
%TO.N,/R4TE*%
X284212500Y-192250000D03*
%TD*%
D19*
%TO.P,R2,1*%
%TO.N,/BOOT0*%
X434960000Y-326107500D03*
%TO.P,R2,2*%
%TO.N,/JMP_BOOT0*%
X433940000Y-326107500D03*
%TD*%
D12*
%TO.P,R17,1*%
%TO.N,+3.3V*%
X282500000Y-104490000D03*
%TO.P,R17,2*%
%TO.N,HALL_C2R1*%
X282500000Y-105510000D03*
%TD*%
D13*
%TO.P,C44,1*%
%TO.N,HALL_C6R3*%
X404520000Y-167500000D03*
%TO.P,C44,2*%
%TO.N,GND*%
X405480000Y-167500000D03*
%TD*%
D11*
%TO.P,D44,1,K*%
%TO.N,LED_C2*%
X285787500Y-222250000D03*
%TO.P,D44,2,A*%
%TO.N,/R5TE*%
X284212500Y-222250000D03*
%TD*%
%TO.P,D40,1,K*%
%TO.N,LED_C6*%
X405787500Y-192250000D03*
%TO.P,D40,2,A*%
%TO.N,/R4TE*%
X404212500Y-192250000D03*
%TD*%
D20*
%TO.P,R41,1*%
%TO.N,+3.3V*%
X210480000Y-105000000D03*
%TO.P,R41,2*%
%TO.N,/R1TC*%
X211500000Y-105000000D03*
%TD*%
D13*
%TO.P,C65,1*%
%TO.N,HALL_C3R6*%
X314540000Y-257500000D03*
%TO.P,C65,2*%
%TO.N,GND*%
X315500000Y-257500000D03*
%TD*%
D11*
%TO.P,D41,1,K*%
%TO.N,LED_C7*%
X435787500Y-192250000D03*
%TO.P,D41,2,A*%
%TO.N,/R4TE*%
X434212500Y-192250000D03*
%TD*%
D12*
%TO.P,R74,1*%
%TO.N,+3.3V*%
X222500000Y-284500000D03*
%TO.P,R74,2*%
%TO.N,HALL_C0R7*%
X222500000Y-285520000D03*
%TD*%
D13*
%TO.P,C28,1*%
%TO.N,HALL_C6R1*%
X404520000Y-107500000D03*
%TO.P,C28,2*%
%TO.N,GND*%
X405480000Y-107500000D03*
%TD*%
%TO.P,C69,1*%
%TO.N,HALL_C7R6*%
X434540000Y-257500000D03*
%TO.P,C69,2*%
%TO.N,GND*%
X435500000Y-257500000D03*
%TD*%
D10*
%TO.P,U31,1,VCC*%
%TO.N,+3.3V*%
X223800000Y-164050000D03*
%TO.P,U31,2,VOUT*%
%TO.N,HALL_C0R3*%
X223800000Y-165950000D03*
%TO.P,U31,3,GND*%
%TO.N,GND*%
X226200000Y-165000000D03*
%TD*%
%TO.P,U58,1,VCC*%
%TO.N,+3.3V*%
X283800000Y-254050000D03*
%TO.P,U58,2,VOUT*%
%TO.N,HALL_C2R6*%
X283800000Y-255950000D03*
%TO.P,U58,3,GND*%
%TO.N,GND*%
X286200000Y-255000000D03*
%TD*%
%TO.P,U8,1,VCC*%
%TO.N,+3.3V*%
X253800000Y-74050000D03*
%TO.P,U8,2,VOUT*%
%TO.N,HALL_C1R0*%
X253800000Y-75950000D03*
%TO.P,U8,3,GND*%
%TO.N,GND*%
X256200000Y-75000000D03*
%TD*%
D11*
%TO.P,D17,1,K*%
%TO.N,LED_C7*%
X435787500Y-102250000D03*
%TO.P,D17,2,A*%
%TO.N,/R1TE*%
X434212500Y-102250000D03*
%TD*%
D12*
%TO.P,R13,1*%
%TO.N,+3.3V*%
X402500000Y-74490000D03*
%TO.P,R13,2*%
%TO.N,HALL_C6R0*%
X402500000Y-75510000D03*
%TD*%
D13*
%TO.P,C50,1*%
%TO.N,HALL_C4R4*%
X344520000Y-197500000D03*
%TO.P,C50,2*%
%TO.N,GND*%
X345480000Y-197500000D03*
%TD*%
D18*
%TO.P,U81,1,X4*%
%TO.N,HALL_C7R4*%
X432525000Y-295555000D03*
%TO.P,U81,2,X6*%
%TO.N,HALL_C7R6*%
X432525000Y-296825000D03*
%TO.P,U81,3,X*%
%TO.N,HALL_C7*%
X432525000Y-298095000D03*
%TO.P,U81,4,X7*%
%TO.N,HALL_C7R7*%
X432525000Y-299365000D03*
%TO.P,U81,5,X5*%
%TO.N,HALL_C7R5*%
X432525000Y-300635000D03*
%TO.P,U81,6,Inh*%
%TO.N,GND*%
X432525000Y-301905000D03*
%TO.P,U81,7,VEE*%
X432525000Y-303175000D03*
%TO.P,U81,8,VSS*%
X432525000Y-304445000D03*
%TO.P,U81,9,C*%
%TO.N,HALL_ROW_C*%
X437475000Y-304445000D03*
%TO.P,U81,10,B*%
%TO.N,HALL_ROW_B*%
X437475000Y-303175000D03*
%TO.P,U81,11,A*%
%TO.N,HALL_ROW_A*%
X437475000Y-301905000D03*
%TO.P,U81,12,X3*%
%TO.N,HALL_C7R3*%
X437475000Y-300635000D03*
%TO.P,U81,13,X0*%
%TO.N,HALL_C7R0*%
X437475000Y-299365000D03*
%TO.P,U81,14,X1*%
%TO.N,HALL_C7R1*%
X437475000Y-298095000D03*
%TO.P,U81,15,X2*%
%TO.N,HALL_C7R2*%
X437475000Y-296825000D03*
%TO.P,U81,16,VDD*%
%TO.N,+3.3V*%
X437475000Y-295555000D03*
%TD*%
D12*
%TO.P,R32,1*%
%TO.N,/R0TB*%
X215500000Y-77490000D03*
%TO.P,R32,2*%
%TO.N,LED_R0*%
X215500000Y-78510000D03*
%TD*%
D13*
%TO.P,C48,1*%
%TO.N,HALL_C2R4*%
X284520000Y-197500000D03*
%TO.P,C48,2*%
%TO.N,GND*%
X285480000Y-197500000D03*
%TD*%
D21*
%TO.P,Y1,1,1*%
%TO.N,/HSE_IN*%
X429250000Y-329107500D03*
%TO.P,Y1,2,2*%
%TO.N,GND*%
X429250000Y-331307500D03*
%TO.P,Y1,3,3*%
%TO.N,/HSE_OUT*%
X430950000Y-331307500D03*
%TO.P,Y1,4,4*%
%TO.N,GND*%
X430950000Y-329107500D03*
%TD*%
D13*
%TO.P,C72,1*%
%TO.N,HALL_C2R7*%
X284540000Y-287500000D03*
%TO.P,C72,2*%
%TO.N,GND*%
X285500000Y-287500000D03*
%TD*%
D11*
%TO.P,D63,1,K*%
%TO.N,LED_C5*%
X375787500Y-282250000D03*
%TO.P,D63,2,A*%
%TO.N,/R7TE*%
X374212500Y-282250000D03*
%TD*%
%TO.P,D18,1,K*%
%TO.N,LED_C0*%
X225787500Y-132250000D03*
%TO.P,D18,2,A*%
%TO.N,/R2TE*%
X224212500Y-132250000D03*
%TD*%
D20*
%TO.P,R73,1*%
%TO.N,+3.3V*%
X210480000Y-225000000D03*
%TO.P,R73,2*%
%TO.N,/R5TC*%
X211500000Y-225000000D03*
%TD*%
D12*
%TO.P,R58,1*%
%TO.N,+3.3V*%
X342500000Y-224490000D03*
%TO.P,R58,2*%
%TO.N,HALL_C4R5*%
X342500000Y-225510000D03*
%TD*%
D11*
%TO.P,D4,1,K*%
%TO.N,LED_C2*%
X285787500Y-72250000D03*
%TO.P,D4,2,A*%
%TO.N,/R0TE*%
X284212500Y-72250000D03*
%TD*%
D13*
%TO.P,C75,1*%
%TO.N,HALL_C5R7*%
X374520000Y-287500000D03*
%TO.P,C75,2*%
%TO.N,GND*%
X375480000Y-287500000D03*
%TD*%
D11*
%TO.P,D19,1,K*%
%TO.N,LED_C1*%
X255787500Y-132250000D03*
%TO.P,D19,2,A*%
%TO.N,/R2TE*%
X254212500Y-132250000D03*
%TD*%
D10*
%TO.P,U49,1,VCC*%
%TO.N,+3.3V*%
X253800000Y-224050000D03*
%TO.P,U49,2,VOUT*%
%TO.N,HALL_C1R5*%
X253800000Y-225950000D03*
%TO.P,U49,3,GND*%
%TO.N,GND*%
X256200000Y-225000000D03*
%TD*%
D11*
%TO.P,D16,1,K*%
%TO.N,LED_C6*%
X405787500Y-102250000D03*
%TO.P,D16,2,A*%
%TO.N,/R1TE*%
X404212500Y-102250000D03*
%TD*%
D13*
%TO.P,C35,1*%
%TO.N,HALL_C5R2*%
X374520000Y-137500000D03*
%TO.P,C35,2*%
%TO.N,GND*%
X375480000Y-137500000D03*
%TD*%
D22*
%TO.P,C4,1*%
%TO.N,+3.3V*%
X446950000Y-328127500D03*
%TO.P,C4,2*%
%TO.N,GND*%
X446950000Y-329087500D03*
%TD*%
D10*
%TO.P,U52,1,VCC*%
%TO.N,+3.3V*%
X343800000Y-224050000D03*
%TO.P,U52,2,VOUT*%
%TO.N,HALL_C4R5*%
X343800000Y-225950000D03*
%TO.P,U52,3,GND*%
%TO.N,GND*%
X346200000Y-225000000D03*
%TD*%
%TO.P,U35,1,VCC*%
%TO.N,+3.3V*%
X343800000Y-164050000D03*
%TO.P,U35,2,VOUT*%
%TO.N,HALL_C4R3*%
X343800000Y-165950000D03*
%TO.P,U35,3,GND*%
%TO.N,GND*%
X346200000Y-165000000D03*
%TD*%
%TO.P,U66,1,VCC*%
%TO.N,+3.3V*%
X253800000Y-284050000D03*
%TO.P,U66,2,VOUT*%
%TO.N,HALL_C1R7*%
X253800000Y-285950000D03*
%TO.P,U66,3,GND*%
%TO.N,GND*%
X256200000Y-285000000D03*
%TD*%
%TO.P,U37,1,VCC*%
%TO.N,+3.3V*%
X403800000Y-164050000D03*
%TO.P,U37,2,VOUT*%
%TO.N,HALL_C6R3*%
X403800000Y-165950000D03*
%TO.P,U37,3,GND*%
%TO.N,GND*%
X406200000Y-165000000D03*
%TD*%
D11*
%TO.P,D64,1,K*%
%TO.N,LED_C6*%
X405787500Y-282250000D03*
%TO.P,D64,2,A*%
%TO.N,/R7TE*%
X404212500Y-282250000D03*
%TD*%
D12*
%TO.P,R47,1*%
%TO.N,+3.3V*%
X342500000Y-194490000D03*
%TO.P,R47,2*%
%TO.N,HALL_C4R4*%
X342500000Y-195510000D03*
%TD*%
D13*
%TO.P,C24,1*%
%TO.N,HALL_C2R1*%
X284520000Y-107500000D03*
%TO.P,C24,2*%
%TO.N,GND*%
X285480000Y-107500000D03*
%TD*%
D10*
%TO.P,U26,1,VCC*%
%TO.N,+3.3V*%
X313800000Y-134050000D03*
%TO.P,U26,2,VOUT*%
%TO.N,HALL_C3R2*%
X313800000Y-135950000D03*
%TO.P,U26,3,GND*%
%TO.N,GND*%
X316200000Y-135000000D03*
%TD*%
D13*
%TO.P,C59,1*%
%TO.N,HALL_C5R5*%
X374540000Y-227500000D03*
%TO.P,C59,2*%
%TO.N,GND*%
X375500000Y-227500000D03*
%TD*%
%TO.P,C42,1*%
%TO.N,HALL_C4R3*%
X344520000Y-167500000D03*
%TO.P,C42,2*%
%TO.N,GND*%
X345480000Y-167500000D03*
%TD*%
D10*
%TO.P,U7,1,VCC*%
%TO.N,+3.3V*%
X223800000Y-74050000D03*
%TO.P,U7,2,VOUT*%
%TO.N,HALL_C0R0*%
X223800000Y-75950000D03*
%TO.P,U7,3,GND*%
%TO.N,GND*%
X226200000Y-75000000D03*
%TD*%
%TO.P,U71,1,VCC*%
%TO.N,+3.3V*%
X403800000Y-284050000D03*
%TO.P,U71,2,VOUT*%
%TO.N,HALL_C6R7*%
X403800000Y-285950000D03*
%TO.P,U71,3,GND*%
%TO.N,GND*%
X406200000Y-285000000D03*
%TD*%
D11*
%TO.P,D59,1,K*%
%TO.N,LED_C1*%
X255787500Y-282250000D03*
%TO.P,D59,2,A*%
%TO.N,/R7TE*%
X254212500Y-282250000D03*
%TD*%
D15*
%TO.P,Q3,1,B*%
%TO.N,/R2TB*%
X215000000Y-135950000D03*
%TO.P,Q3,2,E*%
%TO.N,/R2TE*%
X215000000Y-134050000D03*
%TO.P,Q3,3,C*%
%TO.N,/R2TC*%
X213125000Y-135000000D03*
%TD*%
D11*
%TO.P,D48,1,K*%
%TO.N,LED_C6*%
X405787500Y-222250000D03*
%TO.P,D48,2,A*%
%TO.N,/R5TE*%
X404212500Y-222250000D03*
%TD*%
D12*
%TO.P,R27,1*%
%TO.N,+3.3V*%
X342500000Y-134490000D03*
%TO.P,R27,2*%
%TO.N,HALL_C4R2*%
X342500000Y-135510000D03*
%TD*%
D18*
%TO.P,U5,1,QB*%
%TO.N,LED_ROW_B*%
X402525000Y-325555000D03*
%TO.P,U5,2,QC*%
%TO.N,LED_ROW_C*%
X402525000Y-326825000D03*
%TO.P,U5,3,QD*%
%TO.N,LED_COL_A*%
X402525000Y-328095000D03*
%TO.P,U5,4,QE*%
%TO.N,LED_COL_B*%
X402525000Y-329365000D03*
%TO.P,U5,5,QF*%
%TO.N,LED_COL_C*%
X402525000Y-330635000D03*
%TO.P,U5,6,QG*%
%TO.N,unconnected-(U5-QG-Pad6)*%
X402525000Y-331905000D03*
%TO.P,U5,7,QH*%
%TO.N,DISABLE_LEDS*%
X402525000Y-333175000D03*
%TO.P,U5,8,GND*%
%TO.N,GND*%
X402525000Y-334445000D03*
%TO.P,U5,9,QH'*%
%TO.N,/GRID_REGS_SER_LINK*%
X407475000Y-334445000D03*
%TO.P,U5,10,~{SRCLR}*%
%TO.N,+3.3V*%
X407475000Y-333175000D03*
%TO.P,U5,11,SRCLK*%
%TO.N,GRID_SER_CLK*%
X407475000Y-331905000D03*
%TO.P,U5,12,RCLK*%
%TO.N,GRID_LATCH*%
X407475000Y-330635000D03*
%TO.P,U5,13,~{OE}*%
%TO.N,GND*%
X407475000Y-329365000D03*
%TO.P,U5,14,SER*%
%TO.N,GRID_SER_DATA*%
X407475000Y-328095000D03*
%TO.P,U5,15,QA*%
%TO.N,LED_ROW_A*%
X407475000Y-326825000D03*
%TO.P,U5,16,VCC*%
%TO.N,+3.3V*%
X407475000Y-325555000D03*
%TD*%
%TO.P,U74,1,X4*%
%TO.N,HALL_C0R4*%
X222525000Y-295555000D03*
%TO.P,U74,2,X6*%
%TO.N,HALL_C0R6*%
X222525000Y-296825000D03*
%TO.P,U74,3,X*%
%TO.N,HALL_C0*%
X222525000Y-298095000D03*
%TO.P,U74,4,X7*%
%TO.N,HALL_C0R7*%
X222525000Y-299365000D03*
%TO.P,U74,5,X5*%
%TO.N,HALL_C0R5*%
X222525000Y-300635000D03*
%TO.P,U74,6,Inh*%
%TO.N,GND*%
X222525000Y-301905000D03*
%TO.P,U74,7,VEE*%
X222525000Y-303175000D03*
%TO.P,U74,8,VSS*%
X222525000Y-304445000D03*
%TO.P,U74,9,C*%
%TO.N,HALL_ROW_C*%
X227475000Y-304445000D03*
%TO.P,U74,10,B*%
%TO.N,HALL_ROW_B*%
X227475000Y-303175000D03*
%TO.P,U74,11,A*%
%TO.N,HALL_ROW_A*%
X227475000Y-301905000D03*
%TO.P,U74,12,X3*%
%TO.N,HALL_C0R3*%
X227475000Y-300635000D03*
%TO.P,U74,13,X0*%
%TO.N,HALL_C0R0*%
X227475000Y-299365000D03*
%TO.P,U74,14,X1*%
%TO.N,HALL_C0R1*%
X227475000Y-298095000D03*
%TO.P,U74,15,X2*%
%TO.N,HALL_C0R2*%
X227475000Y-296825000D03*
%TO.P,U74,16,VDD*%
%TO.N,+3.3V*%
X227475000Y-295555000D03*
%TD*%
D11*
%TO.P,FB1,1*%
%TO.N,+3.3VA*%
X434457500Y-338870000D03*
%TO.P,FB1,2*%
%TO.N,+3.3V*%
X432882500Y-338870000D03*
%TD*%
%TO.P,D62,1,K*%
%TO.N,LED_C4*%
X345787500Y-282250000D03*
%TO.P,D62,2,A*%
%TO.N,/R7TE*%
X344212500Y-282250000D03*
%TD*%
%TO.P,D2,1,K*%
%TO.N,LED_C0*%
X225787500Y-72250000D03*
%TO.P,D2,2,A*%
%TO.N,/R0TE*%
X224212500Y-72250000D03*
%TD*%
D10*
%TO.P,U29,1,VCC*%
%TO.N,+3.3V*%
X403800000Y-134050000D03*
%TO.P,U29,2,VOUT*%
%TO.N,HALL_C6R2*%
X403800000Y-135950000D03*
%TO.P,U29,3,GND*%
%TO.N,GND*%
X406200000Y-135000000D03*
%TD*%
D23*
%TO.P,C2,1*%
%TO.N,+3.3V*%
X444160000Y-336857500D03*
%TO.P,C2,2*%
%TO.N,GND*%
X443200000Y-336857500D03*
%TD*%
D11*
%TO.P,D5,1,K*%
%TO.N,LED_C3*%
X315787500Y-72250000D03*
%TO.P,D5,2,A*%
%TO.N,/R0TE*%
X314212500Y-72250000D03*
%TD*%
%TO.P,D33,1,K*%
%TO.N,LED_C7*%
X435787500Y-162250000D03*
%TO.P,D33,2,A*%
%TO.N,/R3TE*%
X434212500Y-162250000D03*
%TD*%
D18*
%TO.P,U47,1,X4*%
%TO.N,LED_R4*%
X222525000Y-310555000D03*
%TO.P,U47,2,X6*%
%TO.N,LED_R6*%
X222525000Y-311825000D03*
%TO.P,U47,3,X*%
%TO.N,+3.3V*%
X222525000Y-313095000D03*
%TO.P,U47,4,X7*%
%TO.N,LED_R7*%
X222525000Y-314365000D03*
%TO.P,U47,5,X5*%
%TO.N,LED_R5*%
X222525000Y-315635000D03*
%TO.P,U47,6,Inh*%
%TO.N,GND*%
X222525000Y-316905000D03*
%TO.P,U47,7,VEE*%
X222525000Y-318175000D03*
%TO.P,U47,8,VSS*%
X222525000Y-319445000D03*
%TO.P,U47,9,C*%
%TO.N,LED_ROW_C*%
X227475000Y-319445000D03*
%TO.P,U47,10,B*%
%TO.N,LED_ROW_B*%
X227475000Y-318175000D03*
%TO.P,U47,11,A*%
%TO.N,LED_ROW_A*%
X227475000Y-316905000D03*
%TO.P,U47,12,X3*%
%TO.N,LED_R3*%
X227475000Y-315635000D03*
%TO.P,U47,13,X0*%
%TO.N,LED_R0*%
X227475000Y-314365000D03*
%TO.P,U47,14,X1*%
%TO.N,LED_R1*%
X227475000Y-313095000D03*
%TO.P,U47,15,X2*%
%TO.N,LED_R2*%
X227475000Y-311825000D03*
%TO.P,U47,16,VDD*%
%TO.N,+3.3V*%
X227475000Y-310555000D03*
%TD*%
D12*
%TO.P,R40,1*%
%TO.N,+3.3V*%
X432500000Y-164490000D03*
%TO.P,R40,2*%
%TO.N,HALL_C7R3*%
X432500000Y-165510000D03*
%TD*%
%TO.P,R62,1*%
%TO.N,/R3TB*%
X215500000Y-167490000D03*
%TO.P,R62,2*%
%TO.N,LED_R3*%
X215500000Y-168510000D03*
%TD*%
D13*
%TO.P,C74,1*%
%TO.N,HALL_C4R7*%
X344520000Y-287500000D03*
%TO.P,C74,2*%
%TO.N,GND*%
X345480000Y-287500000D03*
%TD*%
D12*
%TO.P,R12,1*%
%TO.N,+3.3V*%
X372500000Y-74490000D03*
%TO.P,R12,2*%
%TO.N,HALL_C5R0*%
X372500000Y-75510000D03*
%TD*%
D11*
%TO.P,D20,1,K*%
%TO.N,LED_C2*%
X285787500Y-132250000D03*
%TO.P,D20,2,A*%
%TO.N,/R2TE*%
X284212500Y-132250000D03*
%TD*%
D13*
%TO.P,C40,1*%
%TO.N,HALL_C2R3*%
X284500000Y-167500000D03*
%TO.P,C40,2*%
%TO.N,GND*%
X285460000Y-167500000D03*
%TD*%
%TO.P,C64,1*%
%TO.N,HALL_C2R6*%
X284520000Y-257500000D03*
%TO.P,C64,2*%
%TO.N,GND*%
X285480000Y-257500000D03*
%TD*%
D12*
%TO.P,R33,1*%
%TO.N,+3.3V*%
X222500000Y-164490000D03*
%TO.P,R33,2*%
%TO.N,HALL_C0R3*%
X222500000Y-165510000D03*
%TD*%
%TO.P,R18,1*%
%TO.N,+3.3V*%
X312500000Y-104490000D03*
%TO.P,R18,2*%
%TO.N,HALL_C3R1*%
X312500000Y-105510000D03*
%TD*%
D10*
%TO.P,U15,1,VCC*%
%TO.N,+3.3V*%
X223800000Y-104050000D03*
%TO.P,U15,2,VOUT*%
%TO.N,HALL_C0R1*%
X223800000Y-105950000D03*
%TO.P,U15,3,GND*%
%TO.N,GND*%
X226200000Y-105000000D03*
%TD*%
D11*
%TO.P,D49,1,K*%
%TO.N,LED_C7*%
X435787500Y-222250000D03*
%TO.P,D49,2,A*%
%TO.N,/R5TE*%
X434212500Y-222250000D03*
%TD*%
D10*
%TO.P,U14,1,VCC*%
%TO.N,+3.3V*%
X433800000Y-74050000D03*
%TO.P,U14,2,VOUT*%
%TO.N,HALL_C7R0*%
X433800000Y-75950000D03*
%TO.P,U14,3,GND*%
%TO.N,GND*%
X436200000Y-75000000D03*
%TD*%
%TO.P,U19,1,VCC*%
%TO.N,+3.3V*%
X343800000Y-104050000D03*
%TO.P,U19,2,VOUT*%
%TO.N,HALL_C4R1*%
X343800000Y-105950000D03*
%TO.P,U19,3,GND*%
%TO.N,GND*%
X346200000Y-105000000D03*
%TD*%
D24*
%TO.P,U1,1,GND*%
%TO.N,GND*%
X452500000Y-336670000D03*
%TO.P,U1,2,VO*%
%TO.N,+3.3V*%
X450200000Y-336670000D03*
D25*
X450200000Y-342970000D03*
D24*
%TO.P,U1,3,VI*%
%TO.N,VBUS*%
X447900000Y-336670000D03*
%TD*%
D26*
%TO.P,DS1,*%
%TO.N,*%
X292500900Y-315000000D03*
X292500900Y-346000700D03*
X367499480Y-346000700D03*
X367500000Y-315000000D03*
D27*
%TO.P,DS1,1,VSS*%
%TO.N,GND*%
X298000000Y-315000000D03*
D28*
%TO.P,DS1,2,VDD*%
%TO.N,VBUS*%
X300540000Y-315000000D03*
%TO.P,DS1,3,VO*%
%TO.N,/CONT_1*%
X303080000Y-315000000D03*
%TO.P,DS1,4,RS*%
%TO.N,LCD_RS*%
X305620000Y-315000000D03*
%TO.P,DS1,5,R/W*%
%TO.N,GND*%
X308160000Y-315000000D03*
%TO.P,DS1,6,E*%
%TO.N,LCD_LATCH*%
X310700000Y-315000000D03*
%TO.P,DS1,7,D0*%
%TO.N,/LCD1_D0*%
X313240000Y-315000000D03*
%TO.P,DS1,8,D1*%
%TO.N,/LCD1_D1*%
X315780000Y-315000000D03*
%TO.P,DS1,9,D2*%
%TO.N,/LCD1_D2*%
X318320000Y-315000000D03*
%TO.P,DS1,10,D3*%
%TO.N,/LCD1_D3*%
X320860000Y-315000000D03*
%TO.P,DS1,11,D4*%
%TO.N,/LCD1_D4*%
X323400000Y-315000000D03*
%TO.P,DS1,12,D5*%
%TO.N,/LCD1_D5*%
X325940000Y-315000000D03*
%TO.P,DS1,13,D6*%
%TO.N,/LCD1_D6*%
X328480000Y-315000000D03*
%TO.P,DS1,14,D7*%
%TO.N,/LCD1_D7*%
X331020000Y-315000000D03*
%TO.P,DS1,15,LED(+)*%
%TO.N,VBUS*%
X333560000Y-315000000D03*
%TO.P,DS1,16,LED(-)*%
%TO.N,GND*%
X336100000Y-315000000D03*
%TD*%
D19*
%TO.P,R1,1*%
%TO.N,GND*%
X458810000Y-342120000D03*
%TO.P,R1,2*%
%TO.N,/PWR_LED_K*%
X457790000Y-342120000D03*
%TD*%
D29*
%TO.P,R6,1*%
%TO.N,USB_D+*%
X450100000Y-329710000D03*
%TO.P,R6,2*%
%TO.N,+3.3V*%
X450100000Y-328690000D03*
%TD*%
D12*
%TO.P,R39,1*%
%TO.N,+3.3V*%
X402500000Y-164490000D03*
%TO.P,R39,2*%
%TO.N,HALL_C6R3*%
X402500000Y-165510000D03*
%TD*%
D30*
%TO.P,C12,1*%
%TO.N,/HSE_IN*%
X432450000Y-330087500D03*
%TO.P,C12,2*%
%TO.N,GND*%
X432450000Y-329127500D03*
%TD*%
D11*
%TO.P,D14,1,K*%
%TO.N,LED_C4*%
X345787500Y-102250000D03*
%TO.P,D14,2,A*%
%TO.N,/R1TE*%
X344212500Y-102250000D03*
%TD*%
D13*
%TO.P,C5,1*%
%TO.N,+3.3V*%
X438240000Y-325357500D03*
%TO.P,C5,2*%
%TO.N,GND*%
X439200000Y-325357500D03*
%TD*%
D12*
%TO.P,R86,1*%
%TO.N,/R7TB*%
X215500000Y-287490000D03*
%TO.P,R86,2*%
%TO.N,LED_R7*%
X215500000Y-288510000D03*
%TD*%
D11*
%TO.P,D32,1,K*%
%TO.N,LED_C6*%
X405787500Y-162250000D03*
%TO.P,D32,2,A*%
%TO.N,/R3TE*%
X404212500Y-162250000D03*
%TD*%
D30*
%TO.P,C6,1*%
%TO.N,+3.3VA*%
X435450000Y-332587500D03*
%TO.P,C6,2*%
%TO.N,GND*%
X435450000Y-331627500D03*
%TD*%
D10*
%TO.P,U28,1,VCC*%
%TO.N,+3.3V*%
X373800000Y-134050000D03*
%TO.P,U28,2,VOUT*%
%TO.N,HALL_C5R2*%
X373800000Y-135950000D03*
%TO.P,U28,3,GND*%
%TO.N,GND*%
X376200000Y-135000000D03*
%TD*%
D12*
%TO.P,R15,1*%
%TO.N,+3.3V*%
X222500000Y-104490000D03*
%TO.P,R15,2*%
%TO.N,HALL_C0R1*%
X222500000Y-105510000D03*
%TD*%
D15*
%TO.P,Q5,1,B*%
%TO.N,/R4TB*%
X215000000Y-195950000D03*
%TO.P,Q5,2,E*%
%TO.N,/R4TE*%
X215000000Y-194050000D03*
%TO.P,Q5,3,C*%
%TO.N,/R4TC*%
X213125000Y-195000000D03*
%TD*%
D12*
%TO.P,R69,1*%
%TO.N,+3.3V*%
X372500000Y-254490000D03*
%TO.P,R69,2*%
%TO.N,HALL_C5R6*%
X372500000Y-255510000D03*
%TD*%
D10*
%TO.P,U13,1,VCC*%
%TO.N,+3.3V*%
X403800000Y-74050000D03*
%TO.P,U13,2,VOUT*%
%TO.N,HALL_C6R0*%
X403800000Y-75950000D03*
%TO.P,U13,3,GND*%
%TO.N,GND*%
X406200000Y-75000000D03*
%TD*%
D18*
%TO.P,U64,1,X4*%
%TO.N,LED_C4*%
X222525000Y-325555000D03*
%TO.P,U64,2,X6*%
%TO.N,LED_C6*%
X222525000Y-326825000D03*
%TO.P,U64,3,X*%
%TO.N,GND*%
X222525000Y-328095000D03*
%TO.P,U64,4,X7*%
%TO.N,LED_C7*%
X222525000Y-329365000D03*
%TO.P,U64,5,X5*%
%TO.N,LED_C5*%
X222525000Y-330635000D03*
%TO.P,U64,6,Inh*%
%TO.N,DISABLE_LEDS*%
X222525000Y-331905000D03*
%TO.P,U64,7,VEE*%
%TO.N,GND*%
X222525000Y-333175000D03*
%TO.P,U64,8,VSS*%
X222525000Y-334445000D03*
%TO.P,U64,9,C*%
%TO.N,LED_COL_C*%
X227475000Y-334445000D03*
%TO.P,U64,10,B*%
%TO.N,LED_COL_B*%
X227475000Y-333175000D03*
%TO.P,U64,11,A*%
%TO.N,LED_COL_A*%
X227475000Y-331905000D03*
%TO.P,U64,12,X3*%
%TO.N,LED_C3*%
X227475000Y-330635000D03*
%TO.P,U64,13,X0*%
%TO.N,LED_C0*%
X227475000Y-329365000D03*
%TO.P,U64,14,X1*%
%TO.N,LED_C1*%
X227475000Y-328095000D03*
%TO.P,U64,15,X2*%
%TO.N,LED_C2*%
X227475000Y-326825000D03*
%TO.P,U64,16,VDD*%
%TO.N,+3.3V*%
X227475000Y-325555000D03*
%TD*%
D10*
%TO.P,U18,1,VCC*%
%TO.N,+3.3V*%
X313800000Y-104050000D03*
%TO.P,U18,2,VOUT*%
%TO.N,HALL_C3R1*%
X313800000Y-105950000D03*
%TO.P,U18,3,GND*%
%TO.N,GND*%
X316200000Y-105000000D03*
%TD*%
D12*
%TO.P,R50,1*%
%TO.N,+3.3V*%
X432500000Y-194490000D03*
%TO.P,R50,2*%
%TO.N,HALL_C7R4*%
X432500000Y-195510000D03*
%TD*%
D10*
%TO.P,U25,1,VCC*%
%TO.N,+3.3V*%
X283800000Y-134050000D03*
%TO.P,U25,2,VOUT*%
%TO.N,HALL_C2R2*%
X283800000Y-135950000D03*
%TO.P,U25,3,GND*%
%TO.N,GND*%
X286200000Y-135000000D03*
%TD*%
D12*
%TO.P,R36,1*%
%TO.N,+3.3V*%
X312500000Y-164500000D03*
%TO.P,R36,2*%
%TO.N,HALL_C3R3*%
X312500000Y-165520000D03*
%TD*%
D13*
%TO.P,C51,1*%
%TO.N,HALL_C5R4*%
X374540000Y-197500000D03*
%TO.P,C51,2*%
%TO.N,GND*%
X375500000Y-197500000D03*
%TD*%
D12*
%TO.P,R20,1*%
%TO.N,+3.3V*%
X372500000Y-104490000D03*
%TO.P,R20,2*%
%TO.N,HALL_C5R1*%
X372500000Y-105510000D03*
%TD*%
D20*
%TO.P,R5,1*%
%TO.N,GND*%
X458240000Y-336500000D03*
%TO.P,R5,2*%
%TO.N,/USB_CC1*%
X459260000Y-336500000D03*
%TD*%
D18*
%TO.P,U6,1,QB*%
%TO.N,HALL_ROW_B*%
X402525000Y-310555000D03*
%TO.P,U6,2,QC*%
%TO.N,HALL_ROW_C*%
X402525000Y-311825000D03*
%TO.P,U6,3,QD*%
%TO.N,HALL_COL_A*%
X402525000Y-313095000D03*
%TO.P,U6,4,QE*%
%TO.N,HALL_COL_B*%
X402525000Y-314365000D03*
%TO.P,U6,5,QF*%
%TO.N,HALL_COL_C*%
X402525000Y-315635000D03*
%TO.P,U6,6,QG*%
%TO.N,unconnected-(U6-QG-Pad6)*%
X402525000Y-316905000D03*
%TO.P,U6,7,QH*%
%TO.N,unconnected-(U6-QH-Pad7)*%
X402525000Y-318175000D03*
%TO.P,U6,8,GND*%
%TO.N,GND*%
X402525000Y-319445000D03*
%TO.P,U6,9,QH'*%
%TO.N,unconnected-(U6-QH'-Pad9)*%
X407475000Y-319445000D03*
%TO.P,U6,10,~{SRCLR}*%
%TO.N,+3.3V*%
X407475000Y-318175000D03*
%TO.P,U6,11,SRCLK*%
%TO.N,GRID_SER_CLK*%
X407475000Y-316905000D03*
%TO.P,U6,12,RCLK*%
%TO.N,GRID_LATCH*%
X407475000Y-315635000D03*
%TO.P,U6,13,~{OE}*%
%TO.N,GND*%
X407475000Y-314365000D03*
%TO.P,U6,14,SER*%
%TO.N,/GRID_REGS_SER_LINK*%
X407475000Y-313095000D03*
%TO.P,U6,15,QA*%
%TO.N,HALL_ROW_A*%
X407475000Y-311825000D03*
%TO.P,U6,16,VCC*%
%TO.N,+3.3V*%
X407475000Y-310555000D03*
%TD*%
D10*
%TO.P,U40,1,VCC*%
%TO.N,+3.3V*%
X253800000Y-194050000D03*
%TO.P,U40,2,VOUT*%
%TO.N,HALL_C1R4*%
X253800000Y-195950000D03*
%TO.P,U40,3,GND*%
%TO.N,GND*%
X256200000Y-195000000D03*
%TD*%
D11*
%TO.P,D43,1,K*%
%TO.N,LED_C1*%
X255787500Y-222250000D03*
%TO.P,D43,2,A*%
%TO.N,/R5TE*%
X254212500Y-222250000D03*
%TD*%
D12*
%TO.P,R22,1*%
%TO.N,+3.3V*%
X432500000Y-104490000D03*
%TO.P,R22,2*%
%TO.N,HALL_C7R1*%
X432500000Y-105510000D03*
%TD*%
D22*
%TO.P,C13,1*%
%TO.N,/HSE_OUT*%
X432450000Y-331607500D03*
%TO.P,C13,2*%
%TO.N,GND*%
X432450000Y-332567500D03*
%TD*%
D11*
%TO.P,D3,1,K*%
%TO.N,LED_C1*%
X255787500Y-72250000D03*
%TO.P,D3,2,A*%
%TO.N,/R0TE*%
X254212500Y-72250000D03*
%TD*%
D12*
%TO.P,R70,1*%
%TO.N,+3.3V*%
X402500000Y-254490000D03*
%TO.P,R70,2*%
%TO.N,HALL_C6R6*%
X402500000Y-255510000D03*
%TD*%
D13*
%TO.P,C41,1*%
%TO.N,HALL_C3R3*%
X314520000Y-167500000D03*
%TO.P,C41,2*%
%TO.N,GND*%
X315480000Y-167500000D03*
%TD*%
D11*
%TO.P,D6,1,K*%
%TO.N,LED_C4*%
X345787500Y-72250000D03*
%TO.P,D6,2,A*%
%TO.N,/R0TE*%
X344212500Y-72250000D03*
%TD*%
%TO.P,D25,1,K*%
%TO.N,LED_C7*%
X435787500Y-132250000D03*
%TO.P,D25,2,A*%
%TO.N,/R2TE*%
X434212500Y-132250000D03*
%TD*%
%TO.P,D47,1,K*%
%TO.N,LED_C5*%
X375787500Y-222250000D03*
%TO.P,D47,2,A*%
%TO.N,/R5TE*%
X374212500Y-222250000D03*
%TD*%
D13*
%TO.P,C53,1*%
%TO.N,HALL_C7R4*%
X434520000Y-197500000D03*
%TO.P,C53,2*%
%TO.N,GND*%
X435480000Y-197500000D03*
%TD*%
D11*
%TO.P,D30,1,K*%
%TO.N,LED_C4*%
X345787500Y-162250000D03*
%TO.P,D30,2,A*%
%TO.N,/R3TE*%
X344212500Y-162250000D03*
%TD*%
D12*
%TO.P,R26,1*%
%TO.N,+3.3V*%
X312500000Y-134490000D03*
%TO.P,R26,2*%
%TO.N,HALL_C3R2*%
X312500000Y-135510000D03*
%TD*%
D18*
%TO.P,U4,1,QB*%
%TO.N,/LCD1_D1*%
X372525000Y-325555000D03*
%TO.P,U4,2,QC*%
%TO.N,/LCD1_D2*%
X372525000Y-326825000D03*
%TO.P,U4,3,QD*%
%TO.N,/LCD1_D3*%
X372525000Y-328095000D03*
%TO.P,U4,4,QE*%
%TO.N,/LCD1_D4*%
X372525000Y-329365000D03*
%TO.P,U4,5,QF*%
%TO.N,/LCD1_D5*%
X372525000Y-330635000D03*
%TO.P,U4,6,QG*%
%TO.N,/LCD1_D6*%
X372525000Y-331905000D03*
%TO.P,U4,7,QH*%
%TO.N,/LCD1_D7*%
X372525000Y-333175000D03*
%TO.P,U4,8,GND*%
%TO.N,GND*%
X372525000Y-334445000D03*
%TO.P,U4,9,QH'*%
%TO.N,unconnected-(U4-QH'-Pad9)*%
X377475000Y-334445000D03*
%TO.P,U4,10,~{SRCLR}*%
%TO.N,VBUS*%
X377475000Y-333175000D03*
%TO.P,U4,11,SRCLK*%
%TO.N,LCD_SER_CLK*%
X377475000Y-331905000D03*
%TO.P,U4,12,RCLK*%
%TO.N,LCD_LATCH*%
X377475000Y-330635000D03*
%TO.P,U4,13,~{OE}*%
%TO.N,GND*%
X377475000Y-329365000D03*
%TO.P,U4,14,SER*%
%TO.N,LCD_SER_DATA*%
X377475000Y-328095000D03*
%TO.P,U4,15,QA*%
%TO.N,/LCD1_D0*%
X377475000Y-326825000D03*
%TO.P,U4,16,VCC*%
%TO.N,VBUS*%
X377475000Y-325555000D03*
%TD*%
D10*
%TO.P,U60,1,VCC*%
%TO.N,+3.3V*%
X343800000Y-254050000D03*
%TO.P,U60,2,VOUT*%
%TO.N,HALL_C4R6*%
X343800000Y-255950000D03*
%TO.P,U60,3,GND*%
%TO.N,GND*%
X346200000Y-255000000D03*
%TD*%
D12*
%TO.P,R55,1*%
%TO.N,+3.3V*%
X252500000Y-224500000D03*
%TO.P,R55,2*%
%TO.N,HALL_C1R5*%
X252500000Y-225520000D03*
%TD*%
D13*
%TO.P,C23,1*%
%TO.N,HALL_C1R1*%
X254500000Y-107500000D03*
%TO.P,C23,2*%
%TO.N,GND*%
X255460000Y-107500000D03*
%TD*%
%TO.P,C30,1*%
%TO.N,HALL_C0R2*%
X224500000Y-137500000D03*
%TO.P,C30,2*%
%TO.N,GND*%
X225460000Y-137500000D03*
%TD*%
D11*
%TO.P,D34,1,K*%
%TO.N,LED_C0*%
X225787500Y-192250000D03*
%TO.P,D34,2,A*%
%TO.N,/R4TE*%
X224212500Y-192250000D03*
%TD*%
%TO.P,D23,1,K*%
%TO.N,LED_C5*%
X375787500Y-132250000D03*
%TO.P,D23,2,A*%
%TO.N,/R2TE*%
X374212500Y-132250000D03*
%TD*%
D13*
%TO.P,C18,1*%
%TO.N,HALL_C4R0*%
X344520000Y-77500000D03*
%TO.P,C18,2*%
%TO.N,GND*%
X345480000Y-77500000D03*
%TD*%
D12*
%TO.P,R82,1*%
%TO.N,/R5TB*%
X215500000Y-227490000D03*
%TO.P,R82,2*%
%TO.N,LED_R5*%
X215500000Y-228510000D03*
%TD*%
D11*
%TO.P,D21,1,K*%
%TO.N,LED_C3*%
X315787500Y-132250000D03*
%TO.P,D21,2,A*%
%TO.N,/R2TE*%
X314212500Y-132250000D03*
%TD*%
D29*
%TO.P,R3,1*%
%TO.N,GND*%
X432450000Y-326367500D03*
%TO.P,R3,2*%
%TO.N,/JMP_BOOT0*%
X432450000Y-325347500D03*
%TD*%
D11*
%TO.P,D9,1,K*%
%TO.N,LED_C7*%
X435787500Y-72250000D03*
%TO.P,D9,2,A*%
%TO.N,/R0TE*%
X434212500Y-72250000D03*
%TD*%
%TO.P,D24,1,K*%
%TO.N,LED_C6*%
X405787500Y-132250000D03*
%TO.P,D24,2,A*%
%TO.N,/R2TE*%
X404212500Y-132250000D03*
%TD*%
%TO.P,D50,1,K*%
%TO.N,LED_C0*%
X225787500Y-252250000D03*
%TO.P,D50,2,A*%
%TO.N,/R6TE*%
X224212500Y-252250000D03*
%TD*%
%TO.P,D12,1,K*%
%TO.N,LED_C2*%
X285787500Y-102250000D03*
%TO.P,D12,2,A*%
%TO.N,/R1TE*%
X284212500Y-102250000D03*
%TD*%
D18*
%TO.P,U78,1,X4*%
%TO.N,HALL_C4R4*%
X342525000Y-295555000D03*
%TO.P,U78,2,X6*%
%TO.N,HALL_C4R6*%
X342525000Y-296825000D03*
%TO.P,U78,3,X*%
%TO.N,HALL_C4*%
X342525000Y-298095000D03*
%TO.P,U78,4,X7*%
%TO.N,HALL_C4R7*%
X342525000Y-299365000D03*
%TO.P,U78,5,X5*%
%TO.N,HALL_C4R5*%
X342525000Y-300635000D03*
%TO.P,U78,6,Inh*%
%TO.N,GND*%
X342525000Y-301905000D03*
%TO.P,U78,7,VEE*%
X342525000Y-303175000D03*
%TO.P,U78,8,VSS*%
X342525000Y-304445000D03*
%TO.P,U78,9,C*%
%TO.N,HALL_ROW_C*%
X347475000Y-304445000D03*
%TO.P,U78,10,B*%
%TO.N,HALL_ROW_B*%
X347475000Y-303175000D03*
%TO.P,U78,11,A*%
%TO.N,HALL_ROW_A*%
X347475000Y-301905000D03*
%TO.P,U78,12,X3*%
%TO.N,HALL_C4R3*%
X347475000Y-300635000D03*
%TO.P,U78,13,X0*%
%TO.N,HALL_C4R0*%
X347475000Y-299365000D03*
%TO.P,U78,14,X1*%
%TO.N,HALL_C4R1*%
X347475000Y-298095000D03*
%TO.P,U78,15,X2*%
%TO.N,HALL_C4R2*%
X347475000Y-296825000D03*
%TO.P,U78,16,VDD*%
%TO.N,+3.3V*%
X347475000Y-295555000D03*
%TD*%
D12*
%TO.P,R16,1*%
%TO.N,+3.3V*%
X252500000Y-104490000D03*
%TO.P,R16,2*%
%TO.N,HALL_C1R1*%
X252500000Y-105510000D03*
%TD*%
D31*
%TO.P,C1,1*%
%TO.N,+3.3V*%
X437975000Y-323857500D03*
%TO.P,C1,2*%
%TO.N,GND*%
X439525000Y-323857500D03*
%TD*%
D18*
%TO.P,U76,1,X4*%
%TO.N,HALL_C2R4*%
X282525000Y-295555000D03*
%TO.P,U76,2,X6*%
%TO.N,HALL_C2R6*%
X282525000Y-296825000D03*
%TO.P,U76,3,X*%
%TO.N,HALL_C2*%
X282525000Y-298095000D03*
%TO.P,U76,4,X7*%
%TO.N,HALL_C2R7*%
X282525000Y-299365000D03*
%TO.P,U76,5,X5*%
%TO.N,HALL_C2R5*%
X282525000Y-300635000D03*
%TO.P,U76,6,Inh*%
%TO.N,GND*%
X282525000Y-301905000D03*
%TO.P,U76,7,VEE*%
X282525000Y-303175000D03*
%TO.P,U76,8,VSS*%
X282525000Y-304445000D03*
%TO.P,U76,9,C*%
%TO.N,HALL_ROW_C*%
X287475000Y-304445000D03*
%TO.P,U76,10,B*%
%TO.N,HALL_ROW_B*%
X287475000Y-303175000D03*
%TO.P,U76,11,A*%
%TO.N,HALL_ROW_A*%
X287475000Y-301905000D03*
%TO.P,U76,12,X3*%
%TO.N,HALL_C2R3*%
X287475000Y-300635000D03*
%TO.P,U76,13,X0*%
%TO.N,HALL_C2R0*%
X287475000Y-299365000D03*
%TO.P,U76,14,X1*%
%TO.N,HALL_C2R1*%
X287475000Y-298095000D03*
%TO.P,U76,15,X2*%
%TO.N,HALL_C2R2*%
X287475000Y-296825000D03*
%TO.P,U76,16,VDD*%
%TO.N,+3.3V*%
X287475000Y-295555000D03*
%TD*%
D13*
%TO.P,C34,1*%
%TO.N,HALL_C4R2*%
X344520000Y-137500000D03*
%TO.P,C34,2*%
%TO.N,GND*%
X345480000Y-137500000D03*
%TD*%
D10*
%TO.P,U53,1,VCC*%
%TO.N,+3.3V*%
X373800000Y-224050000D03*
%TO.P,U53,2,VOUT*%
%TO.N,HALL_C5R5*%
X373800000Y-225950000D03*
%TO.P,U53,3,GND*%
%TO.N,GND*%
X376200000Y-225000000D03*
%TD*%
D11*
%TO.P,D46,1,K*%
%TO.N,LED_C4*%
X345787500Y-222250000D03*
%TO.P,D46,2,A*%
%TO.N,/R5TE*%
X344212500Y-222250000D03*
%TD*%
D20*
%TO.P,R53,1*%
%TO.N,+3.3V*%
X210480000Y-165000000D03*
%TO.P,R53,2*%
%TO.N,/R3TC*%
X211500000Y-165000000D03*
%TD*%
D11*
%TO.P,D8,1,K*%
%TO.N,LED_C6*%
X405787500Y-72250000D03*
%TO.P,D8,2,A*%
%TO.N,/R0TE*%
X404212500Y-72250000D03*
%TD*%
D12*
%TO.P,R44,1*%
%TO.N,+3.3V*%
X252500000Y-194490000D03*
%TO.P,R44,2*%
%TO.N,HALL_C1R4*%
X252500000Y-195510000D03*
%TD*%
%TO.P,R76,1*%
%TO.N,+3.3V*%
X282500000Y-284500000D03*
%TO.P,R76,2*%
%TO.N,HALL_C2R7*%
X282500000Y-285520000D03*
%TD*%
D13*
%TO.P,C25,1*%
%TO.N,HALL_C3R1*%
X314520000Y-107500000D03*
%TO.P,C25,2*%
%TO.N,GND*%
X315480000Y-107500000D03*
%TD*%
D12*
%TO.P,R49,1*%
%TO.N,+3.3V*%
X402500000Y-194490000D03*
%TO.P,R49,2*%
%TO.N,HALL_C6R4*%
X402500000Y-195510000D03*
%TD*%
D32*
%TO.P,JP1,1,A*%
%TO.N,+3.3V*%
X429550000Y-325357500D03*
%TO.P,JP1,2,B*%
%TO.N,/JMP_BOOT0*%
X430850000Y-325357500D03*
%TD*%
D12*
%TO.P,R29,1*%
%TO.N,+3.3V*%
X402500000Y-134490000D03*
%TO.P,R29,2*%
%TO.N,HALL_C6R2*%
X402500000Y-135510000D03*
%TD*%
%TO.P,R9,1*%
%TO.N,+3.3V*%
X282500000Y-74490000D03*
%TO.P,R9,2*%
%TO.N,HALL_C2R0*%
X282500000Y-75510000D03*
%TD*%
D10*
%TO.P,U63,1,VCC*%
%TO.N,+3.3V*%
X433800000Y-254050000D03*
%TO.P,U63,2,VOUT*%
%TO.N,HALL_C7R6*%
X433800000Y-255950000D03*
%TO.P,U63,3,GND*%
%TO.N,GND*%
X436200000Y-255000000D03*
%TD*%
D20*
%TO.P,R31,1*%
%TO.N,+3.3V*%
X210480000Y-75000000D03*
%TO.P,R31,2*%
%TO.N,/R0TC*%
X211500000Y-75000000D03*
%TD*%
D11*
%TO.P,D65,1,K*%
%TO.N,LED_C7*%
X435787500Y-282250000D03*
%TO.P,D65,2,A*%
%TO.N,/R7TE*%
X434212500Y-282250000D03*
%TD*%
D15*
%TO.P,Q8,1,B*%
%TO.N,/R7TB*%
X215000000Y-285950000D03*
%TO.P,Q8,2,E*%
%TO.N,/R7TE*%
X215000000Y-284050000D03*
%TO.P,Q8,3,C*%
%TO.N,/R7TC*%
X213125000Y-285000000D03*
%TD*%
D12*
%TO.P,R57,1*%
%TO.N,+3.3V*%
X312500000Y-224490000D03*
%TO.P,R57,2*%
%TO.N,HALL_C3R5*%
X312500000Y-225510000D03*
%TD*%
D10*
%TO.P,U10,1,VCC*%
%TO.N,+3.3V*%
X313800000Y-74050000D03*
%TO.P,U10,2,VOUT*%
%TO.N,HALL_C3R0*%
X313800000Y-75950000D03*
%TO.P,U10,3,GND*%
%TO.N,GND*%
X316200000Y-75000000D03*
%TD*%
D11*
%TO.P,D22,1,K*%
%TO.N,LED_C4*%
X345787500Y-132250000D03*
%TO.P,D22,2,A*%
%TO.N,/R2TE*%
X344212500Y-132250000D03*
%TD*%
D10*
%TO.P,U11,1,VCC*%
%TO.N,+3.3V*%
X343800000Y-74050000D03*
%TO.P,U11,2,VOUT*%
%TO.N,HALL_C4R0*%
X343800000Y-75950000D03*
%TO.P,U11,3,GND*%
%TO.N,GND*%
X346200000Y-75000000D03*
%TD*%
D13*
%TO.P,C43,1*%
%TO.N,HALL_C5R3*%
X374520000Y-167500000D03*
%TO.P,C43,2*%
%TO.N,GND*%
X375480000Y-167500000D03*
%TD*%
%TO.P,C20,1*%
%TO.N,HALL_C6R0*%
X404520000Y-77500000D03*
%TO.P,C20,2*%
%TO.N,GND*%
X405480000Y-77500000D03*
%TD*%
D12*
%TO.P,R84,1*%
%TO.N,/R6TB*%
X215500000Y-257490000D03*
%TO.P,R84,2*%
%TO.N,LED_R6*%
X215500000Y-258510000D03*
%TD*%
D13*
%TO.P,C56,1*%
%TO.N,HALL_C2R5*%
X284520000Y-227500000D03*
%TO.P,C56,2*%
%TO.N,GND*%
X285480000Y-227500000D03*
%TD*%
D11*
%TO.P,D28,1,K*%
%TO.N,LED_C2*%
X285787500Y-162250000D03*
%TO.P,D28,2,A*%
%TO.N,/R3TE*%
X284212500Y-162250000D03*
%TD*%
D20*
%TO.P,R83,1*%
%TO.N,+3.3V*%
X210480000Y-255000000D03*
%TO.P,R83,2*%
%TO.N,/R6TC*%
X211500000Y-255000000D03*
%TD*%
D13*
%TO.P,C63,1*%
%TO.N,HALL_C1R6*%
X254520000Y-257500000D03*
%TO.P,C63,2*%
%TO.N,GND*%
X255480000Y-257500000D03*
%TD*%
D12*
%TO.P,R67,1*%
%TO.N,+3.3V*%
X312500000Y-254490000D03*
%TO.P,R67,2*%
%TO.N,HALL_C3R6*%
X312500000Y-255510000D03*
%TD*%
D10*
%TO.P,U45,1,VCC*%
%TO.N,+3.3V*%
X403800000Y-194050000D03*
%TO.P,U45,2,VOUT*%
%TO.N,HALL_C6R4*%
X403800000Y-195950000D03*
%TO.P,U45,3,GND*%
%TO.N,GND*%
X406200000Y-195000000D03*
%TD*%
%TO.P,U12,1,VCC*%
%TO.N,+3.3V*%
X373800000Y-74050000D03*
%TO.P,U12,2,VOUT*%
%TO.N,HALL_C5R0*%
X373800000Y-75950000D03*
%TO.P,U12,3,GND*%
%TO.N,GND*%
X376200000Y-75000000D03*
%TD*%
D18*
%TO.P,U80,1,X4*%
%TO.N,HALL_C6R4*%
X402525000Y-295555000D03*
%TO.P,U80,2,X6*%
%TO.N,HALL_C6R6*%
X402525000Y-296825000D03*
%TO.P,U80,3,X*%
%TO.N,HALL_C6*%
X402525000Y-298095000D03*
%TO.P,U80,4,X7*%
%TO.N,HALL_C6R7*%
X402525000Y-299365000D03*
%TO.P,U80,5,X5*%
%TO.N,HALL_C6R5*%
X402525000Y-300635000D03*
%TO.P,U80,6,Inh*%
%TO.N,GND*%
X402525000Y-301905000D03*
%TO.P,U80,7,VEE*%
X402525000Y-303175000D03*
%TO.P,U80,8,VSS*%
X402525000Y-304445000D03*
%TO.P,U80,9,C*%
%TO.N,HALL_ROW_C*%
X407475000Y-304445000D03*
%TO.P,U80,10,B*%
%TO.N,HALL_ROW_B*%
X407475000Y-303175000D03*
%TO.P,U80,11,A*%
%TO.N,HALL_ROW_A*%
X407475000Y-301905000D03*
%TO.P,U80,12,X3*%
%TO.N,HALL_C6R3*%
X407475000Y-300635000D03*
%TO.P,U80,13,X0*%
%TO.N,HALL_C6R0*%
X407475000Y-299365000D03*
%TO.P,U80,14,X1*%
%TO.N,HALL_C6R1*%
X407475000Y-298095000D03*
%TO.P,U80,15,X2*%
%TO.N,HALL_C6R2*%
X407475000Y-296825000D03*
%TO.P,U80,16,VDD*%
%TO.N,+3.3V*%
X407475000Y-295555000D03*
%TD*%
D13*
%TO.P,C21,1*%
%TO.N,HALL_C7R0*%
X434520000Y-77500000D03*
%TO.P,C21,2*%
%TO.N,GND*%
X435480000Y-77500000D03*
%TD*%
D12*
%TO.P,R72,1*%
%TO.N,/R4TB*%
X215500000Y-197490000D03*
%TO.P,R72,2*%
%TO.N,LED_R4*%
X215500000Y-198510000D03*
%TD*%
D11*
%TO.P,D27,1,K*%
%TO.N,LED_C1*%
X255787500Y-162250000D03*
%TO.P,D27,2,A*%
%TO.N,/R3TE*%
X254212500Y-162250000D03*
%TD*%
D12*
%TO.P,R34,1*%
%TO.N,+3.3V*%
X252500000Y-164500000D03*
%TO.P,R34,2*%
%TO.N,HALL_C1R3*%
X252500000Y-165520000D03*
%TD*%
D10*
%TO.P,U59,1,VCC*%
%TO.N,+3.3V*%
X313800000Y-254050000D03*
%TO.P,U59,2,VOUT*%
%TO.N,HALL_C3R6*%
X313800000Y-255950000D03*
%TO.P,U59,3,GND*%
%TO.N,GND*%
X316200000Y-255000000D03*
%TD*%
D13*
%TO.P,C15,1*%
%TO.N,HALL_C1R0*%
X254520000Y-77500000D03*
%TO.P,C15,2*%
%TO.N,GND*%
X255480000Y-77500000D03*
%TD*%
D11*
%TO.P,D42,1,K*%
%TO.N,LED_C0*%
X225787500Y-222250000D03*
%TO.P,D42,2,A*%
%TO.N,/R5TE*%
X224212500Y-222250000D03*
%TD*%
%TO.P,D45,1,K*%
%TO.N,LED_C3*%
X315787500Y-222250000D03*
%TO.P,D45,2,A*%
%TO.N,/R5TE*%
X314212500Y-222250000D03*
%TD*%
D13*
%TO.P,C36,1*%
%TO.N,HALL_C6R2*%
X404520000Y-137500000D03*
%TO.P,C36,2*%
%TO.N,GND*%
X405480000Y-137500000D03*
%TD*%
%TO.P,C45,1*%
%TO.N,HALL_C7R3*%
X434540000Y-167500000D03*
%TO.P,C45,2*%
%TO.N,GND*%
X435500000Y-167500000D03*
%TD*%
D10*
%TO.P,U16,1,VCC*%
%TO.N,+3.3V*%
X253800000Y-104050000D03*
%TO.P,U16,2,VOUT*%
%TO.N,HALL_C1R1*%
X253800000Y-105950000D03*
%TO.P,U16,3,GND*%
%TO.N,GND*%
X256200000Y-105000000D03*
%TD*%
D13*
%TO.P,C27,1*%
%TO.N,HALL_C5R1*%
X374520000Y-107500000D03*
%TO.P,C27,2*%
%TO.N,GND*%
X375480000Y-107500000D03*
%TD*%
D18*
%TO.P,U73,1,X4*%
%TO.N,HALL_C4*%
X282525000Y-325555000D03*
%TO.P,U73,2,X6*%
%TO.N,HALL_C6*%
X282525000Y-326825000D03*
%TO.P,U73,3,X*%
%TO.N,SELECTED_HALL*%
X282525000Y-328095000D03*
%TO.P,U73,4,X7*%
%TO.N,HALL_C7*%
X282525000Y-329365000D03*
%TO.P,U73,5,X5*%
%TO.N,HALL_C5*%
X282525000Y-330635000D03*
%TO.P,U73,6,Inh*%
%TO.N,GND*%
X282525000Y-331905000D03*
%TO.P,U73,7,VEE*%
X282525000Y-333175000D03*
%TO.P,U73,8,VSS*%
X282525000Y-334445000D03*
%TO.P,U73,9,C*%
%TO.N,HALL_COL_C*%
X287475000Y-334445000D03*
%TO.P,U73,10,B*%
%TO.N,HALL_COL_B*%
X287475000Y-333175000D03*
%TO.P,U73,11,A*%
%TO.N,HALL_COL_A*%
X287475000Y-331905000D03*
%TO.P,U73,12,X3*%
%TO.N,HALL_C3*%
X287475000Y-330635000D03*
%TO.P,U73,13,X0*%
%TO.N,HALL_C0*%
X287475000Y-329365000D03*
%TO.P,U73,14,X1*%
%TO.N,HALL_C1*%
X287475000Y-328095000D03*
%TO.P,U73,15,X2*%
%TO.N,HALL_C2*%
X287475000Y-326825000D03*
%TO.P,U73,16,VDD*%
%TO.N,+3.3V*%
X287475000Y-325555000D03*
%TD*%
D13*
%TO.P,C71,1*%
%TO.N,HALL_C1R7*%
X254520000Y-287500000D03*
%TO.P,C71,2*%
%TO.N,GND*%
X255480000Y-287500000D03*
%TD*%
%TO.P,C58,1*%
%TO.N,HALL_C4R5*%
X344520000Y-227500000D03*
%TO.P,C58,2*%
%TO.N,GND*%
X345480000Y-227500000D03*
%TD*%
%TO.P,C70,1*%
%TO.N,HALL_C0R7*%
X224520000Y-287500000D03*
%TO.P,C70,2*%
%TO.N,GND*%
X225480000Y-287500000D03*
%TD*%
D12*
%TO.P,R43,1*%
%TO.N,+3.3V*%
X222500000Y-194490000D03*
%TO.P,R43,2*%
%TO.N,HALL_C0R4*%
X222500000Y-195510000D03*
%TD*%
%TO.P,R8,1*%
%TO.N,+3.3V*%
X252500000Y-74490000D03*
%TO.P,R8,2*%
%TO.N,HALL_C1R0*%
X252500000Y-75510000D03*
%TD*%
%TO.P,R65,1*%
%TO.N,+3.3V*%
X252500000Y-254490000D03*
%TO.P,R65,2*%
%TO.N,HALL_C1R6*%
X252500000Y-255510000D03*
%TD*%
D10*
%TO.P,U44,1,VCC*%
%TO.N,+3.3V*%
X373800000Y-194050000D03*
%TO.P,U44,2,VOUT*%
%TO.N,HALL_C5R4*%
X373800000Y-195950000D03*
%TO.P,U44,3,GND*%
%TO.N,GND*%
X376200000Y-195000000D03*
%TD*%
D13*
%TO.P,C67,1*%
%TO.N,HALL_C5R6*%
X374520000Y-257500000D03*
%TO.P,C67,2*%
%TO.N,GND*%
X375480000Y-257500000D03*
%TD*%
%TO.P,C49,1*%
%TO.N,HALL_C3R4*%
X314520000Y-197500000D03*
%TO.P,C49,2*%
%TO.N,GND*%
X315480000Y-197500000D03*
%TD*%
D10*
%TO.P,U24,1,VCC*%
%TO.N,+3.3V*%
X253800000Y-134050000D03*
%TO.P,U24,2,VOUT*%
%TO.N,HALL_C1R2*%
X253800000Y-135950000D03*
%TO.P,U24,3,GND*%
%TO.N,GND*%
X256200000Y-135000000D03*
%TD*%
D13*
%TO.P,C17,1*%
%TO.N,HALL_C3R0*%
X314520000Y-77500000D03*
%TO.P,C17,2*%
%TO.N,GND*%
X315480000Y-77500000D03*
%TD*%
%TO.P,C55,1*%
%TO.N,HALL_C1R5*%
X254520000Y-227500000D03*
%TO.P,C55,2*%
%TO.N,GND*%
X255480000Y-227500000D03*
%TD*%
D11*
%TO.P,D29,1,K*%
%TO.N,LED_C3*%
X315787500Y-162250000D03*
%TO.P,D29,2,A*%
%TO.N,/R3TE*%
X314212500Y-162250000D03*
%TD*%
D13*
%TO.P,C26,1*%
%TO.N,HALL_C4R1*%
X344520000Y-107500000D03*
%TO.P,C26,2*%
%TO.N,GND*%
X345480000Y-107500000D03*
%TD*%
D10*
%TO.P,U65,1,VCC*%
%TO.N,+3.3V*%
X223800000Y-284050000D03*
%TO.P,U65,2,VOUT*%
%TO.N,HALL_C0R7*%
X223800000Y-285950000D03*
%TO.P,U65,3,GND*%
%TO.N,GND*%
X226200000Y-285000000D03*
%TD*%
D18*
%TO.P,U77,1,X4*%
%TO.N,HALL_C3R4*%
X312525000Y-295555000D03*
%TO.P,U77,2,X6*%
%TO.N,HALL_C3R6*%
X312525000Y-296825000D03*
%TO.P,U77,3,X*%
%TO.N,HALL_C3*%
X312525000Y-298095000D03*
%TO.P,U77,4,X7*%
%TO.N,HALL_C3R7*%
X312525000Y-299365000D03*
%TO.P,U77,5,X5*%
%TO.N,HALL_C3R5*%
X312525000Y-300635000D03*
%TO.P,U77,6,Inh*%
%TO.N,GND*%
X312525000Y-301905000D03*
%TO.P,U77,7,VEE*%
X312525000Y-303175000D03*
%TO.P,U77,8,VSS*%
X312525000Y-304445000D03*
%TO.P,U77,9,C*%
%TO.N,HALL_ROW_C*%
X317475000Y-304445000D03*
%TO.P,U77,10,B*%
%TO.N,HALL_ROW_B*%
X317475000Y-303175000D03*
%TO.P,U77,11,A*%
%TO.N,HALL_ROW_A*%
X317475000Y-301905000D03*
%TO.P,U77,12,X3*%
%TO.N,HALL_C3R3*%
X317475000Y-300635000D03*
%TO.P,U77,13,X0*%
%TO.N,HALL_C3R0*%
X317475000Y-299365000D03*
%TO.P,U77,14,X1*%
%TO.N,HALL_C3R1*%
X317475000Y-298095000D03*
%TO.P,U77,15,X2*%
%TO.N,HALL_C3R2*%
X317475000Y-296825000D03*
%TO.P,U77,16,VDD*%
%TO.N,+3.3V*%
X317475000Y-295555000D03*
%TD*%
D13*
%TO.P,C32,1*%
%TO.N,HALL_C2R2*%
X284520000Y-137500000D03*
%TO.P,C32,2*%
%TO.N,GND*%
X285480000Y-137500000D03*
%TD*%
D12*
%TO.P,R42,1*%
%TO.N,/R1TB*%
X215500000Y-107490000D03*
%TO.P,R42,2*%
%TO.N,LED_R1*%
X215500000Y-108510000D03*
%TD*%
D13*
%TO.P,C39,1*%
%TO.N,HALL_C1R3*%
X254520000Y-167500000D03*
%TO.P,C39,2*%
%TO.N,GND*%
X255480000Y-167500000D03*
%TD*%
%TO.P,C31,1*%
%TO.N,HALL_C1R2*%
X254520000Y-137500000D03*
%TO.P,C31,2*%
%TO.N,GND*%
X255480000Y-137500000D03*
%TD*%
D10*
%TO.P,U67,1,VCC*%
%TO.N,+3.3V*%
X283800000Y-284050000D03*
%TO.P,U67,2,VOUT*%
%TO.N,HALL_C2R7*%
X283800000Y-285950000D03*
%TO.P,U67,3,GND*%
%TO.N,GND*%
X286200000Y-285000000D03*
%TD*%
D33*
%TO.P,SW1,1,A*%
%TO.N,+3.3V*%
X257540000Y-325277500D03*
%TO.P,SW1,2,B*%
%TO.N,BUTTON*%
X251190000Y-327817500D03*
%TD*%
D10*
%TO.P,U22,1,VCC*%
%TO.N,+3.3V*%
X433800000Y-104050000D03*
%TO.P,U22,2,VOUT*%
%TO.N,HALL_C7R1*%
X433800000Y-105950000D03*
%TO.P,U22,3,GND*%
%TO.N,GND*%
X436200000Y-105000000D03*
%TD*%
D12*
%TO.P,R60,1*%
%TO.N,+3.3V*%
X402500000Y-224500000D03*
%TO.P,R60,2*%
%TO.N,HALL_C6R5*%
X402500000Y-225520000D03*
%TD*%
%TO.P,R35,1*%
%TO.N,+3.3V*%
X282500000Y-164500000D03*
%TO.P,R35,2*%
%TO.N,HALL_C2R3*%
X282500000Y-165520000D03*
%TD*%
D13*
%TO.P,C54,1*%
%TO.N,HALL_C0R5*%
X224520000Y-227500000D03*
%TO.P,C54,2*%
%TO.N,GND*%
X225480000Y-227500000D03*
%TD*%
D12*
%TO.P,R25,1*%
%TO.N,+3.3V*%
X282500000Y-134490000D03*
%TO.P,R25,2*%
%TO.N,HALL_C2R2*%
X282500000Y-135510000D03*
%TD*%
D10*
%TO.P,U50,1,VCC*%
%TO.N,+3.3V*%
X283800000Y-224050000D03*
%TO.P,U50,2,VOUT*%
%TO.N,HALL_C2R5*%
X283800000Y-225950000D03*
%TO.P,U50,3,GND*%
%TO.N,GND*%
X286200000Y-225000000D03*
%TD*%
D12*
%TO.P,R38,1*%
%TO.N,+3.3V*%
X372500000Y-164500000D03*
%TO.P,R38,2*%
%TO.N,HALL_C5R3*%
X372500000Y-165520000D03*
%TD*%
D10*
%TO.P,U32,1,VCC*%
%TO.N,+3.3V*%
X253800000Y-164050000D03*
%TO.P,U32,2,VOUT*%
%TO.N,HALL_C1R3*%
X253800000Y-165950000D03*
%TO.P,U32,3,GND*%
%TO.N,GND*%
X256200000Y-165000000D03*
%TD*%
D11*
%TO.P,D35,1,K*%
%TO.N,LED_C1*%
X255787500Y-192250000D03*
%TO.P,D35,2,A*%
%TO.N,/R4TE*%
X254212500Y-192250000D03*
%TD*%
D15*
%TO.P,Q2,1,B*%
%TO.N,/R1TB*%
X215000000Y-105950000D03*
%TO.P,Q2,2,E*%
%TO.N,/R1TE*%
X215000000Y-104050000D03*
%TO.P,Q2,3,C*%
%TO.N,/R1TC*%
X213125000Y-105000000D03*
%TD*%
D11*
%TO.P,D7,1,K*%
%TO.N,LED_C5*%
X375787500Y-72250000D03*
%TO.P,D7,2,A*%
%TO.N,/R0TE*%
X374212500Y-72250000D03*
%TD*%
D13*
%TO.P,C47,1*%
%TO.N,HALL_C1R4*%
X254520000Y-197500000D03*
%TO.P,C47,2*%
%TO.N,GND*%
X255480000Y-197500000D03*
%TD*%
D12*
%TO.P,R19,1*%
%TO.N,+3.3V*%
X342500000Y-104490000D03*
%TO.P,R19,2*%
%TO.N,HALL_C4R1*%
X342500000Y-105510000D03*
%TD*%
%TO.P,R48,1*%
%TO.N,+3.3V*%
X372500000Y-194490000D03*
%TO.P,R48,2*%
%TO.N,HALL_C5R4*%
X372500000Y-195510000D03*
%TD*%
%TO.P,R45,1*%
%TO.N,+3.3V*%
X282500000Y-194490000D03*
%TO.P,R45,2*%
%TO.N,HALL_C2R4*%
X282500000Y-195510000D03*
%TD*%
D13*
%TO.P,C33,1*%
%TO.N,HALL_C3R2*%
X314520000Y-137500000D03*
%TO.P,C33,2*%
%TO.N,GND*%
X315480000Y-137500000D03*
%TD*%
D11*
%TO.P,D55,1,K*%
%TO.N,LED_C5*%
X375787500Y-252500000D03*
%TO.P,D55,2,A*%
%TO.N,/R6TE*%
X374212500Y-252500000D03*
%TD*%
D13*
%TO.P,C37,1*%
%TO.N,HALL_C7R2*%
X434540000Y-137500000D03*
%TO.P,C37,2*%
%TO.N,GND*%
X435500000Y-137500000D03*
%TD*%
D10*
%TO.P,U68,1,VCC*%
%TO.N,+3.3V*%
X313800000Y-284050000D03*
%TO.P,U68,2,VOUT*%
%TO.N,HALL_C3R7*%
X313800000Y-285950000D03*
%TO.P,U68,3,GND*%
%TO.N,GND*%
X316200000Y-285000000D03*
%TD*%
D11*
%TO.P,D54,1,K*%
%TO.N,LED_C4*%
X345787500Y-252250000D03*
%TO.P,D54,2,A*%
%TO.N,/R6TE*%
X344212500Y-252250000D03*
%TD*%
%TO.P,D38,1,K*%
%TO.N,LED_C4*%
X345787500Y-192250000D03*
%TO.P,D38,2,A*%
%TO.N,/R4TE*%
X344212500Y-192250000D03*
%TD*%
D10*
%TO.P,U21,1,VCC*%
%TO.N,+3.3V*%
X403800000Y-104050000D03*
%TO.P,U21,2,VOUT*%
%TO.N,HALL_C6R1*%
X403800000Y-105950000D03*
%TO.P,U21,3,GND*%
%TO.N,GND*%
X406200000Y-105000000D03*
%TD*%
%TO.P,U61,1,VCC*%
%TO.N,+3.3V*%
X373800000Y-254050000D03*
%TO.P,U61,2,VOUT*%
%TO.N,HALL_C5R6*%
X373800000Y-255950000D03*
%TO.P,U61,3,GND*%
%TO.N,GND*%
X376200000Y-255000000D03*
%TD*%
D13*
%TO.P,C14,1*%
%TO.N,HALL_C0R0*%
X224520000Y-77500000D03*
%TO.P,C14,2*%
%TO.N,GND*%
X225480000Y-77500000D03*
%TD*%
D11*
%TO.P,D53,1,K*%
%TO.N,LED_C3*%
X315787500Y-252250000D03*
%TO.P,D53,2,A*%
%TO.N,/R6TE*%
X314212500Y-252250000D03*
%TD*%
D10*
%TO.P,U46,1,VCC*%
%TO.N,+3.3V*%
X433800000Y-194050000D03*
%TO.P,U46,2,VOUT*%
%TO.N,HALL_C7R4*%
X433800000Y-195950000D03*
%TO.P,U46,3,GND*%
%TO.N,GND*%
X436200000Y-195000000D03*
%TD*%
D11*
%TO.P,D13,1,K*%
%TO.N,LED_C3*%
X315787500Y-102250000D03*
%TO.P,D13,2,A*%
%TO.N,/R1TE*%
X314212500Y-102250000D03*
%TD*%
D13*
%TO.P,C16,1*%
%TO.N,HALL_C2R0*%
X284520000Y-77500000D03*
%TO.P,C16,2*%
%TO.N,GND*%
X285480000Y-77500000D03*
%TD*%
D10*
%TO.P,U17,1,VCC*%
%TO.N,+3.3V*%
X283800000Y-104050000D03*
%TO.P,U17,2,VOUT*%
%TO.N,HALL_C2R1*%
X283800000Y-105950000D03*
%TO.P,U17,3,GND*%
%TO.N,GND*%
X286200000Y-105000000D03*
%TD*%
D12*
%TO.P,R23,1*%
%TO.N,+3.3V*%
X222500000Y-134490000D03*
%TO.P,R23,2*%
%TO.N,HALL_C0R2*%
X222500000Y-135510000D03*
%TD*%
%TO.P,R66,1*%
%TO.N,+3.3V*%
X282500000Y-254490000D03*
%TO.P,R66,2*%
%TO.N,HALL_C2R6*%
X282500000Y-255510000D03*
%TD*%
%TO.P,R81,1*%
%TO.N,+3.3V*%
X432500000Y-284480000D03*
%TO.P,R81,2*%
%TO.N,HALL_C7R7*%
X432500000Y-285500000D03*
%TD*%
D11*
%TO.P,D61,1,K*%
%TO.N,LED_C3*%
X315787500Y-282250000D03*
%TO.P,D61,2,A*%
%TO.N,/R7TE*%
X314212500Y-282250000D03*
%TD*%
D23*
%TO.P,C8,1*%
%TO.N,+3.3V*%
X432880000Y-337520000D03*
%TO.P,C8,2*%
%TO.N,GND*%
X431920000Y-337520000D03*
%TD*%
D13*
%TO.P,C60,1*%
%TO.N,HALL_C6R5*%
X404540000Y-227500000D03*
%TO.P,C60,2*%
%TO.N,GND*%
X405500000Y-227500000D03*
%TD*%
D12*
%TO.P,R46,1*%
%TO.N,+3.3V*%
X312500000Y-194490000D03*
%TO.P,R46,2*%
%TO.N,HALL_C3R4*%
X312500000Y-195510000D03*
%TD*%
D13*
%TO.P,C66,1*%
%TO.N,HALL_C4R6*%
X344520000Y-257500000D03*
%TO.P,C66,2*%
%TO.N,GND*%
X345480000Y-257500000D03*
%TD*%
D11*
%TO.P,D57,1,K*%
%TO.N,LED_C7*%
X435787500Y-252250000D03*
%TO.P,D57,2,A*%
%TO.N,/R6TE*%
X434212500Y-252250000D03*
%TD*%
D13*
%TO.P,C29,1*%
%TO.N,HALL_C7R1*%
X434520000Y-107500000D03*
%TO.P,C29,2*%
%TO.N,GND*%
X435480000Y-107500000D03*
%TD*%
D15*
%TO.P,Q7,1,B*%
%TO.N,/R6TB*%
X215000000Y-255950000D03*
%TO.P,Q7,2,E*%
%TO.N,/R6TE*%
X215000000Y-254050000D03*
%TO.P,Q7,3,C*%
%TO.N,/R6TC*%
X213125000Y-255000000D03*
%TD*%
D10*
%TO.P,U70,1,VCC*%
%TO.N,+3.3V*%
X373800000Y-284050000D03*
%TO.P,U70,2,VOUT*%
%TO.N,HALL_C5R7*%
X373800000Y-285950000D03*
%TO.P,U70,3,GND*%
%TO.N,GND*%
X376200000Y-285000000D03*
%TD*%
%TO.P,U57,1,VCC*%
%TO.N,+3.3V*%
X253800000Y-254050000D03*
%TO.P,U57,2,VOUT*%
%TO.N,HALL_C1R6*%
X253800000Y-255950000D03*
%TO.P,U57,3,GND*%
%TO.N,GND*%
X256200000Y-255000000D03*
%TD*%
%TO.P,U72,1,VCC*%
%TO.N,+3.3V*%
X433800000Y-284050000D03*
%TO.P,U72,2,VOUT*%
%TO.N,HALL_C7R7*%
X433800000Y-285950000D03*
%TO.P,U72,3,GND*%
%TO.N,GND*%
X436200000Y-285000000D03*
%TD*%
%TO.P,U69,1,VCC*%
%TO.N,+3.3V*%
X343800000Y-284050000D03*
%TO.P,U69,2,VOUT*%
%TO.N,HALL_C4R7*%
X343800000Y-285950000D03*
%TO.P,U69,3,GND*%
%TO.N,GND*%
X346200000Y-285000000D03*
%TD*%
D13*
%TO.P,C52,1*%
%TO.N,HALL_C6R4*%
X404520000Y-197500000D03*
%TO.P,C52,2*%
%TO.N,GND*%
X405480000Y-197500000D03*
%TD*%
D20*
%TO.P,R51,1*%
%TO.N,+3.3V*%
X210480000Y-135000000D03*
%TO.P,R51,2*%
%TO.N,/R2TC*%
X211500000Y-135000000D03*
%TD*%
D12*
%TO.P,R78,1*%
%TO.N,+3.3V*%
X342500000Y-284490000D03*
%TO.P,R78,2*%
%TO.N,HALL_C4R7*%
X342500000Y-285510000D03*
%TD*%
D13*
%TO.P,C68,1*%
%TO.N,HALL_C6R6*%
X404540000Y-257500000D03*
%TO.P,C68,2*%
%TO.N,GND*%
X405500000Y-257500000D03*
%TD*%
D10*
%TO.P,U48,1,VCC*%
%TO.N,+3.3V*%
X223800000Y-224050000D03*
%TO.P,U48,2,VOUT*%
%TO.N,HALL_C0R5*%
X223800000Y-225950000D03*
%TO.P,U48,3,GND*%
%TO.N,GND*%
X226200000Y-225000000D03*
%TD*%
D20*
%TO.P,R63,1*%
%TO.N,+3.3V*%
X210480000Y-195000000D03*
%TO.P,R63,2*%
%TO.N,/R4TC*%
X211500000Y-195000000D03*
%TD*%
D13*
%TO.P,C19,1*%
%TO.N,HALL_C5R0*%
X374520000Y-77500000D03*
%TO.P,C19,2*%
%TO.N,GND*%
X375480000Y-77500000D03*
%TD*%
D11*
%TO.P,D51,1,K*%
%TO.N,LED_C1*%
X255787500Y-252250000D03*
%TO.P,D51,2,A*%
%TO.N,/R6TE*%
X254212500Y-252250000D03*
%TD*%
D13*
%TO.P,C57,1*%
%TO.N,HALL_C3R5*%
X314520000Y-227500000D03*
%TO.P,C57,2*%
%TO.N,GND*%
X315480000Y-227500000D03*
%TD*%
%TO.P,C22,1*%
%TO.N,HALL_C0R1*%
X224520000Y-107500000D03*
%TO.P,C22,2*%
%TO.N,GND*%
X225480000Y-107500000D03*
%TD*%
D10*
%TO.P,U51,1,VCC*%
%TO.N,+3.3V*%
X313800000Y-224050000D03*
%TO.P,U51,2,VOUT*%
%TO.N,HALL_C3R5*%
X313800000Y-225950000D03*
%TO.P,U51,3,GND*%
%TO.N,GND*%
X316200000Y-225000000D03*
%TD*%
D15*
%TO.P,Q6,1,B*%
%TO.N,/R5TB*%
X215000000Y-225950000D03*
%TO.P,Q6,2,E*%
%TO.N,/R5TE*%
X215000000Y-224050000D03*
%TO.P,Q6,3,C*%
%TO.N,/R5TC*%
X213125000Y-225000000D03*
%TD*%
D13*
%TO.P,C61,1*%
%TO.N,HALL_C7R5*%
X434540000Y-227500000D03*
%TO.P,C61,2*%
%TO.N,GND*%
X435500000Y-227500000D03*
%TD*%
D11*
%TO.P,D26,1,K*%
%TO.N,LED_C0*%
X225787500Y-162250000D03*
%TO.P,D26,2,A*%
%TO.N,/R3TE*%
X224212500Y-162250000D03*
%TD*%
D22*
%TO.P,C11,1*%
%TO.N,/NRST*%
X436800000Y-334840000D03*
%TO.P,C11,2*%
%TO.N,GND*%
X436800000Y-335800000D03*
%TD*%
D12*
%TO.P,R7,1*%
%TO.N,+3.3V*%
X222500000Y-74490000D03*
%TO.P,R7,2*%
%TO.N,HALL_C0R0*%
X222500000Y-75510000D03*
%TD*%
D34*
%TO.P,C9,1*%
%TO.N,VBUS*%
X449250000Y-334320000D03*
%TO.P,C9,2*%
%TO.N,GND*%
X451150000Y-334320000D03*
%TD*%
D13*
%TO.P,C38,1*%
%TO.N,HALL_C0R3*%
X224520000Y-167500000D03*
%TO.P,C38,2*%
%TO.N,GND*%
X225480000Y-167500000D03*
%TD*%
D11*
%TO.P,D52,1,K*%
%TO.N,LED_C2*%
X285787500Y-252250000D03*
%TO.P,D52,2,A*%
%TO.N,/R6TE*%
X284212500Y-252250000D03*
%TD*%
D12*
%TO.P,R21,1*%
%TO.N,+3.3V*%
X402500000Y-104490000D03*
%TO.P,R21,2*%
%TO.N,HALL_C6R1*%
X402500000Y-105510000D03*
%TD*%
%TO.P,R59,1*%
%TO.N,+3.3V*%
X372500000Y-224500000D03*
%TO.P,R59,2*%
%TO.N,HALL_C5R5*%
X372500000Y-225520000D03*
%TD*%
D13*
%TO.P,C62,1*%
%TO.N,HALL_C0R6*%
X224540000Y-257500000D03*
%TO.P,C62,2*%
%TO.N,GND*%
X225500000Y-257500000D03*
%TD*%
D12*
%TO.P,R10,1*%
%TO.N,+3.3V*%
X312500000Y-74490000D03*
%TO.P,R10,2*%
%TO.N,HALL_C3R0*%
X312500000Y-75510000D03*
%TD*%
D20*
%TO.P,R85,1*%
%TO.N,+3.3V*%
X210480000Y-285000000D03*
%TO.P,R85,2*%
%TO.N,/R7TC*%
X211500000Y-285000000D03*
%TD*%
D18*
%TO.P,U79,1,X4*%
%TO.N,HALL_C5R4*%
X372525000Y-295555000D03*
%TO.P,U79,2,X6*%
%TO.N,HALL_C5R6*%
X372525000Y-296825000D03*
%TO.P,U79,3,X*%
%TO.N,HALL_C5*%
X372525000Y-298095000D03*
%TO.P,U79,4,X7*%
%TO.N,HALL_C5R7*%
X372525000Y-299365000D03*
%TO.P,U79,5,X5*%
%TO.N,HALL_C5R5*%
X372525000Y-300635000D03*
%TO.P,U79,6,Inh*%
%TO.N,GND*%
X372525000Y-301905000D03*
%TO.P,U79,7,VEE*%
X372525000Y-303175000D03*
%TO.P,U79,8,VSS*%
X372525000Y-304445000D03*
%TO.P,U79,9,C*%
%TO.N,HALL_ROW_C*%
X377475000Y-304445000D03*
%TO.P,U79,10,B*%
%TO.N,HALL_ROW_B*%
X377475000Y-303175000D03*
%TO.P,U79,11,A*%
%TO.N,HALL_ROW_A*%
X377475000Y-301905000D03*
%TO.P,U79,12,X3*%
%TO.N,HALL_C5R3*%
X377475000Y-300635000D03*
%TO.P,U79,13,X0*%
%TO.N,HALL_C5R0*%
X377475000Y-299365000D03*
%TO.P,U79,14,X1*%
%TO.N,HALL_C5R1*%
X377475000Y-298095000D03*
%TO.P,U79,15,X2*%
%TO.N,HALL_C5R2*%
X377475000Y-296825000D03*
%TO.P,U79,16,VDD*%
%TO.N,+3.3V*%
X377475000Y-295555000D03*
%TD*%
D10*
%TO.P,U55,1,VCC*%
%TO.N,+3.3V*%
X433800000Y-224050000D03*
%TO.P,U55,2,VOUT*%
%TO.N,HALL_C7R5*%
X433800000Y-225950000D03*
%TO.P,U55,3,GND*%
%TO.N,GND*%
X436200000Y-225000000D03*
%TD*%
D11*
%TO.P,D60,1,K*%
%TO.N,LED_C2*%
X285787500Y-282250000D03*
%TO.P,D60,2,A*%
%TO.N,/R7TE*%
X284212500Y-282250000D03*
%TD*%
%TO.P,D1,1,K*%
%TO.N,/PWR_LED_K*%
X456487500Y-342120000D03*
%TO.P,D1,2,A*%
%TO.N,+3.3V*%
X454912500Y-342120000D03*
%TD*%
D13*
%TO.P,C7,1*%
%TO.N,+3.3VA*%
X434420000Y-337520000D03*
%TO.P,C7,2*%
%TO.N,GND*%
X435380000Y-337520000D03*
%TD*%
D12*
%TO.P,R52,1*%
%TO.N,/R2TB*%
X215500000Y-137490000D03*
%TO.P,R52,2*%
%TO.N,LED_R2*%
X215500000Y-138510000D03*
%TD*%
D11*
%TO.P,D15,1,K*%
%TO.N,LED_C5*%
X375787500Y-102250000D03*
%TO.P,D15,2,A*%
%TO.N,/R1TE*%
X374212500Y-102250000D03*
%TD*%
D30*
%TO.P,C3,1*%
%TO.N,+3.3V*%
X435450000Y-328337500D03*
%TO.P,C3,2*%
%TO.N,GND*%
X435450000Y-327377500D03*
%TD*%
D13*
%TO.P,C76,1*%
%TO.N,HALL_C6R7*%
X404520000Y-287500000D03*
%TO.P,C76,2*%
%TO.N,GND*%
X405480000Y-287500000D03*
%TD*%
D35*
%TO.P,U2,1,VBAT*%
%TO.N,+3.3V*%
X437037500Y-328357500D03*
%TO.P,U2,2,PC13*%
%TO.N,unconnected-(U2-PC13-Pad2)*%
X437037500Y-328857500D03*
%TO.P,U2,3,PC14*%
%TO.N,unconnected-(U2-PC14-Pad3)*%
X437037500Y-329357500D03*
%TO.P,U2,4,PC15*%
%TO.N,unconnected-(U2-PC15-Pad4)*%
X437037500Y-329857500D03*
%TO.P,U2,5,PD0*%
%TO.N,/HSE_IN*%
X437037500Y-330357500D03*
%TO.P,U2,6,PD1*%
%TO.N,/HSE_OUT*%
X437037500Y-330857500D03*
%TO.P,U2,7,NRST*%
%TO.N,/NRST*%
X437037500Y-331357500D03*
%TO.P,U2,8,VSSA*%
%TO.N,GND*%
X437037500Y-331857500D03*
%TO.P,U2,9,VDDA*%
%TO.N,+3.3VA*%
X437037500Y-332357500D03*
%TO.P,U2,10,PA0*%
%TO.N,unconnected-(U2-PA0-Pad10)*%
X437037500Y-332857500D03*
%TO.P,U2,11,PA1*%
%TO.N,unconnected-(U2-PA1-Pad11)*%
X437037500Y-333357500D03*
%TO.P,U2,12,PA2*%
%TO.N,unconnected-(U2-PA2-Pad12)*%
X437037500Y-333857500D03*
D36*
%TO.P,U2,13,PA3*%
%TO.N,GRID_SER_CLK*%
X438450000Y-335270000D03*
%TO.P,U2,14,PA4*%
%TO.N,GRID_LATCH*%
X438950000Y-335270000D03*
%TO.P,U2,15,PA5*%
%TO.N,GRID_SER_DATA*%
X439450000Y-335270000D03*
%TO.P,U2,16,PA6*%
%TO.N,unconnected-(U2-PA6-Pad16)*%
X439950000Y-335270000D03*
%TO.P,U2,17,PA7*%
%TO.N,LCD_SER_DATA*%
X440450000Y-335270000D03*
%TO.P,U2,18,PB0*%
%TO.N,LCD_LATCH*%
X440950000Y-335270000D03*
%TO.P,U2,19,PB1*%
%TO.N,LCD_SER_CLK*%
X441450000Y-335270000D03*
%TO.P,U2,20,PB2*%
%TO.N,LCD_RS*%
X441950000Y-335270000D03*
%TO.P,U2,21,PB10*%
%TO.N,unconnected-(U2-PB10-Pad21)*%
X442450000Y-335270000D03*
%TO.P,U2,22,PB11*%
%TO.N,unconnected-(U2-PB11-Pad22)*%
X442950000Y-335270000D03*
%TO.P,U2,23,VSS*%
%TO.N,GND*%
X443450000Y-335270000D03*
%TO.P,U2,24,VDD*%
%TO.N,+3.3V*%
X443950000Y-335270000D03*
D35*
%TO.P,U2,25,PB12*%
%TO.N,SELECTED_HALL*%
X445362500Y-333857500D03*
%TO.P,U2,26,PB13*%
%TO.N,BUTTON*%
X445362500Y-333357500D03*
%TO.P,U2,27,PB14*%
%TO.N,unconnected-(U2-PB14-Pad27)*%
X445362500Y-332857500D03*
%TO.P,U2,28,PB15*%
%TO.N,unconnected-(U2-PB15-Pad28)*%
X445362500Y-332357500D03*
%TO.P,U2,29,PA8*%
%TO.N,unconnected-(U2-PA8-Pad29)*%
X445362500Y-331857500D03*
%TO.P,U2,30,PA9*%
%TO.N,unconnected-(U2-PA9-Pad30)*%
X445362500Y-331357500D03*
%TO.P,U2,31,PA10*%
%TO.N,unconnected-(U2-PA10-Pad31)*%
X445362500Y-330857500D03*
%TO.P,U2,32,PA11*%
%TO.N,USB_D-*%
X445362500Y-330357500D03*
%TO.P,U2,33,PA12*%
%TO.N,USB_D+*%
X445362500Y-329857500D03*
%TO.P,U2,34,PA13*%
%TO.N,/SWDIO*%
X445362500Y-329357500D03*
%TO.P,U2,35,VSS*%
%TO.N,GND*%
X445362500Y-328857500D03*
%TO.P,U2,36,VDD*%
%TO.N,+3.3V*%
X445362500Y-328357500D03*
D36*
%TO.P,U2,37,PA14*%
%TO.N,/SWCLK*%
X443950000Y-326945000D03*
%TO.P,U2,38,PA15*%
%TO.N,unconnected-(U2-PA15-Pad38)*%
X443450000Y-326945000D03*
%TO.P,U2,39,PB3*%
%TO.N,unconnected-(U2-PB3-Pad39)*%
X442950000Y-326945000D03*
%TO.P,U2,40,PB4*%
%TO.N,unconnected-(U2-PB4-Pad40)*%
X442450000Y-326945000D03*
%TO.P,U2,41,PB5*%
%TO.N,unconnected-(U2-PB5-Pad41)*%
X441950000Y-326945000D03*
%TO.P,U2,42,PB6*%
%TO.N,unconnected-(U2-PB6-Pad42)*%
X441450000Y-326945000D03*
%TO.P,U2,43,PB7*%
%TO.N,unconnected-(U2-PB7-Pad43)*%
X440950000Y-326945000D03*
%TO.P,U2,44,BOOT0*%
%TO.N,/BOOT0*%
X440450000Y-326945000D03*
%TO.P,U2,45,PB8*%
%TO.N,unconnected-(U2-PB8-Pad45)*%
X439950000Y-326945000D03*
%TO.P,U2,46,PB9*%
%TO.N,unconnected-(U2-PB9-Pad46)*%
X439450000Y-326945000D03*
%TO.P,U2,47,VSS*%
%TO.N,GND*%
X438950000Y-326945000D03*
%TO.P,U2,48,VDD*%
%TO.N,+3.3V*%
X438450000Y-326945000D03*
%TD*%
D10*
%TO.P,U42,1,VCC*%
%TO.N,+3.3V*%
X313800000Y-194050000D03*
%TO.P,U42,2,VOUT*%
%TO.N,HALL_C3R4*%
X313800000Y-195950000D03*
%TO.P,U42,3,GND*%
%TO.N,GND*%
X316200000Y-195000000D03*
%TD*%
D11*
%TO.P,D31,1,K*%
%TO.N,LED_C5*%
X375787500Y-162250000D03*
%TO.P,D31,2,A*%
%TO.N,/R3TE*%
X374212500Y-162250000D03*
%TD*%
D12*
%TO.P,R11,1*%
%TO.N,+3.3V*%
X342500000Y-74500000D03*
%TO.P,R11,2*%
%TO.N,HALL_C4R0*%
X342500000Y-75520000D03*
%TD*%
%TO.P,R54,1*%
%TO.N,+3.3V*%
X222500000Y-224490000D03*
%TO.P,R54,2*%
%TO.N,HALL_C0R5*%
X222500000Y-225510000D03*
%TD*%
D10*
%TO.P,U62,1,VCC*%
%TO.N,+3.3V*%
X403800000Y-254050000D03*
%TO.P,U62,2,VOUT*%
%TO.N,HALL_C6R6*%
X403800000Y-255950000D03*
%TO.P,U62,3,GND*%
%TO.N,GND*%
X406200000Y-255000000D03*
%TD*%
D12*
%TO.P,R64,1*%
%TO.N,+3.3V*%
X222500000Y-254490000D03*
%TO.P,R64,2*%
%TO.N,HALL_C0R6*%
X222500000Y-255510000D03*
%TD*%
%TO.P,R71,1*%
%TO.N,+3.3V*%
X432500000Y-254490000D03*
%TO.P,R71,2*%
%TO.N,HALL_C7R6*%
X432500000Y-255510000D03*
%TD*%
%TO.P,R56,1*%
%TO.N,+3.3V*%
X282500000Y-224490000D03*
%TO.P,R56,2*%
%TO.N,HALL_C2R5*%
X282500000Y-225510000D03*
%TD*%
%TO.P,R37,1*%
%TO.N,+3.3V*%
X342500000Y-164490000D03*
%TO.P,R37,2*%
%TO.N,HALL_C4R3*%
X342500000Y-165510000D03*
%TD*%
D37*
%TO.P,RV1,1,1*%
%TO.N,GND*%
X283200000Y-344000000D03*
D38*
%TO.P,RV1,2,2*%
%TO.N,/CONT_1*%
X286450000Y-345000000D03*
D37*
%TO.P,RV1,3,3*%
%TO.N,VBUS*%
X283200000Y-346000000D03*
%TD*%
D11*
%TO.P,D58,1,K*%
%TO.N,LED_C0*%
X225787500Y-282250000D03*
%TO.P,D58,2,A*%
%TO.N,/R7TE*%
X224212500Y-282250000D03*
%TD*%
D15*
%TO.P,Q4,1,B*%
%TO.N,/R3TB*%
X215000000Y-165950000D03*
%TO.P,Q4,2,E*%
%TO.N,/R3TE*%
X215000000Y-164050000D03*
%TO.P,Q4,3,C*%
%TO.N,/R3TC*%
X213125000Y-165000000D03*
%TD*%
D10*
%TO.P,U33,1,VCC*%
%TO.N,+3.3V*%
X283800000Y-164050000D03*
%TO.P,U33,2,VOUT*%
%TO.N,HALL_C2R3*%
X283800000Y-165950000D03*
%TO.P,U33,3,GND*%
%TO.N,GND*%
X286200000Y-165000000D03*
%TD*%
%TO.P,U34,1,VCC*%
%TO.N,+3.3V*%
X313800000Y-164050000D03*
%TO.P,U34,2,VOUT*%
%TO.N,HALL_C3R3*%
X313800000Y-165950000D03*
%TO.P,U34,3,GND*%
%TO.N,GND*%
X316200000Y-165000000D03*
%TD*%
%TO.P,U39,1,VCC*%
%TO.N,+3.3V*%
X223800000Y-194050000D03*
%TO.P,U39,2,VOUT*%
%TO.N,HALL_C0R4*%
X223800000Y-195950000D03*
%TO.P,U39,3,GND*%
%TO.N,GND*%
X226200000Y-195000000D03*
%TD*%
D20*
%TO.P,R4,1*%
%TO.N,GND*%
X457740000Y-323500000D03*
%TO.P,R4,2*%
%TO.N,/USB_CC2*%
X458760000Y-323500000D03*
%TD*%
D10*
%TO.P,U23,1,VCC*%
%TO.N,+3.3V*%
X223800000Y-134050000D03*
%TO.P,U23,2,VOUT*%
%TO.N,HALL_C0R2*%
X223800000Y-135950000D03*
%TO.P,U23,3,GND*%
%TO.N,GND*%
X226200000Y-135000000D03*
%TD*%
D39*
%TO.P,J1,A1,GND*%
%TO.N,GND*%
X457850000Y-333220000D03*
%TO.P,J1,A4,VBUS*%
%TO.N,VBUS*%
X457850000Y-332420000D03*
D40*
%TO.P,J1,A5,CC1*%
%TO.N,/USB_CC1*%
X457850000Y-331270000D03*
%TO.P,J1,A6,D+*%
%TO.N,USB_CON_D+*%
X457850000Y-330270000D03*
%TO.P,J1,A7,D-*%
%TO.N,USB_CON_D-*%
X457850000Y-329770000D03*
%TO.P,J1,A8,SBU1*%
%TO.N,unconnected-(J1-SBU1-PadA8)*%
X457850000Y-328770000D03*
D39*
%TO.P,J1,A9,VBUS*%
%TO.N,VBUS*%
X457850000Y-327620000D03*
%TO.P,J1,A12,GND*%
%TO.N,GND*%
X457850000Y-326820000D03*
%TO.P,J1,B1,GND*%
X457850000Y-326820000D03*
%TO.P,J1,B4,VBUS*%
%TO.N,VBUS*%
X457850000Y-327620000D03*
D40*
%TO.P,J1,B5,CC2*%
%TO.N,/USB_CC2*%
X457850000Y-328270000D03*
%TO.P,J1,B6,D+*%
%TO.N,USB_CON_D+*%
X457850000Y-329270000D03*
%TO.P,J1,B7,D-*%
%TO.N,USB_CON_D-*%
X457850000Y-330770000D03*
%TO.P,J1,B8,SBU2*%
%TO.N,unconnected-(J1-SBU2-PadB8)*%
X457850000Y-331770000D03*
D39*
%TO.P,J1,B9,VBUS*%
%TO.N,VBUS*%
X457850000Y-332420000D03*
%TO.P,J1,B12,GND*%
%TO.N,GND*%
X457850000Y-333220000D03*
D41*
%TO.P,J1,S1,SHIELD*%
%TO.N,unconnected-(J1-SHIELD-PadS1)*%
X459000000Y-334340000D03*
D42*
X463000000Y-334340000D03*
D41*
X459000000Y-325700000D03*
D42*
X463000000Y-325700000D03*
%TD*%
D43*
%TO.P,U3,1,I/O1*%
%TO.N,USB_CON_D-*%
X455300000Y-331020000D03*
%TO.P,U3,2,GND*%
%TO.N,GND*%
X455300000Y-330070000D03*
%TO.P,U3,3,I/O2*%
%TO.N,USB_CON_D+*%
X455300000Y-329120000D03*
%TO.P,U3,4,I/O2*%
%TO.N,USB_D+*%
X453025000Y-329120000D03*
%TO.P,U3,5,VBUS*%
%TO.N,VBUS*%
X453025000Y-330070000D03*
%TO.P,U3,6,I/O1*%
%TO.N,USB_D-*%
X453025000Y-331020000D03*
%TD*%
D13*
%TO.P,C73,1*%
%TO.N,HALL_C3R7*%
X314520000Y-287500000D03*
%TO.P,C73,2*%
%TO.N,GND*%
X315480000Y-287500000D03*
%TD*%
D44*
%TO.N,+3.3V*%
X296369267Y-303430733D03*
X218600000Y-280200000D03*
X339000000Y-252074500D03*
X369000000Y-250775500D03*
X230407575Y-318607574D03*
X295000000Y-310349500D03*
X444087181Y-339687181D03*
X237520320Y-321920320D03*
X409949500Y-320600000D03*
X429000000Y-250775500D03*
X227000000Y-308600000D03*
X399000000Y-252084500D03*
X339000000Y-250775500D03*
X218600000Y-282074500D03*
X408150500Y-320600000D03*
X230433214Y-321833212D03*
X369000000Y-252084500D03*
X235701788Y-321901786D03*
X445259266Y-341059266D03*
X399000000Y-250775500D03*
X429000000Y-252074500D03*
X225800000Y-307250500D03*
D45*
%TO.N,GND*%
X435000000Y-75000000D03*
X376500000Y-77500000D03*
X436500000Y-137500000D03*
X405000000Y-165000000D03*
X375000000Y-105000000D03*
D44*
X224000000Y-304400000D03*
D45*
X405000000Y-195000000D03*
D44*
X402600000Y-335200000D03*
D45*
X286500000Y-137500000D03*
X376500000Y-257500000D03*
X435000000Y-255000000D03*
X375000000Y-285000000D03*
X375000000Y-165000000D03*
X406500000Y-167500000D03*
D44*
X452000000Y-334400000D03*
X459600000Y-342200000D03*
D45*
X405000000Y-75000000D03*
X226500000Y-167500000D03*
D44*
X221000000Y-319400000D03*
D45*
X406500000Y-77500000D03*
X226500000Y-137500000D03*
X435000000Y-225000000D03*
X255000000Y-285000000D03*
D44*
X432450000Y-328477500D03*
D45*
X436500000Y-77500000D03*
X435000000Y-105000000D03*
X285000000Y-75000000D03*
X345000000Y-255000000D03*
X255000000Y-195000000D03*
D44*
X341000000Y-302000000D03*
D45*
X376500000Y-287500000D03*
D44*
X371000000Y-304400000D03*
X401000000Y-302000000D03*
D45*
X286500000Y-287500000D03*
D44*
X224000000Y-301800000D03*
D45*
X285000000Y-165000000D03*
X375000000Y-135000000D03*
X256500000Y-77500000D03*
X226500000Y-287500000D03*
D44*
X457410000Y-336540000D03*
X311000000Y-303200000D03*
D45*
X316500000Y-167500000D03*
D44*
X443200000Y-337600000D03*
X401000000Y-303200000D03*
D45*
X345000000Y-135000000D03*
X255000000Y-105000000D03*
X315000000Y-285000000D03*
X406500000Y-137500000D03*
D44*
X371000000Y-302000000D03*
D45*
X316500000Y-197500000D03*
X406500000Y-107500000D03*
X346500000Y-107500000D03*
X286500000Y-227500000D03*
D44*
X281000000Y-303200000D03*
D45*
X316500000Y-287500000D03*
X225000000Y-165000000D03*
X225000000Y-195000000D03*
X315000000Y-255000000D03*
X225000000Y-225000000D03*
D44*
X456910000Y-323470000D03*
D45*
X286500000Y-77500000D03*
X436500000Y-287500000D03*
X286500000Y-167500000D03*
X256500000Y-287500000D03*
X256500000Y-107500000D03*
D44*
X440350000Y-323877500D03*
D45*
X345000000Y-225000000D03*
X315000000Y-75000000D03*
X405000000Y-285000000D03*
X285000000Y-105000000D03*
X345000000Y-285000000D03*
X226500000Y-77500000D03*
X316500000Y-137500000D03*
X346500000Y-77500000D03*
X435000000Y-165000000D03*
X375000000Y-195000000D03*
X285000000Y-195000000D03*
X255000000Y-255000000D03*
X376500000Y-167500000D03*
X346500000Y-197500000D03*
X255000000Y-165000000D03*
X225000000Y-105000000D03*
X346500000Y-287500000D03*
D44*
X456662500Y-330070000D03*
X436250000Y-327377500D03*
X251000000Y-303200000D03*
D45*
X405000000Y-255000000D03*
X226500000Y-107500000D03*
X436500000Y-227500000D03*
X436500000Y-257500000D03*
X285000000Y-285000000D03*
D44*
X221000000Y-318200000D03*
D45*
X406500000Y-287500000D03*
X346500000Y-167500000D03*
X406500000Y-197500000D03*
X225000000Y-285000000D03*
X346500000Y-137500000D03*
D44*
X452400000Y-338100000D03*
D45*
X316500000Y-227500000D03*
D44*
X453400000Y-338100000D03*
X221200000Y-334000000D03*
D45*
X345000000Y-105000000D03*
D44*
X401000000Y-304400000D03*
D45*
X286500000Y-257500000D03*
D44*
X284000000Y-333200000D03*
D45*
X256500000Y-257500000D03*
X285000000Y-135000000D03*
X285000000Y-255000000D03*
X255000000Y-75000000D03*
X316500000Y-257500000D03*
D44*
X431000000Y-304400000D03*
D45*
X345000000Y-195000000D03*
D44*
X379859266Y-331340734D03*
X456690000Y-333240000D03*
X435450000Y-338177500D03*
D45*
X256500000Y-227500000D03*
X435000000Y-195000000D03*
X376500000Y-107500000D03*
D44*
X437450000Y-335777500D03*
X221000000Y-317000000D03*
D45*
X256500000Y-167500000D03*
X346500000Y-257500000D03*
X346500000Y-227500000D03*
D44*
X429450000Y-332377500D03*
X456710000Y-326820000D03*
D45*
X226500000Y-197500000D03*
D44*
X224200000Y-328000000D03*
X284000000Y-331800000D03*
X401000000Y-319400000D03*
X434710179Y-332157214D03*
X311000000Y-302000000D03*
X281000000Y-304400000D03*
D45*
X376500000Y-197500000D03*
X225000000Y-255000000D03*
X255000000Y-135000000D03*
D44*
X281000000Y-301800000D03*
X433150000Y-332577500D03*
D45*
X315000000Y-135000000D03*
D44*
X224000000Y-303200000D03*
D45*
X256500000Y-137500000D03*
X315000000Y-105000000D03*
X375000000Y-225000000D03*
D44*
X431000000Y-302000000D03*
D45*
X405000000Y-135000000D03*
D44*
X431850000Y-338177500D03*
D45*
X316500000Y-107500000D03*
X376500000Y-137500000D03*
D44*
X251000000Y-304400000D03*
D45*
X375000000Y-75000000D03*
X285000000Y-225000000D03*
X315000000Y-165000000D03*
X226500000Y-227500000D03*
D44*
X370800000Y-334400000D03*
X371000000Y-303200000D03*
D45*
X255000000Y-225000000D03*
X286500000Y-197500000D03*
X286500000Y-107500000D03*
D44*
X454900000Y-337600000D03*
D45*
X436500000Y-197500000D03*
X345000000Y-165000000D03*
D44*
X284000000Y-334400000D03*
X431000000Y-303200000D03*
X406000000Y-329000000D03*
X405800000Y-314400000D03*
D45*
X315000000Y-195000000D03*
D44*
X341200000Y-304400000D03*
D45*
X405000000Y-105000000D03*
D44*
X311000000Y-304400000D03*
D45*
X436500000Y-167500000D03*
X376500000Y-227500000D03*
X226500000Y-257500000D03*
D44*
X447650000Y-329277500D03*
D45*
X225000000Y-75000000D03*
X316500000Y-77500000D03*
X406500000Y-227500000D03*
D44*
X221200000Y-333200000D03*
X282000000Y-344000000D03*
D45*
X435000000Y-135000000D03*
X435000000Y-285000000D03*
D44*
X251000000Y-302000000D03*
X341000000Y-303200000D03*
D45*
X436500000Y-107500000D03*
X256500000Y-197500000D03*
X345000000Y-75000000D03*
D44*
X431350000Y-328077500D03*
D45*
X405000000Y-225000000D03*
X406500000Y-257500000D03*
X315000000Y-225000000D03*
X375000000Y-255000000D03*
D44*
X432450000Y-326977500D03*
D45*
X225000000Y-135000000D03*
D44*
%TO.N,VBUS*%
X375800000Y-333200000D03*
X447029977Y-341770023D03*
X289200000Y-348750500D03*
X289200000Y-350049500D03*
X445970023Y-342829977D03*
X375200000Y-344749000D03*
X379855319Y-329144679D03*
%TO.N,HALL_C0R0*%
X228000000Y-79000000D03*
X230000000Y-299000000D03*
%TO.N,HALL_C1R0*%
X258025000Y-79000000D03*
X260025000Y-299000000D03*
%TO.N,HALL_C2R0*%
X290025000Y-299000000D03*
X288025000Y-79000000D03*
%TO.N,HALL_C3R0*%
X320025000Y-299000000D03*
X318025000Y-79000000D03*
%TO.N,HALL_C4R0*%
X350025000Y-299000000D03*
X348025000Y-79000000D03*
%TO.N,HALL_C5R0*%
X380025000Y-299000000D03*
X378025000Y-79000000D03*
%TO.N,HALL_C6R0*%
X408050000Y-79000000D03*
X410050000Y-299000000D03*
%TO.N,HALL_C7R0*%
X438025000Y-79000000D03*
X440025000Y-299000000D03*
%TO.N,HALL_C0R1*%
X229709266Y-297790734D03*
X228649500Y-109000000D03*
%TO.N,HALL_C1R1*%
X258674500Y-109000000D03*
X259734266Y-297790734D03*
%TO.N,HALL_C2R1*%
X289734266Y-297790734D03*
X288674500Y-109000000D03*
%TO.N,HALL_C3R1*%
X319734266Y-297790734D03*
X318674500Y-109000000D03*
%TO.N,HALL_C4R1*%
X349734266Y-297790734D03*
X348674500Y-109000000D03*
%TO.N,HALL_C5R1*%
X379734266Y-297790734D03*
X378674500Y-109000000D03*
%TO.N,HALL_C6R1*%
X408699500Y-109000000D03*
X409759266Y-297790734D03*
%TO.N,HALL_C7R1*%
X439734266Y-297790734D03*
X438674500Y-109000000D03*
%TO.N,HALL_C0R2*%
X229500000Y-296500000D03*
X229149500Y-139000000D03*
%TO.N,HALL_C1R2*%
X259525000Y-296500000D03*
X259174500Y-139000000D03*
%TO.N,HALL_C2R2*%
X289174500Y-139000000D03*
X289525000Y-296500000D03*
%TO.N,HALL_C3R2*%
X319174500Y-139000000D03*
X319525000Y-296500000D03*
%TO.N,HALL_C4R2*%
X349525000Y-296500000D03*
X349174500Y-139000000D03*
%TO.N,HALL_C5R2*%
X379525000Y-296500000D03*
X379174500Y-139000000D03*
%TO.N,HALL_C6R2*%
X409550000Y-296500000D03*
X409199500Y-139000000D03*
%TO.N,HALL_C7R2*%
X439174500Y-139000000D03*
X439525000Y-296500000D03*
%TO.N,HALL_C0R3*%
X231000000Y-300000000D03*
X229649500Y-169000000D03*
%TO.N,HALL_C1R3*%
X261025000Y-300000000D03*
X259674500Y-169000000D03*
%TO.N,HALL_C2R3*%
X291025000Y-300000000D03*
X289674500Y-169000000D03*
%TO.N,HALL_C3R3*%
X319674500Y-169000000D03*
X321025000Y-300000000D03*
%TO.N,HALL_C4R3*%
X349674500Y-169000000D03*
X351025000Y-300000000D03*
%TO.N,HALL_C5R3*%
X379674500Y-169000000D03*
X381025000Y-300000000D03*
%TO.N,HALL_C6R3*%
X411050000Y-300000000D03*
X409699500Y-169000000D03*
%TO.N,HALL_C7R3*%
X441025000Y-300000000D03*
X439674500Y-169000000D03*
%TO.N,HALL_C0R4*%
X221700000Y-294600000D03*
X221000000Y-199000000D03*
%TO.N,HALL_C1R4*%
X251025000Y-199000000D03*
X251725000Y-294600000D03*
%TO.N,HALL_C2R4*%
X281025000Y-199000000D03*
X281725000Y-294600000D03*
%TO.N,HALL_C3R4*%
X311725000Y-294600000D03*
X311025000Y-199000000D03*
%TO.N,HALL_C4R4*%
X341725000Y-294600000D03*
X341025000Y-199000000D03*
%TO.N,HALL_C5R4*%
X371025000Y-199000000D03*
X371725000Y-294600000D03*
%TO.N,HALL_C6R4*%
X401050000Y-199000000D03*
X401750000Y-294600000D03*
%TO.N,HALL_C7R4*%
X431025000Y-199000000D03*
X431725000Y-294600000D03*
%TO.N,HALL_C0R5*%
X220900000Y-300400000D03*
X220350500Y-229000000D03*
%TO.N,HALL_C1R5*%
X250925000Y-300400000D03*
X250375500Y-229000000D03*
%TO.N,HALL_C2R5*%
X280375500Y-229000000D03*
X280925000Y-300400000D03*
%TO.N,HALL_C3R5*%
X310375500Y-229000000D03*
X310925000Y-300400000D03*
%TO.N,HALL_C4R5*%
X340375500Y-229000000D03*
X340925000Y-300400000D03*
%TO.N,HALL_C5R5*%
X370375500Y-229000000D03*
X370925000Y-300400000D03*
%TO.N,HALL_C6R5*%
X400950000Y-300400000D03*
X400400500Y-229000000D03*
%TO.N,HALL_C7R5*%
X430925000Y-300400000D03*
X430375500Y-229000000D03*
%TO.N,HALL_C0R6*%
X219850500Y-296300000D03*
X219850500Y-259000000D03*
%TO.N,HALL_C1R6*%
X249875500Y-296300000D03*
X249875500Y-259000000D03*
%TO.N,HALL_C2R6*%
X279875500Y-259000000D03*
X279875500Y-296300000D03*
%TO.N,HALL_C3R6*%
X309875500Y-259000000D03*
X309875500Y-296300000D03*
%TO.N,HALL_C4R6*%
X339875500Y-296300000D03*
X339875500Y-259000000D03*
%TO.N,HALL_C5R6*%
X369875500Y-259000000D03*
X369875500Y-296300000D03*
%TO.N,HALL_C6R6*%
X399900500Y-296300000D03*
X399900500Y-259000000D03*
%TO.N,HALL_C7R6*%
X429875500Y-296300000D03*
X429875500Y-259000000D03*
%TO.N,LED_C0*%
X231300000Y-132300000D03*
X231350000Y-284799500D03*
X231300000Y-192300000D03*
X231300000Y-102300000D03*
X238200000Y-308549500D03*
X231300000Y-222300000D03*
X231300000Y-162300000D03*
X231300000Y-282250000D03*
X231300000Y-252300000D03*
X238234266Y-305315734D03*
X231300000Y-72300000D03*
%TO.N,LED_C1*%
X261300000Y-192300000D03*
X239050000Y-308549500D03*
X261300000Y-102300000D03*
X261300000Y-72300000D03*
X261300000Y-132300000D03*
X261300000Y-282250000D03*
X239033012Y-305350500D03*
X248600000Y-283300500D03*
X261300000Y-222300000D03*
X261300000Y-252300000D03*
X261300000Y-162300000D03*
X248600000Y-284799500D03*
%TO.N,LED_C2*%
X256750000Y-306601000D03*
X277150000Y-305355500D03*
X279050000Y-284799500D03*
X291300000Y-282250000D03*
X291300000Y-132300000D03*
X291300000Y-192300000D03*
X291300000Y-72300000D03*
X291300000Y-102300000D03*
X291300000Y-252300000D03*
X291300000Y-222300000D03*
X291300000Y-162300000D03*
X277150000Y-307654500D03*
X256750000Y-308549500D03*
X279100000Y-283300500D03*
%TO.N,LED_C3*%
X321300000Y-222300000D03*
X309200000Y-283300500D03*
X321300000Y-132300000D03*
X296893628Y-307206372D03*
X321300000Y-252300000D03*
X309200000Y-284799500D03*
X321300000Y-72300000D03*
X321300000Y-282250000D03*
X268315984Y-317884016D03*
X321300000Y-102300000D03*
X297619266Y-304680734D03*
X269600000Y-316600000D03*
X321300000Y-162300000D03*
X321300000Y-192300000D03*
%TO.N,LED_C4*%
X351300000Y-192300000D03*
X351300000Y-72300000D03*
X351300000Y-222300000D03*
X351300000Y-162300000D03*
X351300000Y-102300000D03*
X351300000Y-132300000D03*
X211229500Y-279150000D03*
X351300000Y-282250000D03*
X351300000Y-252300000D03*
X218400000Y-325550000D03*
%TO.N,LED_C5*%
X381300000Y-192300000D03*
X381300000Y-282250000D03*
X211879000Y-279826452D03*
X219100000Y-330650000D03*
X381300000Y-162300000D03*
X381300000Y-102300000D03*
X381300000Y-132300000D03*
X381300000Y-72300000D03*
X381300000Y-222300000D03*
X381300000Y-252300000D03*
%TO.N,LED_C6*%
X219749500Y-326850000D03*
X411300000Y-252300000D03*
X411300000Y-282250000D03*
X411300000Y-162300000D03*
X411300000Y-192300000D03*
X411300000Y-132300000D03*
X411300000Y-222300000D03*
X411300000Y-102300000D03*
X411300000Y-72300000D03*
X212487519Y-280345016D03*
%TO.N,LED_C7*%
X441300000Y-162300000D03*
X220350000Y-329350000D03*
X441300000Y-252300000D03*
X441300000Y-72300000D03*
X441300000Y-132300000D03*
X441300000Y-102300000D03*
X213200000Y-280800000D03*
X441300000Y-222300000D03*
X441300000Y-192300000D03*
X441300000Y-282250000D03*
%TO.N,/CONT_1*%
X291200000Y-331255500D03*
X291200000Y-342099000D03*
%TO.N,LED_R0*%
X215500000Y-79400000D03*
X225100000Y-313600000D03*
%TO.N,LED_R1*%
X225900000Y-313100000D03*
X216149500Y-109900000D03*
%TO.N,LED_R2*%
X225900000Y-311825000D03*
X216649500Y-139900000D03*
%TO.N,LED_R3*%
X217149500Y-170000000D03*
X225900000Y-315600000D03*
%TO.N,LED_R4*%
X220690734Y-310109266D03*
X214850500Y-199400000D03*
%TO.N,LED_R5*%
X220900000Y-315600000D03*
X214350500Y-229300000D03*
%TO.N,LED_R6*%
X220827816Y-311825000D03*
X213850500Y-259600000D03*
%TO.N,LCD_RS*%
X335200000Y-335650500D03*
X335200000Y-341449500D03*
%TO.N,LCD_LATCH*%
X380600000Y-341449500D03*
X380440734Y-332840734D03*
%TO.N,SELECTED_HALL*%
X280200000Y-341449500D03*
X280200000Y-337150500D03*
%TO.N,GRID_LATCH*%
X405800000Y-330600000D03*
X404200000Y-324255500D03*
%TO.N,LED_ROW_B*%
X395159266Y-333359266D03*
X394240734Y-332440734D03*
%TO.N,LED_COL_A*%
X233800000Y-337150500D03*
X233800000Y-339449500D03*
%TO.N,LED_COL_B*%
X233000000Y-337150500D03*
X233000000Y-339449500D03*
%TO.N,LED_COL_C*%
X231600000Y-339449500D03*
X231600000Y-337150500D03*
%TO.N,DISABLE_LEDS*%
X224400000Y-339449500D03*
X224400000Y-337150500D03*
%TO.N,LED_ROW_A*%
X394481468Y-331281468D03*
X395859266Y-332659266D03*
%TO.N,HALL_ROW_B*%
X400810000Y-310555000D03*
X398800000Y-306400000D03*
%TO.N,HALL_ROW_C*%
X398200000Y-309849500D03*
X398200000Y-307000000D03*
%TO.N,HALL_ROW_A*%
X400200000Y-309849500D03*
X399600000Y-305800000D03*
%TO.N,HALL_C4*%
X328319266Y-305355500D03*
X324700000Y-308849500D03*
%TO.N,HALL_C6*%
X386693628Y-307006372D03*
X388300000Y-305355500D03*
%TO.N,HALL_C7*%
X416693628Y-307006372D03*
X418319266Y-305355500D03*
%TO.N,HALL_C5*%
X356643628Y-306956372D03*
X279550500Y-330600000D03*
X281000000Y-330600000D03*
X358269266Y-305330734D03*
%TO.N,HALL_C3*%
X298337819Y-305355500D03*
X298100000Y-310349500D03*
%TO.N,HALL_C0*%
X278800000Y-329400000D03*
X284400000Y-329400000D03*
%TO.N,HALL_C1*%
X255600000Y-307250500D03*
X285200000Y-328000000D03*
X278800000Y-328000000D03*
X250200000Y-305350500D03*
%TO.N,HALL_C2*%
X285249500Y-326800000D03*
X278400000Y-305355500D03*
X278400000Y-308800000D03*
X278901000Y-326800000D03*
%TO.N,BUTTON*%
X251000000Y-336000000D03*
X251000000Y-341449500D03*
%TO.N,LCD_SER_DATA*%
X381006068Y-332275400D03*
X381399503Y-341449500D03*
%TO.N,LCD_SER_CLK*%
X379800000Y-341449500D03*
X379800000Y-333400000D03*
%TO.N,/LCD1_D0*%
X379000000Y-326800000D03*
X370800000Y-327474500D03*
%TO.N,/LCD1_D1*%
X321519266Y-317280734D03*
%TO.N,USB_CON_D+*%
X459332227Y-328970500D03*
X459330000Y-330270000D03*
%TD*%
D46*
%TO.N,+3.3V*%
X223800000Y-134050000D02*
X433800000Y-134050000D01*
X223800000Y-254050000D02*
X340000000Y-254050000D01*
X410133972Y-338927500D02*
X432825000Y-338927500D01*
X402940000Y-284050000D02*
X402500000Y-284490000D01*
X402940000Y-134050000D02*
X402500000Y-134490000D01*
X252940000Y-134050000D02*
X252500000Y-134490000D01*
X437000000Y-164050000D02*
X433800000Y-164050000D01*
X289640661Y-295555000D02*
X287475000Y-295555000D01*
X230407575Y-312934047D02*
X230407575Y-318607574D01*
X342940000Y-284050000D02*
X342500000Y-284490000D01*
X403800000Y-74050000D02*
X402940000Y-74050000D01*
X461565000Y-248615000D02*
X437000000Y-224050000D01*
X230433214Y-322596786D02*
X227475000Y-325555000D01*
D47*
X438250000Y-325367500D02*
X438240000Y-325357500D01*
D46*
X461450000Y-337050000D02*
X458030000Y-340470000D01*
X429550000Y-326207500D02*
X430652500Y-327310000D01*
X343800000Y-194050000D02*
X342940000Y-194050000D01*
X461565000Y-158615000D02*
X437000000Y-134050000D01*
X445259266Y-341059266D02*
X447170000Y-342970000D01*
X282940000Y-254050000D02*
X282500000Y-254490000D01*
X342940000Y-164050000D02*
X342500000Y-164490000D01*
X221025500Y-284500000D02*
X218600000Y-282074500D01*
X432940000Y-254050000D02*
X432500000Y-254490000D01*
X222940000Y-134050000D02*
X222500000Y-134490000D01*
X439640661Y-295555000D02*
X461565000Y-317479339D01*
X287475000Y-325555000D02*
X287475000Y-317268183D01*
X296369267Y-303430733D02*
X296369267Y-302283606D01*
X253800000Y-104050000D02*
X252940000Y-104050000D01*
X313800000Y-254050000D02*
X312940000Y-254050000D01*
X461565000Y-188615000D02*
X437000000Y-164050000D01*
X210480000Y-284872685D02*
X215152685Y-280200000D01*
X432940000Y-284050000D02*
X432500000Y-284490000D01*
X253800000Y-134050000D02*
X252940000Y-134050000D01*
X431721839Y-327310000D02*
X432139339Y-327727500D01*
X459650000Y-322500000D02*
X455537500Y-322500000D01*
X227400000Y-284050000D02*
X257400000Y-284050000D01*
X408028528Y-310555000D02*
X407475000Y-310555000D01*
X283800000Y-224050000D02*
X282940000Y-224050000D01*
X230433214Y-321833212D02*
X230501788Y-321901786D01*
X432880000Y-337335614D02*
X428200000Y-332655614D01*
X461450000Y-324300000D02*
X459650000Y-322500000D01*
X340000000Y-254050000D02*
X340000000Y-253074500D01*
X226109339Y-310555000D02*
X223569339Y-313095000D01*
X347475000Y-284125000D02*
X347400000Y-284050000D01*
X437000000Y-224050000D02*
X433800000Y-224050000D01*
X433800000Y-194050000D02*
X432940000Y-194050000D01*
X223800000Y-284050000D02*
X222940000Y-284050000D01*
X406921472Y-318175000D02*
X407475000Y-318175000D01*
X409949500Y-320600000D02*
X409949500Y-312475972D01*
X403800000Y-194050000D02*
X402940000Y-194050000D01*
X403800000Y-104050000D02*
X402940000Y-104050000D01*
X342940000Y-74050000D02*
X342500000Y-74490000D01*
X222940000Y-74050000D02*
X222500000Y-74490000D01*
X406050000Y-334843528D02*
X410133972Y-338927500D01*
X253800000Y-254050000D02*
X252940000Y-254050000D01*
D47*
X445362500Y-328357500D02*
X446070000Y-328357500D01*
D46*
X283800000Y-74050000D02*
X282940000Y-74050000D01*
X253800000Y-194050000D02*
X252940000Y-194050000D01*
D47*
X446300000Y-328127500D02*
X446950000Y-328127500D01*
D46*
X294393683Y-310349500D02*
X295000000Y-310349500D01*
X447170000Y-342970000D02*
X450200000Y-342970000D01*
X461450000Y-324300000D02*
X461450000Y-317594339D01*
X433800000Y-164050000D02*
X223800000Y-164050000D01*
X313800000Y-74050000D02*
X312940000Y-74050000D01*
X227000000Y-310080000D02*
X227475000Y-310555000D01*
X222940000Y-164050000D02*
X222500000Y-164490000D01*
X433800000Y-134050000D02*
X432940000Y-134050000D01*
X227475000Y-284125000D02*
X227400000Y-284050000D01*
X312940000Y-104050000D02*
X312500000Y-104490000D01*
X313800000Y-284050000D02*
X312940000Y-284050000D01*
X461565000Y-271504339D02*
X461565000Y-248615000D01*
X439332500Y-322500000D02*
X437975000Y-323857500D01*
X461450000Y-317594339D02*
X461565000Y-317479339D01*
X433800000Y-224050000D02*
X432940000Y-224050000D01*
X432940000Y-224050000D02*
X432500000Y-224490000D01*
X210480000Y-285000000D02*
X210480000Y-75000000D01*
D47*
X446070000Y-328357500D02*
X446300000Y-328127500D01*
D46*
X432880000Y-337520000D02*
X432880000Y-337335614D01*
X449910000Y-328127500D02*
X449910000Y-328500000D01*
X461565000Y-317479339D02*
X461565000Y-271504339D01*
X409949500Y-312475972D02*
X408028528Y-310555000D01*
X437000000Y-74050000D02*
X433800000Y-74050000D01*
X287400000Y-284050000D02*
X317400000Y-284050000D01*
X343800000Y-134050000D02*
X342940000Y-134050000D01*
X432882500Y-338870000D02*
X432882500Y-337522500D01*
X282940000Y-74050000D02*
X282500000Y-74490000D01*
X437000000Y-134050000D02*
X433800000Y-134050000D01*
X313800000Y-194050000D02*
X312940000Y-194050000D01*
X342940000Y-254050000D02*
X342500000Y-254490000D01*
X461565000Y-158615000D02*
X461565000Y-128565000D01*
X257475000Y-284125000D02*
X257400000Y-284050000D01*
X432940000Y-134050000D02*
X432500000Y-134490000D01*
X252940000Y-164050000D02*
X252500000Y-164490000D01*
X253800000Y-224050000D02*
X252940000Y-224050000D01*
X222500000Y-284500000D02*
X221025500Y-284500000D01*
X282940000Y-194050000D02*
X282500000Y-194490000D01*
X230433214Y-321833212D02*
X230433214Y-322596786D01*
D47*
X444150000Y-336077500D02*
X444150000Y-336847500D01*
D46*
X401415500Y-254500000D02*
X399000000Y-252084500D01*
X282940000Y-224050000D02*
X282500000Y-224490000D01*
X435027500Y-328337500D02*
X435450000Y-328337500D01*
X402500000Y-254500000D02*
X401415500Y-254500000D01*
X343800000Y-164050000D02*
X342940000Y-164050000D01*
X432940000Y-194050000D02*
X432500000Y-194490000D01*
D47*
X444150000Y-336847500D02*
X444160000Y-336857500D01*
D46*
X343800000Y-254050000D02*
X342940000Y-254050000D01*
X223800000Y-194050000D02*
X433800000Y-194050000D01*
X433800000Y-284050000D02*
X437000000Y-284050000D01*
X287475000Y-317268183D02*
X294393683Y-310349500D01*
X455537500Y-322500000D02*
X452677500Y-322500000D01*
X313800000Y-134050000D02*
X312940000Y-134050000D01*
X372940000Y-224050000D02*
X372500000Y-224490000D01*
X222940000Y-284050000D02*
X222500000Y-284490000D01*
X432825000Y-338927500D02*
X432882500Y-338870000D01*
X282940000Y-164050000D02*
X282500000Y-164490000D01*
X432940000Y-164050000D02*
X432500000Y-164490000D01*
X373800000Y-194050000D02*
X372940000Y-194050000D01*
X437000000Y-194050000D02*
X433800000Y-194050000D01*
X342940000Y-104050000D02*
X342500000Y-104490000D01*
X282940000Y-104050000D02*
X282500000Y-104490000D01*
X313800000Y-104050000D02*
X312940000Y-104050000D01*
X437000000Y-284050000D02*
X439640661Y-286690661D01*
X283800000Y-104050000D02*
X282940000Y-104050000D01*
X402940000Y-164050000D02*
X402500000Y-164490000D01*
X371415500Y-254500000D02*
X369000000Y-252084500D01*
D47*
X443950000Y-335270000D02*
X443950000Y-335877500D01*
D46*
X227475000Y-310555000D02*
X228028528Y-310555000D01*
X223800000Y-74050000D02*
X433800000Y-74050000D01*
X429550000Y-325357500D02*
X429550000Y-326207500D01*
X409949500Y-320600000D02*
X426942500Y-320600000D01*
X223800000Y-284050000D02*
X227400000Y-284050000D01*
X313800000Y-164050000D02*
X312940000Y-164050000D01*
X402940000Y-74050000D02*
X402500000Y-74490000D01*
X372940000Y-194050000D02*
X372500000Y-194490000D01*
D47*
X437037500Y-328357500D02*
X435470000Y-328357500D01*
D46*
X406870000Y-333175000D02*
X406050000Y-333995000D01*
X215152685Y-280200000D02*
X218600000Y-280200000D01*
X222940000Y-224050000D02*
X222500000Y-224490000D01*
X227475000Y-295555000D02*
X227475000Y-284125000D01*
X433800000Y-254050000D02*
X432940000Y-254050000D01*
X283800000Y-134050000D02*
X282940000Y-134050000D01*
X430200000Y-323857500D02*
X437975000Y-323857500D01*
X377400000Y-284050000D02*
X407400000Y-284050000D01*
X317400000Y-284050000D02*
X347400000Y-284050000D01*
X406050000Y-333995000D02*
X406050000Y-334843528D01*
X223800000Y-164050000D02*
X222940000Y-164050000D01*
X406050000Y-319046472D02*
X406921472Y-318175000D01*
X437975000Y-323857500D02*
X437975000Y-325092500D01*
X439640661Y-286690661D02*
X439640661Y-295555000D01*
X372940000Y-254050000D02*
X372500000Y-254490000D01*
X312940000Y-224050000D02*
X312500000Y-224490000D01*
X403800000Y-254050000D02*
X402940000Y-254050000D01*
X429550000Y-325357500D02*
X429550000Y-324507500D01*
X372940000Y-284050000D02*
X372500000Y-284490000D01*
X373800000Y-134050000D02*
X372940000Y-134050000D01*
X403800000Y-134050000D02*
X402940000Y-134050000D01*
X347475000Y-295555000D02*
X347475000Y-284125000D01*
X252940000Y-254050000D02*
X252500000Y-254490000D01*
X230501788Y-321901786D02*
X235701788Y-321901786D01*
X287475000Y-295555000D02*
X287475000Y-284125000D01*
X437050000Y-104050000D02*
X433800000Y-104050000D01*
X372500000Y-254500000D02*
X371415500Y-254500000D01*
X312940000Y-254050000D02*
X312500000Y-254490000D01*
X372940000Y-134050000D02*
X372500000Y-134490000D01*
X253800000Y-284050000D02*
X252940000Y-284050000D01*
X257475000Y-295555000D02*
X257475000Y-284125000D01*
X461565000Y-98615000D02*
X437000000Y-74050000D01*
X339000000Y-250775500D02*
X369000000Y-250775500D01*
X253800000Y-164050000D02*
X252940000Y-164050000D01*
X428200000Y-332655614D02*
X428200000Y-326707500D01*
X372940000Y-74050000D02*
X372500000Y-74490000D01*
X253800000Y-74050000D02*
X252940000Y-74050000D01*
X431415500Y-254490000D02*
X429000000Y-252074500D01*
X444160000Y-339614362D02*
X444087181Y-339687181D01*
X343800000Y-284050000D02*
X342940000Y-284050000D01*
X252940000Y-224050000D02*
X252500000Y-224490000D01*
X433800000Y-164050000D02*
X432940000Y-164050000D01*
D47*
X435470000Y-328357500D02*
X435450000Y-328337500D01*
D46*
X223800000Y-104050000D02*
X222940000Y-104050000D01*
X452677500Y-322500000D02*
X451320000Y-323857500D01*
X407475000Y-325555000D02*
X406050000Y-324130000D01*
X449910000Y-328127500D02*
X446950000Y-328127500D01*
D47*
X438450000Y-326177500D02*
X438250000Y-325977500D01*
D46*
X222940000Y-104050000D02*
X222500000Y-104490000D01*
D47*
X438250000Y-325977500D02*
X438250000Y-325367500D01*
D46*
X312940000Y-284050000D02*
X312500000Y-284490000D01*
X373800000Y-284050000D02*
X372940000Y-284050000D01*
X461565000Y-218615000D02*
X461565000Y-188615000D01*
X252940000Y-284050000D02*
X252500000Y-284490000D01*
X342940000Y-194050000D02*
X342500000Y-194490000D01*
X340000000Y-253074500D02*
X339000000Y-252074500D01*
X461565000Y-128565000D02*
X437050000Y-104050000D01*
X452677500Y-322500000D02*
X439332500Y-322500000D01*
X373800000Y-164050000D02*
X372940000Y-164050000D01*
X343800000Y-104050000D02*
X342940000Y-104050000D01*
X377475000Y-295555000D02*
X377475000Y-284125000D01*
X252940000Y-74050000D02*
X252500000Y-74490000D01*
X434417500Y-327727500D02*
X435027500Y-328337500D01*
D47*
X438450000Y-326945000D02*
X438450000Y-326177500D01*
D46*
X433800000Y-224050000D02*
X223800000Y-224050000D01*
X317475000Y-284125000D02*
X317400000Y-284050000D01*
X430652500Y-327310000D02*
X431721839Y-327310000D01*
X461450000Y-324300000D02*
X461450000Y-337050000D01*
X373800000Y-224050000D02*
X372940000Y-224050000D01*
X402940000Y-104050000D02*
X402500000Y-104490000D01*
X403800000Y-224050000D02*
X402940000Y-224050000D01*
X283800000Y-164050000D02*
X282940000Y-164050000D01*
X340000000Y-254050000D02*
X343800000Y-254050000D01*
X223800000Y-134050000D02*
X222940000Y-134050000D01*
X257400000Y-284050000D02*
X287400000Y-284050000D01*
X283800000Y-284050000D02*
X282940000Y-284050000D01*
X444160000Y-336857500D02*
X444160000Y-339614362D01*
X223800000Y-194050000D02*
X222940000Y-194050000D01*
X426942500Y-320600000D02*
X430200000Y-323857500D01*
X252940000Y-194050000D02*
X252500000Y-194490000D01*
X317475000Y-295555000D02*
X317475000Y-284125000D01*
X407400000Y-284050000D02*
X433800000Y-284050000D01*
X296369267Y-302283606D02*
X289640661Y-295555000D01*
X433800000Y-104050000D02*
X432940000Y-104050000D01*
X227475000Y-310555000D02*
X226109339Y-310555000D01*
X312940000Y-74050000D02*
X312500000Y-74490000D01*
X342940000Y-134050000D02*
X342500000Y-134490000D01*
X283800000Y-194050000D02*
X282940000Y-194050000D01*
D47*
X443950000Y-335877500D02*
X444150000Y-336077500D01*
D46*
X343800000Y-74050000D02*
X342940000Y-74050000D01*
X402940000Y-224050000D02*
X402500000Y-224490000D01*
X432882500Y-337522500D02*
X432880000Y-337520000D01*
X461565000Y-218615000D02*
X437000000Y-194050000D01*
X458030000Y-340470000D02*
X454900000Y-340470000D01*
X432940000Y-104050000D02*
X432500000Y-104490000D01*
X223569339Y-313095000D02*
X222525000Y-313095000D01*
X433800000Y-74050000D02*
X432940000Y-74050000D01*
X402940000Y-194050000D02*
X402500000Y-194490000D01*
X282940000Y-134050000D02*
X282500000Y-134490000D01*
X223800000Y-224050000D02*
X222940000Y-224050000D01*
X407475000Y-333175000D02*
X406870000Y-333175000D01*
X342940000Y-224050000D02*
X342500000Y-224490000D01*
X210480000Y-285000000D02*
X210480000Y-284872685D01*
X227000000Y-308600000D02*
X227000000Y-310080000D01*
X347400000Y-284050000D02*
X377400000Y-284050000D01*
X343800000Y-224050000D02*
X342940000Y-224050000D01*
X433800000Y-284050000D02*
X432940000Y-284050000D01*
X433800000Y-104050000D02*
X223800000Y-104050000D01*
X432500000Y-254490000D02*
X431415500Y-254490000D01*
X406050000Y-324130000D02*
X406050000Y-320600000D01*
X461565000Y-128565000D02*
X461565000Y-98615000D01*
X403800000Y-284050000D02*
X402940000Y-284050000D01*
X287475000Y-284125000D02*
X287400000Y-284050000D01*
X402940000Y-254050000D02*
X402500000Y-254490000D01*
X449910000Y-328500000D02*
X450100000Y-328690000D01*
X461565000Y-248615000D02*
X461565000Y-218615000D01*
X222940000Y-254050000D02*
X222500000Y-254490000D01*
X282940000Y-284050000D02*
X282500000Y-284490000D01*
X313800000Y-224050000D02*
X312940000Y-224050000D01*
X373800000Y-74050000D02*
X372940000Y-74050000D01*
X226921472Y-295555000D02*
X225800000Y-296676472D01*
X372940000Y-104050000D02*
X372500000Y-104490000D01*
X227475000Y-295555000D02*
X226921472Y-295555000D01*
X428200000Y-326707500D02*
X429550000Y-325357500D01*
X432940000Y-74050000D02*
X432500000Y-74490000D01*
X372940000Y-164050000D02*
X372500000Y-164490000D01*
X461565000Y-188615000D02*
X461565000Y-158615000D01*
X283800000Y-254050000D02*
X282940000Y-254050000D01*
X406050000Y-320600000D02*
X406050000Y-319046472D01*
X222940000Y-194050000D02*
X222500000Y-194490000D01*
X237520320Y-321920320D02*
X240877500Y-325277500D01*
X240877500Y-325277500D02*
X257540000Y-325277500D01*
X432139339Y-327727500D02*
X434417500Y-327727500D01*
X449910000Y-328127500D02*
X455537500Y-322500000D01*
X461565000Y-271504339D02*
X440836161Y-250775500D01*
X437475000Y-295555000D02*
X439640661Y-295555000D01*
X407475000Y-284125000D02*
X407400000Y-284050000D01*
X406050000Y-320600000D02*
X408150500Y-320600000D01*
X373800000Y-254050000D02*
X372940000Y-254050000D01*
X440836161Y-250775500D02*
X429000000Y-250775500D01*
X403800000Y-164050000D02*
X402940000Y-164050000D01*
X312940000Y-134050000D02*
X312500000Y-134490000D01*
X429550000Y-324507500D02*
X430200000Y-323857500D01*
X312940000Y-164050000D02*
X312500000Y-164490000D01*
X437975000Y-325092500D02*
X438240000Y-325357500D01*
X377475000Y-284125000D02*
X377400000Y-284050000D01*
X223800000Y-254050000D02*
X222940000Y-254050000D01*
X252940000Y-104050000D02*
X252500000Y-104490000D01*
X223800000Y-74050000D02*
X222940000Y-74050000D01*
X369000000Y-250775500D02*
X429000000Y-250775500D01*
X373800000Y-104050000D02*
X372940000Y-104050000D01*
X225800000Y-296676472D02*
X225800000Y-307250500D01*
X228028528Y-310555000D02*
X230407575Y-312934047D01*
X407475000Y-295555000D02*
X407475000Y-284125000D01*
X312940000Y-194050000D02*
X312500000Y-194490000D01*
%TO.N,GND*%
X405835000Y-314365000D02*
X405800000Y-314400000D01*
X432525000Y-301905000D02*
X431095000Y-301905000D01*
D47*
X437037500Y-331857500D02*
X436130000Y-331857500D01*
D46*
X315480000Y-77500000D02*
X316500000Y-77500000D01*
X226200000Y-225000000D02*
X225000000Y-225000000D01*
X406200000Y-225000000D02*
X405000000Y-225000000D01*
X436200000Y-195000000D02*
X435000000Y-195000000D01*
X252525000Y-301905000D02*
X251095000Y-301905000D01*
X402525000Y-319445000D02*
X401045000Y-319445000D01*
X286200000Y-255000000D02*
X285000000Y-255000000D01*
X286200000Y-285000000D02*
X285000000Y-285000000D01*
X436200000Y-225000000D02*
X435000000Y-225000000D01*
X255480000Y-227500000D02*
X256500000Y-227500000D01*
X346200000Y-225000000D02*
X345000000Y-225000000D01*
X342525000Y-304445000D02*
X341245000Y-304445000D01*
X225480000Y-77500000D02*
X226500000Y-77500000D01*
X256200000Y-225000000D02*
X255000000Y-225000000D01*
X255480000Y-167500000D02*
X256500000Y-167500000D01*
X431095000Y-301905000D02*
X431000000Y-302000000D01*
X430950000Y-328477500D02*
X431350000Y-328077500D01*
X430950000Y-329107500D02*
X430950000Y-328477500D01*
X406200000Y-75000000D02*
X405000000Y-75000000D01*
X435380000Y-338107500D02*
X435450000Y-338177500D01*
X341095000Y-301905000D02*
X341000000Y-302000000D01*
X457740000Y-323500000D02*
X456940000Y-323500000D01*
X316200000Y-225000000D02*
X315000000Y-225000000D01*
X256200000Y-75000000D02*
X255000000Y-75000000D01*
X372525000Y-334445000D02*
X370845000Y-334445000D01*
X282525000Y-331905000D02*
X283895000Y-331905000D01*
X222525000Y-328095000D02*
X224105000Y-328095000D01*
X435480000Y-167500000D02*
X436500000Y-167500000D01*
X222525000Y-333175000D02*
X221225000Y-333175000D01*
X405480000Y-77500000D02*
X406500000Y-77500000D01*
X311025000Y-303175000D02*
X311000000Y-303200000D01*
X402525000Y-334445000D02*
X402525000Y-335125000D01*
X283975000Y-333175000D02*
X284000000Y-333200000D01*
X222525000Y-334445000D02*
X221645000Y-334445000D01*
X345480000Y-227500000D02*
X346500000Y-227500000D01*
X222525000Y-304445000D02*
X223955000Y-304445000D01*
X286200000Y-165000000D02*
X285000000Y-165000000D01*
X405480000Y-137500000D02*
X406500000Y-137500000D01*
X251045000Y-304445000D02*
X251000000Y-304400000D01*
X286200000Y-225000000D02*
X285000000Y-225000000D01*
X311095000Y-301905000D02*
X311000000Y-302000000D01*
X256200000Y-195000000D02*
X255000000Y-195000000D01*
X435480000Y-227500000D02*
X436500000Y-227500000D01*
X379859266Y-331195738D02*
X379859266Y-331340734D01*
X401095000Y-301905000D02*
X401000000Y-302000000D01*
X283200000Y-344000000D02*
X282000000Y-344000000D01*
D47*
X435900000Y-331627500D02*
X435450000Y-331627500D01*
D46*
X431045000Y-304445000D02*
X431000000Y-304400000D01*
X405480000Y-287500000D02*
X406500000Y-287500000D01*
X402525000Y-304445000D02*
X401045000Y-304445000D01*
X225480000Y-197500000D02*
X226500000Y-197500000D01*
X282525000Y-303175000D02*
X281025000Y-303175000D01*
X402525000Y-301905000D02*
X401095000Y-301905000D01*
X226200000Y-165000000D02*
X225000000Y-165000000D01*
X342525000Y-301905000D02*
X341095000Y-301905000D01*
X376200000Y-135000000D02*
X375000000Y-135000000D01*
X405480000Y-167500000D02*
X406500000Y-167500000D01*
X226200000Y-75000000D02*
X225000000Y-75000000D01*
X405480000Y-227500000D02*
X406500000Y-227500000D01*
X457850000Y-326820000D02*
X456710000Y-326820000D01*
X285480000Y-137500000D02*
X286500000Y-137500000D01*
X401025000Y-303175000D02*
X401000000Y-303200000D01*
X376200000Y-285000000D02*
X375000000Y-285000000D01*
X315480000Y-197500000D02*
X316500000Y-197500000D01*
X376200000Y-165000000D02*
X375000000Y-165000000D01*
X315480000Y-137500000D02*
X316500000Y-137500000D01*
X435450000Y-327377500D02*
X436250000Y-327377500D01*
X435239893Y-331627500D02*
X434710179Y-332157214D01*
X252525000Y-303175000D02*
X251025000Y-303175000D01*
X285480000Y-257500000D02*
X286500000Y-257500000D01*
X406200000Y-285000000D02*
X405000000Y-285000000D01*
X285480000Y-77500000D02*
X286500000Y-77500000D01*
X221225000Y-333175000D02*
X221200000Y-333200000D01*
X316200000Y-195000000D02*
X315000000Y-195000000D01*
D47*
X443450000Y-336108541D02*
X443200000Y-336358541D01*
D46*
X401045000Y-319445000D02*
X401000000Y-319400000D01*
X435480000Y-197500000D02*
X436500000Y-197500000D01*
X222525000Y-318175000D02*
X221025000Y-318175000D01*
X311045000Y-304445000D02*
X311000000Y-304400000D01*
X282525000Y-334445000D02*
X283955000Y-334445000D01*
X346200000Y-195000000D02*
X345000000Y-195000000D01*
X346200000Y-75000000D02*
X345000000Y-75000000D01*
X375480000Y-107500000D02*
X376500000Y-107500000D01*
D47*
X446230000Y-328857500D02*
X446450000Y-329077500D01*
D46*
X346200000Y-255000000D02*
X345000000Y-255000000D01*
X223955000Y-304445000D02*
X224000000Y-304400000D01*
X282525000Y-333175000D02*
X283975000Y-333175000D01*
X457450000Y-336500000D02*
X457410000Y-336540000D01*
X222525000Y-303175000D02*
X223975000Y-303175000D01*
X407475000Y-329365000D02*
X406365000Y-329365000D01*
X376200000Y-75000000D02*
X375000000Y-75000000D01*
X342525000Y-303175000D02*
X341025000Y-303175000D01*
X375480000Y-137500000D02*
X376500000Y-137500000D01*
X281045000Y-304445000D02*
X281000000Y-304400000D01*
X286200000Y-135000000D02*
X285000000Y-135000000D01*
X282525000Y-304445000D02*
X281045000Y-304445000D01*
X315480000Y-257500000D02*
X316500000Y-257500000D01*
X436200000Y-105000000D02*
X435000000Y-105000000D01*
X224105000Y-328095000D02*
X224200000Y-328000000D01*
X256200000Y-165000000D02*
X255000000Y-165000000D01*
X345480000Y-77500000D02*
X346500000Y-77500000D01*
X225480000Y-257500000D02*
X226500000Y-257500000D01*
X436200000Y-255000000D02*
X435000000Y-255000000D01*
X447460000Y-329087500D02*
X447650000Y-329277500D01*
X255480000Y-137500000D02*
X256500000Y-137500000D01*
X316200000Y-105000000D02*
X315000000Y-105000000D01*
X222525000Y-301905000D02*
X223895000Y-301905000D01*
X316200000Y-135000000D02*
X315000000Y-135000000D01*
X221095000Y-316905000D02*
X221000000Y-317000000D01*
X223895000Y-301905000D02*
X224000000Y-301800000D01*
X255480000Y-107500000D02*
X256500000Y-107500000D01*
X435450000Y-331627500D02*
X435239893Y-331627500D01*
X222525000Y-316905000D02*
X221095000Y-316905000D01*
X256200000Y-255000000D02*
X255000000Y-255000000D01*
X456940000Y-323500000D02*
X456910000Y-323470000D01*
X459520000Y-342120000D02*
X459600000Y-342200000D01*
D47*
X443200000Y-336358541D02*
X443200000Y-336857500D01*
D46*
X432525000Y-304445000D02*
X431045000Y-304445000D01*
X225480000Y-287500000D02*
X226500000Y-287500000D01*
D47*
X443450000Y-335270000D02*
X443450000Y-336108541D01*
D46*
X283955000Y-334445000D02*
X284000000Y-334400000D01*
X252525000Y-304445000D02*
X251045000Y-304445000D01*
D47*
X438950000Y-326945000D02*
X438950000Y-326077500D01*
D46*
X436200000Y-285000000D02*
X435000000Y-285000000D01*
X345480000Y-287500000D02*
X346500000Y-287500000D01*
X282525000Y-301905000D02*
X281105000Y-301905000D01*
X251025000Y-303175000D02*
X251000000Y-303200000D01*
X406200000Y-255000000D02*
X405000000Y-255000000D01*
X345480000Y-167500000D02*
X346500000Y-167500000D01*
X437427500Y-335800000D02*
X437450000Y-335777500D01*
X435480000Y-257500000D02*
X436500000Y-257500000D01*
X436200000Y-135000000D02*
X435000000Y-135000000D01*
X440330000Y-323857500D02*
X440350000Y-323877500D01*
X375480000Y-77500000D02*
X376500000Y-77500000D01*
X225480000Y-107500000D02*
X226500000Y-107500000D01*
X439525000Y-323857500D02*
X440330000Y-323857500D01*
X256200000Y-105000000D02*
X255000000Y-105000000D01*
X345480000Y-197500000D02*
X346500000Y-197500000D01*
X225480000Y-227500000D02*
X226500000Y-227500000D01*
X439525000Y-323857500D02*
X439525000Y-325032500D01*
X435480000Y-287500000D02*
X436500000Y-287500000D01*
X285480000Y-197500000D02*
X286500000Y-197500000D01*
D47*
X439200000Y-325827500D02*
X439200000Y-325357500D01*
D46*
X225480000Y-137500000D02*
X226500000Y-137500000D01*
D47*
X445362500Y-328857500D02*
X446230000Y-328857500D01*
D46*
X346200000Y-105000000D02*
X345000000Y-105000000D01*
X376200000Y-225000000D02*
X375000000Y-225000000D01*
X432450000Y-326367500D02*
X432450000Y-326977500D01*
X255480000Y-257500000D02*
X256500000Y-257500000D01*
X283895000Y-331905000D02*
X284000000Y-331800000D01*
X345480000Y-137500000D02*
X346500000Y-137500000D01*
X345480000Y-257500000D02*
X346500000Y-257500000D01*
X285480000Y-107500000D02*
X286500000Y-107500000D01*
X432450000Y-332567500D02*
X433140000Y-332567500D01*
X285480000Y-227500000D02*
X286500000Y-227500000D01*
X316200000Y-285000000D02*
X315000000Y-285000000D01*
X370845000Y-334445000D02*
X370800000Y-334400000D01*
X436800000Y-335800000D02*
X437427500Y-335800000D01*
X281025000Y-303175000D02*
X281000000Y-303200000D01*
X371045000Y-304445000D02*
X371000000Y-304400000D01*
X256200000Y-135000000D02*
X255000000Y-135000000D01*
X405480000Y-257500000D02*
X406500000Y-257500000D01*
X223975000Y-303175000D02*
X224000000Y-303200000D01*
X345480000Y-107500000D02*
X346500000Y-107500000D01*
X405480000Y-107500000D02*
X406500000Y-107500000D01*
X286200000Y-105000000D02*
X285000000Y-105000000D01*
X315480000Y-227500000D02*
X316500000Y-227500000D01*
X443200000Y-336857500D02*
X443200000Y-337600000D01*
X281105000Y-301905000D02*
X281000000Y-301800000D01*
X255480000Y-77500000D02*
X256500000Y-77500000D01*
X255480000Y-197500000D02*
X256500000Y-197500000D01*
X221045000Y-319445000D02*
X221000000Y-319400000D01*
X372525000Y-303175000D02*
X371025000Y-303175000D01*
X431920000Y-337520000D02*
X431920000Y-338107500D01*
X435380000Y-337520000D02*
X435380000Y-338107500D01*
X371025000Y-303175000D02*
X371000000Y-303200000D01*
X226200000Y-105000000D02*
X225000000Y-105000000D01*
X225480000Y-167500000D02*
X226500000Y-167500000D01*
X402525000Y-335125000D02*
X402600000Y-335200000D01*
X251095000Y-301905000D02*
X251000000Y-302000000D01*
X435480000Y-77500000D02*
X436500000Y-77500000D01*
X406200000Y-135000000D02*
X405000000Y-135000000D01*
X375480000Y-167500000D02*
X376500000Y-167500000D01*
X401045000Y-304445000D02*
X401000000Y-304400000D01*
X316200000Y-255000000D02*
X315000000Y-255000000D01*
X439525000Y-325032500D02*
X439200000Y-325357500D01*
X431025000Y-303175000D02*
X431000000Y-303200000D01*
D47*
X446940000Y-329077500D02*
X446950000Y-329087500D01*
D46*
X316200000Y-165000000D02*
X315000000Y-165000000D01*
X226200000Y-195000000D02*
X225000000Y-195000000D01*
X406200000Y-165000000D02*
X405000000Y-165000000D01*
X375480000Y-287500000D02*
X376500000Y-287500000D01*
X312525000Y-303175000D02*
X311025000Y-303175000D01*
X377475000Y-329365000D02*
X378028528Y-329365000D01*
X315480000Y-107500000D02*
X316500000Y-107500000D01*
X455300000Y-330070000D02*
X456662500Y-330070000D01*
X285480000Y-167500000D02*
X286500000Y-167500000D01*
X376200000Y-105000000D02*
X375000000Y-105000000D01*
X372525000Y-301905000D02*
X371095000Y-301905000D01*
D47*
X436130000Y-331857500D02*
X435900000Y-331627500D01*
D46*
X375480000Y-227500000D02*
X376500000Y-227500000D01*
X457850000Y-333220000D02*
X456710000Y-333220000D01*
X406365000Y-329365000D02*
X406000000Y-329000000D01*
X432450000Y-329127500D02*
X432450000Y-328477500D01*
X429250000Y-331307500D02*
X429250000Y-332177500D01*
X222525000Y-319445000D02*
X221045000Y-319445000D01*
X341025000Y-303175000D02*
X341000000Y-303200000D01*
X346200000Y-285000000D02*
X345000000Y-285000000D01*
X312525000Y-304445000D02*
X311045000Y-304445000D01*
X405480000Y-197500000D02*
X406500000Y-197500000D01*
X406200000Y-195000000D02*
X405000000Y-195000000D01*
D47*
X438950000Y-326077500D02*
X439200000Y-325827500D01*
D46*
X315480000Y-167500000D02*
X316500000Y-167500000D01*
X378028528Y-329365000D02*
X379859266Y-331195738D01*
X286200000Y-75000000D02*
X285000000Y-75000000D01*
X435480000Y-107500000D02*
X436500000Y-107500000D01*
X456710000Y-333220000D02*
X456690000Y-333240000D01*
X432525000Y-303175000D02*
X431025000Y-303175000D01*
X285480000Y-287500000D02*
X286500000Y-287500000D01*
X372525000Y-304445000D02*
X371045000Y-304445000D01*
X221645000Y-334445000D02*
X221200000Y-334000000D01*
X376200000Y-195000000D02*
X375000000Y-195000000D01*
X371095000Y-301905000D02*
X371000000Y-302000000D01*
X407475000Y-314365000D02*
X405835000Y-314365000D01*
X375480000Y-257500000D02*
X376500000Y-257500000D01*
X402525000Y-303175000D02*
X401025000Y-303175000D01*
X255480000Y-287500000D02*
X256500000Y-287500000D01*
X346200000Y-165000000D02*
X345000000Y-165000000D01*
X458240000Y-336500000D02*
X457450000Y-336500000D01*
X375480000Y-197500000D02*
X376500000Y-197500000D01*
X436200000Y-75000000D02*
X435000000Y-75000000D01*
X406200000Y-105000000D02*
X405000000Y-105000000D01*
X431920000Y-338107500D02*
X431850000Y-338177500D01*
X315480000Y-287500000D02*
X316500000Y-287500000D01*
X256200000Y-285000000D02*
X255000000Y-285000000D01*
X226200000Y-285000000D02*
X225000000Y-285000000D01*
X312525000Y-301905000D02*
X311095000Y-301905000D01*
X221025000Y-318175000D02*
X221000000Y-318200000D01*
X376200000Y-255000000D02*
X375000000Y-255000000D01*
X436200000Y-165000000D02*
X435000000Y-165000000D01*
X458810000Y-342120000D02*
X459520000Y-342120000D01*
X346200000Y-135000000D02*
X345000000Y-135000000D01*
X341245000Y-304445000D02*
X341200000Y-304400000D01*
X433140000Y-332567500D02*
X433150000Y-332577500D01*
X286200000Y-195000000D02*
X285000000Y-195000000D01*
X226200000Y-255000000D02*
X225000000Y-255000000D01*
X316200000Y-75000000D02*
X315000000Y-75000000D01*
X429250000Y-332177500D02*
X429450000Y-332377500D01*
X446950000Y-329087500D02*
X447460000Y-329087500D01*
D47*
X446450000Y-329077500D02*
X446940000Y-329077500D01*
D46*
X435480000Y-137500000D02*
X436500000Y-137500000D01*
X226200000Y-135000000D02*
X225000000Y-135000000D01*
D47*
%TO.N,+3.3VA*%
X437037500Y-332357500D02*
X436170000Y-332357500D01*
X435950000Y-332577500D02*
X435460000Y-332577500D01*
D46*
X434457500Y-338870000D02*
X434457500Y-333580000D01*
D47*
X436170000Y-332357500D02*
X435950000Y-332577500D01*
D46*
X434457500Y-333580000D02*
X435450000Y-332587500D01*
D47*
X435460000Y-332577500D02*
X435450000Y-332587500D01*
D48*
%TO.N,VBUS*%
X447900000Y-335670000D02*
X447900000Y-336670000D01*
D46*
X331810000Y-313250000D02*
X333560000Y-315000000D01*
X379855319Y-316255319D02*
X376600000Y-313000000D01*
X369899500Y-350049500D02*
X375200000Y-344749000D01*
X455288972Y-327620000D02*
X454187500Y-328721472D01*
X285950500Y-348750500D02*
X289200000Y-348750500D01*
X379855319Y-326594658D02*
X379855319Y-316255319D01*
X379855319Y-326594658D02*
X378815661Y-325555000D01*
X302290000Y-313250000D02*
X331810000Y-313250000D01*
D48*
X449250000Y-334320000D02*
X447900000Y-335670000D01*
D46*
X300540000Y-315000000D02*
X302290000Y-313250000D01*
X375200000Y-344749000D02*
X444051000Y-344749000D01*
X455188972Y-332420000D02*
X457850000Y-332420000D01*
X457850000Y-327620000D02*
X455288972Y-327620000D01*
X447900000Y-336670000D02*
X447900000Y-340900000D01*
X377450000Y-333200000D02*
X377475000Y-333175000D01*
X454187500Y-328721472D02*
X454187500Y-330180000D01*
X454187500Y-330180000D02*
X454187500Y-331418528D01*
X376600000Y-313000000D02*
X335560000Y-313000000D01*
X379855319Y-329144679D02*
X379855319Y-326594658D01*
X455188972Y-332420000D02*
X451150000Y-332420000D01*
X283200000Y-346000000D02*
X285950500Y-348750500D01*
X447900000Y-340900000D02*
X447029977Y-341770023D01*
X451150000Y-332420000D02*
X449250000Y-334320000D01*
X454077500Y-330070000D02*
X454187500Y-330180000D01*
X454187500Y-331418528D02*
X455188972Y-332420000D01*
X289200000Y-350049500D02*
X369899500Y-350049500D01*
X378815661Y-325555000D02*
X377475000Y-325555000D01*
X453025000Y-330070000D02*
X454077500Y-330070000D01*
X335560000Y-313000000D02*
X333560000Y-315000000D01*
X444051000Y-344749000D02*
X445970023Y-342829977D01*
X375800000Y-333200000D02*
X377450000Y-333200000D01*
D47*
%TO.N,/NRST*%
X437487500Y-334840000D02*
X436800000Y-334840000D01*
X438150000Y-331631459D02*
X438150000Y-334177500D01*
X437037500Y-331357500D02*
X437876041Y-331357500D01*
X438150000Y-334177500D02*
X437487500Y-334840000D01*
X437876041Y-331357500D02*
X438150000Y-331631459D01*
%TO.N,/HSE_IN*%
X430020000Y-330177500D02*
X435950000Y-330177500D01*
X429250000Y-329107500D02*
X429250000Y-329407500D01*
X436130000Y-330357500D02*
X437037500Y-330357500D01*
X435950000Y-330177500D02*
X436130000Y-330357500D01*
X429250000Y-329407500D02*
X430020000Y-330177500D01*
%TO.N,/HSE_OUT*%
X436058959Y-330997500D02*
X434930000Y-330997500D01*
X436198959Y-330857500D02*
X436058959Y-330997500D01*
X434930000Y-330997500D02*
X434320000Y-331607500D01*
X431250000Y-331607500D02*
X430950000Y-331307500D01*
X432450000Y-331607500D02*
X431250000Y-331607500D01*
X434320000Y-331607500D02*
X432450000Y-331607500D01*
X437037500Y-330857500D02*
X436198959Y-330857500D01*
%TO.N,HALL_C0R0*%
X225977035Y-79000000D02*
X228000000Y-79000000D01*
X224520000Y-77542965D02*
X225977035Y-79000000D01*
X223360000Y-75510000D02*
X223800000Y-75950000D01*
X224520000Y-77500000D02*
X224520000Y-76670000D01*
X224520000Y-76670000D02*
X223800000Y-75950000D01*
X230000000Y-299000000D02*
X229635000Y-299365000D01*
X229635000Y-299365000D02*
X227475000Y-299365000D01*
X222500000Y-75510000D02*
X223360000Y-75510000D01*
X224520000Y-77500000D02*
X224520000Y-77542965D01*
%TO.N,HALL_C1R0*%
X259660000Y-299365000D02*
X257500000Y-299365000D01*
X253360000Y-75510000D02*
X253800000Y-75950000D01*
X258025000Y-79000000D02*
X255977035Y-79000000D01*
X255977035Y-79000000D02*
X254520000Y-77542965D01*
X254520000Y-76670000D02*
X253800000Y-75950000D01*
X254520000Y-77542965D02*
X254520000Y-77500000D01*
X254545000Y-77500000D02*
X254545000Y-77542965D01*
X260025000Y-299000000D02*
X259660000Y-299365000D01*
X252500000Y-75510000D02*
X253360000Y-75510000D01*
X254520000Y-77500000D02*
X254520000Y-76670000D01*
%TO.N,HALL_C2R0*%
X284545000Y-77500000D02*
X284545000Y-77542965D01*
X290025000Y-299000000D02*
X289660000Y-299365000D01*
X282500000Y-75510000D02*
X283360000Y-75510000D01*
X284520000Y-77542965D02*
X284520000Y-77500000D01*
X288025000Y-79000000D02*
X285977035Y-79000000D01*
X283360000Y-75510000D02*
X283800000Y-75950000D01*
X289660000Y-299365000D02*
X287500000Y-299365000D01*
X285977035Y-79000000D02*
X284520000Y-77542965D01*
X284520000Y-76670000D02*
X283800000Y-75950000D01*
X284520000Y-77500000D02*
X284520000Y-76670000D01*
%TO.N,HALL_C3R0*%
X320025000Y-299000000D02*
X319660000Y-299365000D01*
X314520000Y-77500000D02*
X314520000Y-77542965D01*
X314520000Y-77500000D02*
X314520000Y-76670000D01*
X314520000Y-76670000D02*
X313800000Y-75950000D01*
X314520000Y-77542965D02*
X315977035Y-79000000D01*
X315977035Y-79000000D02*
X318025000Y-79000000D01*
X313360000Y-75510000D02*
X313800000Y-75950000D01*
X319660000Y-299365000D02*
X317500000Y-299365000D01*
X314545000Y-77500000D02*
X314545000Y-77542965D01*
X312500000Y-75510000D02*
X313360000Y-75510000D01*
%TO.N,HALL_C4R0*%
X349660000Y-299365000D02*
X347500000Y-299365000D01*
X344520000Y-76670000D02*
X343800000Y-75950000D01*
X350025000Y-299000000D02*
X349660000Y-299365000D01*
X345977035Y-79000000D02*
X344520000Y-77542965D01*
X344520000Y-77500000D02*
X344520000Y-76670000D01*
X342500000Y-75510000D02*
X343360000Y-75510000D01*
X348025000Y-79000000D02*
X345977035Y-79000000D01*
X343360000Y-75510000D02*
X343800000Y-75950000D01*
X344520000Y-77542965D02*
X344520000Y-77500000D01*
X344545000Y-77500000D02*
X344545000Y-77542965D01*
%TO.N,HALL_C5R0*%
X378025000Y-79000000D02*
X375977035Y-79000000D01*
X375977035Y-79000000D02*
X374520000Y-77542965D01*
X374545000Y-77500000D02*
X374545000Y-77542965D01*
X379660000Y-299365000D02*
X377500000Y-299365000D01*
X380025000Y-299000000D02*
X379660000Y-299365000D01*
X373360000Y-75510000D02*
X373800000Y-75950000D01*
X374520000Y-76670000D02*
X373800000Y-75950000D01*
X374520000Y-77542965D02*
X374520000Y-77500000D01*
X374520000Y-77500000D02*
X374520000Y-76670000D01*
X372500000Y-75510000D02*
X373360000Y-75510000D01*
%TO.N,HALL_C6R0*%
X408050000Y-79000000D02*
X405977035Y-79000000D01*
X409685000Y-299365000D02*
X407525000Y-299365000D01*
X410050000Y-299000000D02*
X409685000Y-299365000D01*
X404520000Y-76670000D02*
X403800000Y-75950000D01*
X405977035Y-79000000D02*
X404520000Y-77542965D01*
X404520000Y-77542965D02*
X404520000Y-77500000D01*
X402500000Y-75510000D02*
X403360000Y-75510000D01*
X403360000Y-75510000D02*
X403800000Y-75950000D01*
X404520000Y-77500000D02*
X404520000Y-76670000D01*
X404570000Y-77500000D02*
X404570000Y-77542965D01*
%TO.N,HALL_C7R0*%
X434545000Y-77500000D02*
X434545000Y-77542965D01*
X435977035Y-79000000D02*
X434520000Y-77542965D01*
X434520000Y-77500000D02*
X434520000Y-76670000D01*
X432500000Y-75510000D02*
X433360000Y-75510000D01*
X438025000Y-79000000D02*
X435977035Y-79000000D01*
X440025000Y-299000000D02*
X439660000Y-299365000D01*
X433360000Y-75510000D02*
X433800000Y-75950000D01*
X434520000Y-77542965D02*
X434520000Y-77500000D01*
X439660000Y-299365000D02*
X437500000Y-299365000D01*
X434520000Y-76670000D02*
X433800000Y-75950000D01*
%TO.N,HALL_C0R1*%
X229405000Y-298095000D02*
X229709266Y-297790734D01*
X224520000Y-107500000D02*
X224520000Y-106670000D01*
X223360000Y-105510000D02*
X223800000Y-105950000D01*
X224520000Y-106670000D02*
X223800000Y-105950000D01*
X222500000Y-105510000D02*
X223360000Y-105510000D01*
X224520000Y-107542965D02*
X225977035Y-109000000D01*
X227475000Y-298095000D02*
X229405000Y-298095000D01*
X225977035Y-109000000D02*
X228649500Y-109000000D01*
%TO.N,HALL_C1R1*%
X254545000Y-107542965D02*
X254545000Y-107825000D01*
X257500000Y-298095000D02*
X259430000Y-298095000D01*
X252500000Y-105510000D02*
X253360000Y-105510000D01*
X254520000Y-107500000D02*
X254520000Y-106670000D01*
X259430000Y-298095000D02*
X259734266Y-297790734D01*
X254520000Y-106670000D02*
X253800000Y-105950000D01*
X254545000Y-107825000D02*
X255720000Y-109000000D01*
X253360000Y-105510000D02*
X253800000Y-105950000D01*
X255720000Y-109000000D02*
X258674500Y-109000000D01*
%TO.N,HALL_C2R1*%
X284545000Y-107542965D02*
X284545000Y-107675000D01*
X284520000Y-107500000D02*
X284520000Y-106670000D01*
X285870000Y-109000000D02*
X288674500Y-109000000D01*
X282500000Y-105510000D02*
X283360000Y-105510000D01*
X289430000Y-298095000D02*
X289734266Y-297790734D01*
X284520000Y-106670000D02*
X283800000Y-105950000D01*
X283360000Y-105510000D02*
X283800000Y-105950000D01*
X287500000Y-298095000D02*
X289430000Y-298095000D01*
X284545000Y-107675000D02*
X285870000Y-109000000D01*
%TO.N,HALL_C3R1*%
X314545000Y-107775000D02*
X315770000Y-109000000D01*
X312500000Y-105510000D02*
X313360000Y-105510000D01*
X319430000Y-298095000D02*
X319734266Y-297790734D01*
X314545000Y-107542965D02*
X314545000Y-107775000D01*
X314520000Y-106670000D02*
X313800000Y-105950000D01*
X317500000Y-298095000D02*
X319430000Y-298095000D01*
X315770000Y-109000000D02*
X318674500Y-109000000D01*
X313360000Y-105510000D02*
X313800000Y-105950000D01*
X314520000Y-107500000D02*
X314520000Y-106670000D01*
%TO.N,HALL_C4R1*%
X343360000Y-105510000D02*
X343800000Y-105950000D01*
X344520000Y-107500000D02*
X344520000Y-106670000D01*
X347500000Y-298095000D02*
X349430000Y-298095000D01*
X345770000Y-109000000D02*
X348674500Y-109000000D01*
X344520000Y-106670000D02*
X343800000Y-105950000D01*
X344545000Y-107542965D02*
X344545000Y-107775000D01*
X349430000Y-298095000D02*
X349734266Y-297790734D01*
X344545000Y-107775000D02*
X345770000Y-109000000D01*
X342500000Y-105510000D02*
X343360000Y-105510000D01*
%TO.N,HALL_C5R1*%
X372500000Y-105510000D02*
X373360000Y-105510000D01*
X373360000Y-105510000D02*
X373800000Y-105950000D01*
X374520000Y-106670000D02*
X373800000Y-105950000D01*
X375780000Y-109000000D02*
X378674500Y-109000000D01*
X374545000Y-107765000D02*
X375780000Y-109000000D01*
X377500000Y-298095000D02*
X379430000Y-298095000D01*
X374545000Y-107542965D02*
X374545000Y-107765000D01*
X374520000Y-107500000D02*
X374520000Y-106670000D01*
X379430000Y-298095000D02*
X379734266Y-297790734D01*
%TO.N,HALL_C6R1*%
X403360000Y-105510000D02*
X403800000Y-105950000D01*
X409455000Y-298095000D02*
X409759266Y-297790734D01*
X407525000Y-298095000D02*
X409455000Y-298095000D01*
X404520000Y-106670000D02*
X403800000Y-105950000D01*
X404520000Y-107542965D02*
X404520000Y-107500000D01*
X408699500Y-109000000D02*
X405977035Y-109000000D01*
X405977035Y-109000000D02*
X404520000Y-107542965D01*
X402500000Y-105510000D02*
X403360000Y-105510000D01*
X404520000Y-107500000D02*
X404520000Y-106670000D01*
%TO.N,HALL_C7R1*%
X432500000Y-105510000D02*
X433360000Y-105510000D01*
X439430000Y-298095000D02*
X439734266Y-297790734D01*
X434520000Y-107542965D02*
X434520000Y-107500000D01*
X437500000Y-298095000D02*
X439430000Y-298095000D01*
X435977035Y-109000000D02*
X434520000Y-107542965D01*
X433360000Y-105510000D02*
X433800000Y-105950000D01*
X434520000Y-107500000D02*
X434520000Y-106670000D01*
X434520000Y-106670000D02*
X433800000Y-105950000D01*
X438674500Y-109000000D02*
X435977035Y-109000000D01*
%TO.N,HALL_C0R2*%
X222500000Y-135510000D02*
X223360000Y-135510000D01*
X224520000Y-137800000D02*
X225720000Y-139000000D01*
X229175000Y-296825000D02*
X229500000Y-296500000D01*
X225720000Y-139000000D02*
X229149500Y-139000000D01*
X223360000Y-135510000D02*
X223800000Y-135950000D01*
X224520000Y-137500000D02*
X224520000Y-136670000D01*
X224520000Y-137542965D02*
X224520000Y-137800000D01*
X227475000Y-296825000D02*
X229175000Y-296825000D01*
X224520000Y-136670000D02*
X223800000Y-135950000D01*
%TO.N,HALL_C1R2*%
X259200000Y-296825000D02*
X259525000Y-296500000D01*
X255550000Y-139000000D02*
X259174500Y-139000000D01*
X254520000Y-136670000D02*
X253800000Y-135950000D01*
X253360000Y-135510000D02*
X253800000Y-135950000D01*
X252500000Y-135510000D02*
X253360000Y-135510000D01*
X254520000Y-137500000D02*
X254520000Y-136670000D01*
X254545000Y-137542965D02*
X254545000Y-137995000D01*
X257500000Y-296825000D02*
X259200000Y-296825000D01*
X254545000Y-137995000D02*
X255550000Y-139000000D01*
%TO.N,HALL_C2R2*%
X284520000Y-136670000D02*
X283800000Y-135950000D01*
X287500000Y-296825000D02*
X289200000Y-296825000D01*
X284545000Y-137542965D02*
X284545000Y-137925000D01*
X282500000Y-135510000D02*
X283360000Y-135510000D01*
X283360000Y-135510000D02*
X283800000Y-135950000D01*
X284545000Y-137925000D02*
X285620000Y-139000000D01*
X289200000Y-296825000D02*
X289525000Y-296500000D01*
X285620000Y-139000000D02*
X289174500Y-139000000D01*
X284520000Y-137500000D02*
X284520000Y-136670000D01*
%TO.N,HALL_C3R2*%
X314520000Y-136670000D02*
X313800000Y-135950000D01*
X314545000Y-137975000D02*
X315570000Y-139000000D01*
X317500000Y-296825000D02*
X319200000Y-296825000D01*
X315570000Y-139000000D02*
X319174500Y-139000000D01*
X313360000Y-135510000D02*
X313800000Y-135950000D01*
X314545000Y-137542965D02*
X314545000Y-137975000D01*
X314520000Y-137500000D02*
X314520000Y-136670000D01*
X312500000Y-135510000D02*
X313360000Y-135510000D01*
X319200000Y-296825000D02*
X319525000Y-296500000D01*
%TO.N,HALL_C4R2*%
X349200000Y-296825000D02*
X349525000Y-296500000D01*
X347500000Y-296825000D02*
X349200000Y-296825000D01*
X344545000Y-137542965D02*
X344545000Y-137895000D01*
X344545000Y-137895000D02*
X345650000Y-139000000D01*
X344520000Y-137500000D02*
X344520000Y-136670000D01*
X345650000Y-139000000D02*
X349174500Y-139000000D01*
X342500000Y-135510000D02*
X343360000Y-135510000D01*
X343360000Y-135510000D02*
X343800000Y-135950000D01*
X344520000Y-136670000D02*
X343800000Y-135950000D01*
%TO.N,HALL_C5R2*%
X372500000Y-135510000D02*
X373360000Y-135510000D01*
X374520000Y-137500000D02*
X374520000Y-136670000D01*
X375600000Y-139000000D02*
X379174500Y-139000000D01*
X379200000Y-296825000D02*
X379525000Y-296500000D01*
X374545000Y-137945000D02*
X375600000Y-139000000D01*
X377500000Y-296825000D02*
X379200000Y-296825000D01*
X373360000Y-135510000D02*
X373800000Y-135950000D01*
X374520000Y-136670000D02*
X373800000Y-135950000D01*
X374545000Y-137542965D02*
X374545000Y-137945000D01*
%TO.N,HALL_C6R2*%
X405740000Y-139000000D02*
X409199500Y-139000000D01*
X409225000Y-296825000D02*
X409550000Y-296500000D01*
X404570000Y-137830000D02*
X405740000Y-139000000D01*
X404520000Y-136670000D02*
X403800000Y-135950000D01*
X404520000Y-137500000D02*
X404520000Y-136670000D01*
X402500000Y-135510000D02*
X403360000Y-135510000D01*
X404570000Y-137542965D02*
X404570000Y-137830000D01*
X403360000Y-135510000D02*
X403800000Y-135950000D01*
X407525000Y-296825000D02*
X409225000Y-296825000D01*
%TO.N,HALL_C7R2*%
X434545000Y-137755000D02*
X435790000Y-139000000D01*
X435790000Y-139000000D02*
X439174500Y-139000000D01*
X434545000Y-137542965D02*
X434545000Y-137755000D01*
X434520000Y-136670000D02*
X433800000Y-135950000D01*
X434520000Y-137500000D02*
X434520000Y-136670000D01*
X437500000Y-296825000D02*
X439200000Y-296825000D01*
X432500000Y-135510000D02*
X433360000Y-135510000D01*
X439200000Y-296825000D02*
X439525000Y-296500000D01*
X433360000Y-135510000D02*
X433800000Y-135950000D01*
%TO.N,HALL_C0R3*%
X224520000Y-167500000D02*
X224520000Y-166670000D01*
X224520000Y-167542965D02*
X225977035Y-169000000D01*
X227475000Y-300635000D02*
X230365000Y-300635000D01*
X225977035Y-169000000D02*
X229649500Y-169000000D01*
X224520000Y-166670000D02*
X223800000Y-165950000D01*
X223360000Y-165510000D02*
X223800000Y-165950000D01*
X230365000Y-300635000D02*
X231000000Y-300000000D01*
X222500000Y-165510000D02*
X223360000Y-165510000D01*
%TO.N,HALL_C1R3*%
X253360000Y-165510000D02*
X253800000Y-165950000D01*
X254520000Y-166670000D02*
X253800000Y-165950000D01*
X257500000Y-300635000D02*
X260390000Y-300635000D01*
X254520000Y-167500000D02*
X254520000Y-166670000D01*
X255600000Y-169000000D02*
X259674500Y-169000000D01*
X260390000Y-300635000D02*
X261025000Y-300000000D01*
X252500000Y-165510000D02*
X253360000Y-165510000D01*
X254545000Y-167945000D02*
X255600000Y-169000000D01*
X254545000Y-167542965D02*
X254545000Y-167945000D01*
%TO.N,HALL_C2R3*%
X285490000Y-169000000D02*
X289674500Y-169000000D01*
X290390000Y-300635000D02*
X291025000Y-300000000D01*
X287500000Y-300635000D02*
X290390000Y-300635000D01*
X282500000Y-165510000D02*
X283360000Y-165510000D01*
X284520000Y-166670000D02*
X283800000Y-165950000D01*
X284545000Y-168055000D02*
X285490000Y-169000000D01*
X284545000Y-167542965D02*
X284545000Y-168055000D01*
X283360000Y-165510000D02*
X283800000Y-165950000D01*
X284520000Y-167500000D02*
X284520000Y-166670000D01*
%TO.N,HALL_C3R3*%
X314520000Y-167500000D02*
X314520000Y-166670000D01*
X314545000Y-167542965D02*
X314545000Y-168085000D01*
X313360000Y-165510000D02*
X313800000Y-165950000D01*
X317500000Y-300635000D02*
X320390000Y-300635000D01*
X314545000Y-168085000D02*
X315460000Y-169000000D01*
X314520000Y-166670000D02*
X313800000Y-165950000D01*
X315460000Y-169000000D02*
X319674500Y-169000000D01*
X320390000Y-300635000D02*
X321025000Y-300000000D01*
X312500000Y-165510000D02*
X313360000Y-165510000D01*
%TO.N,HALL_C4R3*%
X350390000Y-300635000D02*
X351025000Y-300000000D01*
X343360000Y-165510000D02*
X343800000Y-165950000D01*
X344520000Y-167500000D02*
X344520000Y-166670000D01*
X347500000Y-300635000D02*
X350390000Y-300635000D01*
X344545000Y-167542965D02*
X344545000Y-167825000D01*
X342500000Y-165510000D02*
X343360000Y-165510000D01*
X345720000Y-169000000D02*
X349674500Y-169000000D01*
X344545000Y-167825000D02*
X345720000Y-169000000D01*
X344520000Y-166670000D02*
X343800000Y-165950000D01*
%TO.N,HALL_C5R3*%
X375680000Y-169000000D02*
X379674500Y-169000000D01*
X373360000Y-165510000D02*
X373800000Y-165950000D01*
X377500000Y-300635000D02*
X380390000Y-300635000D01*
X380390000Y-300635000D02*
X381025000Y-300000000D01*
X374520000Y-166670000D02*
X373800000Y-165950000D01*
X372500000Y-165510000D02*
X373360000Y-165510000D01*
X374520000Y-167500000D02*
X374520000Y-166670000D01*
X374545000Y-167542965D02*
X374545000Y-167865000D01*
X374545000Y-167865000D02*
X375680000Y-169000000D01*
%TO.N,HALL_C6R3*%
X404520000Y-167500000D02*
X404520000Y-166670000D01*
X404520000Y-166670000D02*
X403800000Y-165950000D01*
X404570000Y-167770000D02*
X405800000Y-169000000D01*
X403360000Y-165510000D02*
X403800000Y-165950000D01*
X407525000Y-300635000D02*
X410415000Y-300635000D01*
X404570000Y-167542965D02*
X404570000Y-167770000D01*
X405800000Y-169000000D02*
X409699500Y-169000000D01*
X410415000Y-300635000D02*
X411050000Y-300000000D01*
X402500000Y-165510000D02*
X403360000Y-165510000D01*
%TO.N,HALL_C7R3*%
X434520000Y-167500000D02*
X434520000Y-166670000D01*
X434545000Y-167542965D02*
X434545000Y-167825000D01*
X437500000Y-300635000D02*
X440390000Y-300635000D01*
X435720000Y-169000000D02*
X439674500Y-169000000D01*
X432500000Y-165510000D02*
X433360000Y-165510000D01*
X434545000Y-167825000D02*
X435720000Y-169000000D01*
X434520000Y-166670000D02*
X433800000Y-165950000D01*
X433360000Y-165510000D02*
X433800000Y-165950000D01*
X440390000Y-300635000D02*
X441025000Y-300000000D01*
%TO.N,HALL_C0R4*%
X224520000Y-197500000D02*
X224500000Y-197500000D01*
X224520000Y-197500000D02*
X224520000Y-196670000D01*
X224520000Y-196670000D02*
X223800000Y-195950000D01*
X221700000Y-294600000D02*
X221700000Y-294730000D01*
X223360000Y-195510000D02*
X223800000Y-195950000D01*
X223000000Y-199000000D02*
X221000000Y-199000000D01*
X222500000Y-195510000D02*
X223360000Y-195510000D01*
X224500000Y-197500000D02*
X223000000Y-199000000D01*
X221700000Y-294730000D02*
X222525000Y-295555000D01*
%TO.N,HALL_C1R4*%
X251725000Y-294730000D02*
X252550000Y-295555000D01*
X253360000Y-195510000D02*
X253800000Y-195950000D01*
X251725000Y-294600000D02*
X251725000Y-294730000D01*
X254520000Y-197500000D02*
X254520000Y-196670000D01*
X253025000Y-199000000D02*
X251025000Y-199000000D01*
X254520000Y-196670000D02*
X253800000Y-195950000D01*
X252500000Y-195510000D02*
X253360000Y-195510000D01*
X254525000Y-197500000D02*
X253025000Y-199000000D01*
%TO.N,HALL_C2R4*%
X281725000Y-294730000D02*
X282550000Y-295555000D01*
X283025000Y-199000000D02*
X281025000Y-199000000D01*
X281725000Y-294600000D02*
X281725000Y-294730000D01*
X284525000Y-197500000D02*
X283025000Y-199000000D01*
X283360000Y-195510000D02*
X283800000Y-195950000D01*
X284520000Y-197500000D02*
X284520000Y-196670000D01*
X282500000Y-195510000D02*
X283360000Y-195510000D01*
X284520000Y-196670000D02*
X283800000Y-195950000D01*
%TO.N,HALL_C3R4*%
X311725000Y-294730000D02*
X312550000Y-295555000D01*
X314520000Y-197500000D02*
X314520000Y-196670000D01*
X312500000Y-195510000D02*
X313360000Y-195510000D01*
X314525000Y-197500000D02*
X313025000Y-199000000D01*
X311725000Y-294600000D02*
X311725000Y-294730000D01*
X313360000Y-195510000D02*
X313800000Y-195950000D01*
X314520000Y-196670000D02*
X313800000Y-195950000D01*
X313025000Y-199000000D02*
X311025000Y-199000000D01*
%TO.N,HALL_C4R4*%
X341725000Y-294600000D02*
X341725000Y-294730000D01*
X342500000Y-195510000D02*
X343360000Y-195510000D01*
X344525000Y-197500000D02*
X343025000Y-199000000D01*
X344520000Y-196670000D02*
X343800000Y-195950000D01*
X344520000Y-197500000D02*
X344520000Y-196670000D01*
X343025000Y-199000000D02*
X341025000Y-199000000D01*
X343360000Y-195510000D02*
X343800000Y-195950000D01*
X341725000Y-294730000D02*
X342550000Y-295555000D01*
%TO.N,HALL_C5R4*%
X372500000Y-195510000D02*
X373360000Y-195510000D01*
X371725000Y-294730000D02*
X372550000Y-295555000D01*
X374545000Y-197500000D02*
X374525000Y-197500000D01*
X371725000Y-294600000D02*
X371725000Y-294730000D01*
X373360000Y-195510000D02*
X373800000Y-195950000D01*
X374520000Y-196670000D02*
X373800000Y-195950000D01*
X373025000Y-199000000D02*
X371025000Y-199000000D01*
X374520000Y-197500000D02*
X374520000Y-196670000D01*
X374525000Y-197500000D02*
X373025000Y-199000000D01*
%TO.N,HALL_C6R4*%
X403050000Y-199000000D02*
X401050000Y-199000000D01*
X402500000Y-195510000D02*
X403360000Y-195510000D01*
X403360000Y-195510000D02*
X403800000Y-195950000D01*
X401750000Y-294730000D02*
X402575000Y-295555000D01*
X401750000Y-294600000D02*
X401750000Y-294730000D01*
X404520000Y-197500000D02*
X404520000Y-196670000D01*
X404550000Y-197500000D02*
X403050000Y-199000000D01*
X404520000Y-196670000D02*
X403800000Y-195950000D01*
%TO.N,HALL_C7R4*%
X433360000Y-195510000D02*
X433800000Y-195950000D01*
X431725000Y-294730000D02*
X432550000Y-295555000D01*
X434520000Y-196670000D02*
X433800000Y-195950000D01*
X434525000Y-197500000D02*
X433025000Y-199000000D01*
X432500000Y-195510000D02*
X433360000Y-195510000D01*
X431725000Y-294600000D02*
X431725000Y-294730000D01*
X433025000Y-199000000D02*
X431025000Y-199000000D01*
X434520000Y-197500000D02*
X434520000Y-196670000D01*
%TO.N,HALL_C0R5*%
X221135000Y-300635000D02*
X222525000Y-300635000D01*
X224500000Y-227500000D02*
X223000000Y-229000000D01*
X224520000Y-226670000D02*
X223800000Y-225950000D01*
X224520000Y-227500000D02*
X224520000Y-226670000D01*
X222500000Y-225510000D02*
X223360000Y-225510000D01*
X220900000Y-300400000D02*
X221135000Y-300635000D01*
X223360000Y-225510000D02*
X223800000Y-225950000D01*
X220350500Y-229000000D02*
X223000000Y-229000000D01*
%TO.N,HALL_C1R5*%
X250375500Y-229000000D02*
X253025000Y-229000000D01*
X252500000Y-225510000D02*
X253360000Y-225510000D01*
X254520000Y-226670000D02*
X253800000Y-225950000D01*
X250925000Y-300400000D02*
X251160000Y-300635000D01*
X253360000Y-225510000D02*
X253800000Y-225950000D01*
X254525000Y-227500000D02*
X253025000Y-229000000D01*
X251160000Y-300635000D02*
X252550000Y-300635000D01*
X254520000Y-227500000D02*
X254520000Y-226670000D01*
%TO.N,HALL_C2R5*%
X284525000Y-227500000D02*
X283025000Y-229000000D01*
X281160000Y-300635000D02*
X282550000Y-300635000D01*
X280375500Y-229000000D02*
X283025000Y-229000000D01*
X283360000Y-225510000D02*
X283800000Y-225950000D01*
X284520000Y-227500000D02*
X284520000Y-226670000D01*
X284520000Y-226670000D02*
X283800000Y-225950000D01*
X282500000Y-225510000D02*
X283360000Y-225510000D01*
X280925000Y-300400000D02*
X281160000Y-300635000D01*
%TO.N,HALL_C3R5*%
X310925000Y-300400000D02*
X311160000Y-300635000D01*
X314520000Y-226670000D02*
X313800000Y-225950000D01*
X314520000Y-227500000D02*
X314520000Y-226670000D01*
X311160000Y-300635000D02*
X312550000Y-300635000D01*
X314525000Y-227500000D02*
X313025000Y-229000000D01*
X312500000Y-225510000D02*
X313360000Y-225510000D01*
X310375500Y-229000000D02*
X313025000Y-229000000D01*
X313360000Y-225510000D02*
X313800000Y-225950000D01*
%TO.N,HALL_C4R5*%
X344520000Y-227500000D02*
X344520000Y-226670000D01*
X343360000Y-225510000D02*
X343800000Y-225950000D01*
X341160000Y-300635000D02*
X342550000Y-300635000D01*
X344525000Y-227500000D02*
X343025000Y-229000000D01*
X340925000Y-300400000D02*
X341160000Y-300635000D01*
X340375500Y-229000000D02*
X343025000Y-229000000D01*
X344520000Y-226670000D02*
X343800000Y-225950000D01*
X342500000Y-225510000D02*
X343360000Y-225510000D01*
%TO.N,HALL_C5R5*%
X374520000Y-227500000D02*
X374520000Y-226670000D01*
X372500000Y-225510000D02*
X373360000Y-225510000D01*
X370925000Y-300400000D02*
X371160000Y-300635000D01*
X371160000Y-300635000D02*
X372550000Y-300635000D01*
X374520000Y-226670000D02*
X373800000Y-225950000D01*
X370375500Y-229000000D02*
X373025000Y-229000000D01*
X374525000Y-227500000D02*
X373025000Y-229000000D01*
X373360000Y-225510000D02*
X373800000Y-225950000D01*
%TO.N,HALL_C6R5*%
X401185000Y-300635000D02*
X402575000Y-300635000D01*
X404520000Y-226670000D02*
X403800000Y-225950000D01*
X403360000Y-225510000D02*
X403800000Y-225950000D01*
X404520000Y-227500000D02*
X404520000Y-226670000D01*
X400400500Y-229000000D02*
X403050000Y-229000000D01*
X400950000Y-300400000D02*
X401185000Y-300635000D01*
X402500000Y-225510000D02*
X403360000Y-225510000D01*
X404550000Y-227500000D02*
X403050000Y-229000000D01*
%TO.N,HALL_C7R5*%
X430925000Y-300400000D02*
X431160000Y-300635000D01*
X434525000Y-227500000D02*
X433025000Y-229000000D01*
X434520000Y-227500000D02*
X434520000Y-226670000D01*
X432500000Y-225510000D02*
X433360000Y-225510000D01*
X431160000Y-300635000D02*
X432550000Y-300635000D01*
X430375500Y-229000000D02*
X433025000Y-229000000D01*
X433360000Y-225510000D02*
X433800000Y-225950000D01*
X434520000Y-226670000D02*
X433800000Y-225950000D01*
%TO.N,HALL_C0R6*%
X224500000Y-257500000D02*
X223000000Y-259000000D01*
X222525000Y-296825000D02*
X220375500Y-296825000D01*
X222500000Y-255510000D02*
X223360000Y-255510000D01*
X224520000Y-257500000D02*
X224520000Y-256670000D01*
X219850500Y-259000000D02*
X223000000Y-259000000D01*
X223360000Y-255510000D02*
X223800000Y-255950000D01*
X224520000Y-256670000D02*
X223800000Y-255950000D01*
X220375500Y-296825000D02*
X219850500Y-296300000D01*
%TO.N,HALL_C1R6*%
X249875500Y-259000000D02*
X253025000Y-259000000D01*
X254520000Y-256670000D02*
X253800000Y-255950000D01*
X250400500Y-296825000D02*
X249875500Y-296300000D01*
X252550000Y-296825000D02*
X250400500Y-296825000D01*
X252500000Y-255510000D02*
X253360000Y-255510000D01*
X254525000Y-257500000D02*
X253025000Y-259000000D01*
X253360000Y-255510000D02*
X253800000Y-255950000D01*
X254520000Y-257500000D02*
X254520000Y-256670000D01*
%TO.N,HALL_C2R6*%
X284520000Y-256670000D02*
X283800000Y-255950000D01*
X284525000Y-257500000D02*
X283025000Y-259000000D01*
X284520000Y-257500000D02*
X284520000Y-256670000D01*
X279875500Y-259000000D02*
X283025000Y-259000000D01*
X282550000Y-296825000D02*
X280400500Y-296825000D01*
X283360000Y-255510000D02*
X283800000Y-255950000D01*
X280400500Y-296825000D02*
X279875500Y-296300000D01*
X282500000Y-255510000D02*
X283360000Y-255510000D01*
%TO.N,HALL_C3R6*%
X310400500Y-296825000D02*
X309875500Y-296300000D01*
X314525000Y-257500000D02*
X313025000Y-259000000D01*
X314520000Y-256670000D02*
X313800000Y-255950000D01*
X309875500Y-259000000D02*
X313025000Y-259000000D01*
X312550000Y-296825000D02*
X310400500Y-296825000D01*
X313360000Y-255510000D02*
X313800000Y-255950000D01*
X314520000Y-257500000D02*
X314520000Y-256670000D01*
X312500000Y-255510000D02*
X313360000Y-255510000D01*
%TO.N,HALL_C4R6*%
X344520000Y-257500000D02*
X344520000Y-256670000D01*
X339875500Y-259000000D02*
X343025000Y-259000000D01*
X342550000Y-296825000D02*
X340400500Y-296825000D01*
X344520000Y-256670000D02*
X343800000Y-255950000D01*
X340400500Y-296825000D02*
X339875500Y-296300000D01*
X342500000Y-255510000D02*
X343360000Y-255510000D01*
X344525000Y-257500000D02*
X343025000Y-259000000D01*
X343360000Y-255510000D02*
X343800000Y-255950000D01*
%TO.N,HALL_C5R6*%
X374525000Y-257500000D02*
X373025000Y-259000000D01*
X372500000Y-255510000D02*
X373360000Y-255510000D01*
X374520000Y-256670000D02*
X373800000Y-255950000D01*
X370400500Y-296825000D02*
X369875500Y-296300000D01*
X373360000Y-255510000D02*
X373800000Y-255950000D01*
X369875500Y-259000000D02*
X373025000Y-259000000D01*
X372550000Y-296825000D02*
X370400500Y-296825000D01*
X374520000Y-257500000D02*
X374520000Y-256670000D01*
%TO.N,HALL_C6R6*%
X400425500Y-296825000D02*
X399900500Y-296300000D01*
X399900500Y-259000000D02*
X403050000Y-259000000D01*
X404520000Y-256670000D02*
X403800000Y-255950000D01*
X404550000Y-257500000D02*
X403050000Y-259000000D01*
X404520000Y-257500000D02*
X404520000Y-256670000D01*
X403360000Y-255510000D02*
X403800000Y-255950000D01*
X402575000Y-296825000D02*
X400425500Y-296825000D01*
X402500000Y-255510000D02*
X403360000Y-255510000D01*
%TO.N,HALL_C7R6*%
X432500000Y-255510000D02*
X433360000Y-255510000D01*
X432550000Y-296825000D02*
X430400500Y-296825000D01*
X433360000Y-255510000D02*
X433800000Y-255950000D01*
X434520000Y-257500000D02*
X434520000Y-256670000D01*
X434525000Y-257500000D02*
X433025000Y-259000000D01*
X430400500Y-296825000D02*
X429875500Y-296300000D01*
X429875500Y-259000000D02*
X433025000Y-259000000D01*
X434520000Y-256670000D02*
X433800000Y-255950000D01*
%TO.N,HALL_C0R7*%
X222525000Y-299365000D02*
X222937107Y-299365000D01*
X224520000Y-287500000D02*
X224520000Y-286670000D01*
X224520000Y-286670000D02*
X223800000Y-285950000D01*
X222937107Y-299365000D02*
X224520000Y-297782107D01*
X223360000Y-285510000D02*
X223800000Y-285950000D01*
X222500000Y-285510000D02*
X223360000Y-285510000D01*
X224520000Y-297782107D02*
X224520000Y-287500000D01*
%TO.N,HALL_C1R7*%
X252550000Y-299365000D02*
X252962107Y-299365000D01*
X254545000Y-297782107D02*
X254545000Y-287500000D01*
X252500000Y-285510000D02*
X253360000Y-285510000D01*
X253360000Y-285510000D02*
X253800000Y-285950000D01*
X254520000Y-287500000D02*
X254520000Y-286670000D01*
X254520000Y-286670000D02*
X253800000Y-285950000D01*
X252962107Y-299365000D02*
X254545000Y-297782107D01*
%TO.N,HALL_C2R7*%
X282500000Y-285510000D02*
X283360000Y-285510000D01*
X283360000Y-285510000D02*
X283800000Y-285950000D01*
X282550000Y-299365000D02*
X282962107Y-299365000D01*
X284545000Y-297782107D02*
X284545000Y-287500000D01*
X282962107Y-299365000D02*
X284545000Y-297782107D01*
X284520000Y-286670000D02*
X283800000Y-285950000D01*
X284520000Y-287500000D02*
X284520000Y-286670000D01*
%TO.N,HALL_C3R7*%
X314545000Y-297782107D02*
X314545000Y-287500000D01*
X312962107Y-299365000D02*
X314545000Y-297782107D01*
X312550000Y-299365000D02*
X312962107Y-299365000D01*
X312500000Y-285510000D02*
X313360000Y-285510000D01*
X314520000Y-286670000D02*
X313800000Y-285950000D01*
X314520000Y-287500000D02*
X314520000Y-286670000D01*
X313360000Y-285510000D02*
X313800000Y-285950000D01*
%TO.N,HALL_C4R7*%
X343360000Y-285510000D02*
X343800000Y-285950000D01*
X342962107Y-299365000D02*
X344545000Y-297782107D01*
X344545000Y-297782107D02*
X344545000Y-287500000D01*
X344520000Y-287500000D02*
X344520000Y-286670000D01*
X342550000Y-299365000D02*
X342962107Y-299365000D01*
X344520000Y-286670000D02*
X343800000Y-285950000D01*
X342500000Y-285510000D02*
X343360000Y-285510000D01*
%TO.N,HALL_C5R7*%
X372962107Y-299365000D02*
X374545000Y-297782107D01*
X374545000Y-297782107D02*
X374545000Y-287500000D01*
X372550000Y-299365000D02*
X372962107Y-299365000D01*
X374520000Y-286670000D02*
X373800000Y-285950000D01*
X372500000Y-285510000D02*
X373360000Y-285510000D01*
X374520000Y-287500000D02*
X374520000Y-286670000D01*
X373360000Y-285510000D02*
X373800000Y-285950000D01*
%TO.N,HALL_C6R7*%
X403360000Y-285510000D02*
X403800000Y-285950000D01*
X404520000Y-286670000D02*
X403800000Y-285950000D01*
X404570000Y-297782107D02*
X404570000Y-287500000D01*
X402987107Y-299365000D02*
X404570000Y-297782107D01*
X402575000Y-299365000D02*
X402987107Y-299365000D01*
X404520000Y-287500000D02*
X404520000Y-286670000D01*
X402500000Y-285510000D02*
X403360000Y-285510000D01*
%TO.N,HALL_C7R7*%
X434545000Y-297782107D02*
X434545000Y-287500000D01*
X433360000Y-285510000D02*
X433800000Y-285950000D01*
X432550000Y-299365000D02*
X432962107Y-299365000D01*
X432500000Y-285510000D02*
X433360000Y-285510000D01*
X434520000Y-286670000D02*
X433800000Y-285950000D01*
X434520000Y-287500000D02*
X434520000Y-286670000D01*
X432962107Y-299365000D02*
X434545000Y-297782107D01*
D46*
%TO.N,/PWR_LED_K*%
X456487500Y-342120000D02*
X457790000Y-342120000D01*
D47*
%TO.N,LED_C0*%
X231250000Y-132250000D02*
X231300000Y-132300000D01*
X225787500Y-222250000D02*
X231250000Y-222250000D01*
X225150000Y-327500000D02*
X227015000Y-329365000D01*
X238200000Y-311733681D02*
X225150000Y-324783681D01*
X231250000Y-192250000D02*
X231300000Y-192300000D01*
X231250000Y-72250000D02*
X231300000Y-72300000D01*
X225787500Y-252250000D02*
X231250000Y-252250000D01*
X231350000Y-284799500D02*
X231350000Y-298431468D01*
X227015000Y-329365000D02*
X227475000Y-329365000D01*
X231300000Y-282250000D02*
X225787500Y-282250000D01*
X231250000Y-252250000D02*
X231300000Y-252300000D01*
X225787500Y-192250000D02*
X231250000Y-192250000D01*
X225787500Y-162250000D02*
X231250000Y-162250000D01*
X238200000Y-308549500D02*
X238200000Y-311733681D01*
X225150000Y-324783681D02*
X225150000Y-327500000D01*
X231250000Y-102250000D02*
X231300000Y-102300000D01*
X225787500Y-102250000D02*
X231250000Y-102250000D01*
X231250000Y-162250000D02*
X231300000Y-162300000D01*
X231250000Y-222250000D02*
X231300000Y-222300000D01*
X225787500Y-132250000D02*
X231250000Y-132250000D01*
X225787500Y-72250000D02*
X231250000Y-72250000D01*
X231350000Y-298431468D02*
X238234266Y-305315734D01*
%TO.N,/R0TE*%
X224212500Y-72250000D02*
X224212500Y-71437500D01*
X254212500Y-71437500D02*
X254200000Y-71425000D01*
X374212500Y-72250000D02*
X374212500Y-71437500D01*
X314212500Y-72250000D02*
X314212500Y-71437500D01*
X284212500Y-72250000D02*
X284212500Y-71437500D01*
X254212500Y-72250000D02*
X254212500Y-71437500D01*
X404212500Y-71437500D02*
X404200000Y-71425000D01*
X374212500Y-71437500D02*
X374200000Y-71425000D01*
X344212500Y-71437500D02*
X344200000Y-71425000D01*
X284200000Y-71425000D02*
X314200000Y-71425000D01*
X217625000Y-71425000D02*
X224200000Y-71425000D01*
X344212500Y-72250000D02*
X344212500Y-71437500D01*
X433387500Y-71425000D02*
X434212500Y-72250000D01*
X314212500Y-71437500D02*
X314200000Y-71425000D01*
X224212500Y-71437500D02*
X224200000Y-71425000D01*
X344200000Y-71425000D02*
X374200000Y-71425000D01*
X374200000Y-71425000D02*
X404200000Y-71425000D01*
X404212500Y-72250000D02*
X404212500Y-71437500D01*
X215000000Y-74050000D02*
X217625000Y-71425000D01*
X404200000Y-71425000D02*
X433387500Y-71425000D01*
X224200000Y-71425000D02*
X254200000Y-71425000D01*
X284212500Y-71437500D02*
X284200000Y-71425000D01*
X254200000Y-71425000D02*
X284200000Y-71425000D01*
X314200000Y-71425000D02*
X344200000Y-71425000D01*
%TO.N,LED_C1*%
X254737000Y-283300500D02*
X248600000Y-283300500D01*
X255787500Y-72250000D02*
X261250000Y-72250000D01*
X226995000Y-328095000D02*
X227475000Y-328095000D01*
X261250000Y-192250000D02*
X261300000Y-192300000D01*
X239050000Y-311590787D02*
X225650000Y-324990787D01*
X239182512Y-305500000D02*
X239033012Y-305350500D01*
X261250000Y-252250000D02*
X261300000Y-252300000D01*
X261250000Y-162250000D02*
X261300000Y-162300000D01*
X244000000Y-305500000D02*
X239182512Y-305500000D01*
X248600000Y-284799500D02*
X248600000Y-300900000D01*
X255787500Y-282250000D02*
X254737000Y-283300500D01*
X261250000Y-132250000D02*
X261300000Y-132300000D01*
X261300000Y-282250000D02*
X255787500Y-282250000D01*
X261250000Y-72250000D02*
X261300000Y-72300000D01*
X255787500Y-162250000D02*
X261250000Y-162250000D01*
X255787500Y-222250000D02*
X261250000Y-222250000D01*
X255787500Y-132250000D02*
X261250000Y-132250000D01*
X248600000Y-300900000D02*
X244000000Y-305500000D01*
X255787500Y-252250000D02*
X261250000Y-252250000D01*
X255787500Y-192250000D02*
X261250000Y-192250000D01*
X261250000Y-222250000D02*
X261300000Y-222300000D01*
X261250000Y-102250000D02*
X261300000Y-102300000D01*
X239050000Y-308549500D02*
X239050000Y-311590787D01*
X225650000Y-324990787D02*
X225650000Y-326750000D01*
X225650000Y-326750000D02*
X226995000Y-328095000D01*
X255787500Y-102250000D02*
X261250000Y-102250000D01*
%TO.N,LED_C2*%
X279050000Y-284799500D02*
X277150000Y-286699500D01*
X285787500Y-102250000D02*
X291250000Y-102250000D01*
X256750000Y-308549500D02*
X242798393Y-308549500D01*
X277150000Y-286699500D02*
X277150000Y-305355500D01*
X285787500Y-132250000D02*
X291250000Y-132250000D01*
X291250000Y-252250000D02*
X291300000Y-252300000D01*
X285787500Y-192250000D02*
X291250000Y-192250000D01*
X291250000Y-102250000D02*
X291300000Y-102300000D01*
X291300000Y-282250000D02*
X285787500Y-282250000D01*
X242798393Y-308549500D02*
X226150000Y-325197893D01*
X285787500Y-282250000D02*
X284737000Y-283300500D01*
X291250000Y-192250000D02*
X291300000Y-192300000D01*
X226150000Y-325912107D02*
X227062893Y-326825000D01*
X291250000Y-72250000D02*
X291300000Y-72300000D01*
X291250000Y-162250000D02*
X291300000Y-162300000D01*
X259515213Y-306750500D02*
X256899500Y-306750500D01*
X285787500Y-222250000D02*
X291250000Y-222250000D01*
X256899500Y-306750500D02*
X256750000Y-306601000D01*
X277150000Y-307654500D02*
X260419212Y-307654500D01*
X227062893Y-326825000D02*
X227475000Y-326825000D01*
X285787500Y-72250000D02*
X291250000Y-72250000D01*
X285787500Y-162250000D02*
X291250000Y-162250000D01*
X226150000Y-325197893D02*
X226150000Y-325912107D01*
X291250000Y-222250000D02*
X291300000Y-222300000D01*
X284737000Y-283300500D02*
X279100000Y-283300500D01*
X291250000Y-132250000D02*
X291300000Y-132300000D01*
X260419212Y-307654500D02*
X259515213Y-306750500D01*
X285787500Y-252250000D02*
X291250000Y-252250000D01*
%TO.N,LED_C3*%
X315787500Y-282250000D02*
X314737000Y-283300500D01*
X269600000Y-316510000D02*
X269600000Y-316600000D01*
X321250000Y-192250000D02*
X321300000Y-192300000D01*
X315787500Y-72250000D02*
X321250000Y-72250000D01*
X321250000Y-162250000D02*
X321300000Y-162300000D01*
X315787500Y-132250000D02*
X321250000Y-132250000D01*
X278605000Y-307505000D02*
X296595000Y-307505000D01*
X315787500Y-102250000D02*
X321250000Y-102250000D01*
X321250000Y-102250000D02*
X321300000Y-102300000D01*
X309200000Y-293100000D02*
X297619266Y-304680734D01*
X314737000Y-283300500D02*
X309200000Y-283300500D01*
X278605000Y-307505000D02*
X269600000Y-316510000D01*
X321250000Y-132250000D02*
X321300000Y-132300000D01*
X309200000Y-284799500D02*
X309200000Y-293100000D01*
X296893628Y-307206372D02*
X296595000Y-307505000D01*
X315787500Y-252250000D02*
X321250000Y-252250000D01*
X321250000Y-252250000D02*
X321300000Y-252300000D01*
X315787500Y-162250000D02*
X321250000Y-162250000D01*
X321250000Y-72250000D02*
X321300000Y-72300000D01*
X315787500Y-222250000D02*
X321250000Y-222250000D01*
X268315984Y-317884016D02*
X240638091Y-317884016D01*
X315787500Y-192250000D02*
X321250000Y-192250000D01*
X227887107Y-330635000D02*
X227475000Y-330635000D01*
X321250000Y-222250000D02*
X321300000Y-222300000D01*
X321300000Y-282250000D02*
X315787500Y-282250000D01*
X240638091Y-317884016D02*
X227887107Y-330635000D01*
%TO.N,LED_C4*%
X345787500Y-192250000D02*
X351250000Y-192250000D01*
X351250000Y-162250000D02*
X351300000Y-162300000D01*
X345787500Y-222250000D02*
X351250000Y-222250000D01*
X222520000Y-325550000D02*
X222525000Y-325555000D01*
X351250000Y-222250000D02*
X351300000Y-222300000D01*
X345787500Y-102250000D02*
X351250000Y-102250000D01*
X218400000Y-325550000D02*
X222520000Y-325550000D01*
X351250000Y-72250000D02*
X351300000Y-72300000D01*
X348400000Y-254862500D02*
X348400000Y-259650000D01*
X345787500Y-162250000D02*
X351250000Y-162250000D01*
X351250000Y-252250000D02*
X351300000Y-252300000D01*
X225229500Y-265150000D02*
X211229500Y-279150000D01*
X345787500Y-252250000D02*
X351250000Y-252250000D01*
X351250000Y-102250000D02*
X351300000Y-102300000D01*
X345787500Y-72250000D02*
X351250000Y-72250000D01*
X345787500Y-252250000D02*
X348400000Y-254862500D01*
X225229500Y-265150000D02*
X342900000Y-265150000D01*
X342900000Y-265150000D02*
X348400000Y-259650000D01*
X351300000Y-282250000D02*
X345787500Y-282250000D01*
X345787500Y-132250000D02*
X351250000Y-132250000D01*
X351250000Y-132250000D02*
X351300000Y-132300000D01*
X351250000Y-192250000D02*
X351300000Y-192300000D01*
%TO.N,LED_C5*%
X226055452Y-265650000D02*
X211879000Y-279826452D01*
X375787500Y-192250000D02*
X381250000Y-192250000D01*
X375787500Y-222250000D02*
X381250000Y-222250000D01*
X381250000Y-162250000D02*
X381300000Y-162300000D01*
X375787500Y-72250000D02*
X381250000Y-72250000D01*
X375787500Y-252250000D02*
X381250000Y-252250000D01*
X381250000Y-252250000D02*
X381300000Y-252300000D01*
X377350000Y-254062500D02*
X377350000Y-257900000D01*
X381250000Y-102250000D02*
X381300000Y-102300000D01*
X226055452Y-265650000D02*
X369600000Y-265650000D01*
X381250000Y-222250000D02*
X381300000Y-222300000D01*
X381250000Y-192250000D02*
X381300000Y-192300000D01*
X375787500Y-132250000D02*
X381250000Y-132250000D01*
X219100000Y-330650000D02*
X222510000Y-330650000D01*
X375787500Y-252500000D02*
X377350000Y-254062500D01*
X377350000Y-257900000D02*
X369600000Y-265650000D01*
X381250000Y-132250000D02*
X381300000Y-132300000D01*
X375787500Y-102250000D02*
X381250000Y-102250000D01*
X375787500Y-162250000D02*
X381250000Y-162250000D01*
X381250000Y-72250000D02*
X381300000Y-72300000D01*
X381300000Y-282250000D02*
X375787500Y-282250000D01*
X222510000Y-330650000D02*
X222525000Y-330635000D01*
%TO.N,LED_C6*%
X405787500Y-162250000D02*
X411250000Y-162250000D01*
X411250000Y-102250000D02*
X411300000Y-102300000D01*
X405787500Y-192250000D02*
X411250000Y-192250000D01*
X411300000Y-282250000D02*
X405787500Y-282250000D01*
X405787500Y-102250000D02*
X411250000Y-102250000D01*
X411250000Y-222250000D02*
X411300000Y-222300000D01*
X405787500Y-222250000D02*
X411250000Y-222250000D01*
X411250000Y-192250000D02*
X411300000Y-192300000D01*
X222500000Y-326850000D02*
X222525000Y-326825000D01*
X405787500Y-72250000D02*
X411250000Y-72250000D01*
X411250000Y-72250000D02*
X411300000Y-72300000D01*
X411250000Y-132250000D02*
X411300000Y-132300000D01*
X405787500Y-252250000D02*
X407350000Y-253812500D01*
X405787500Y-132250000D02*
X411250000Y-132250000D01*
X407350000Y-253812500D02*
X407350000Y-257900000D01*
X407350000Y-257900000D02*
X399100000Y-266150000D01*
X219749500Y-326850000D02*
X222500000Y-326850000D01*
X405787500Y-252250000D02*
X411250000Y-252250000D01*
X411250000Y-252250000D02*
X411300000Y-252300000D01*
X226682535Y-266150000D02*
X399100000Y-266150000D01*
X411250000Y-162250000D02*
X411300000Y-162300000D01*
X226682535Y-266150000D02*
X212487519Y-280345016D01*
%TO.N,LED_C7*%
X441250000Y-192250000D02*
X441300000Y-192300000D01*
X441250000Y-252250000D02*
X441300000Y-252300000D01*
X441250000Y-162250000D02*
X441300000Y-162300000D01*
X441250000Y-222250000D02*
X441300000Y-222300000D01*
X435787500Y-132250000D02*
X441250000Y-132250000D01*
X220350000Y-329350000D02*
X222510000Y-329350000D01*
X441250000Y-102250000D02*
X441300000Y-102300000D01*
X441300000Y-282250000D02*
X435787500Y-282250000D01*
X227350000Y-266650000D02*
X213200000Y-280800000D01*
X435787500Y-252250000D02*
X437350000Y-253812500D01*
X222510000Y-329350000D02*
X222525000Y-329365000D01*
X441250000Y-132250000D02*
X441300000Y-132300000D01*
X227350000Y-266650000D02*
X428750000Y-266650000D01*
X437350000Y-253812500D02*
X437350000Y-258050000D01*
X435787500Y-192250000D02*
X441250000Y-192250000D01*
X435787500Y-72250000D02*
X441250000Y-72250000D01*
X441250000Y-72250000D02*
X441300000Y-72300000D01*
X435787500Y-102250000D02*
X441250000Y-102250000D01*
X435787500Y-162250000D02*
X441250000Y-162250000D01*
X435787500Y-222250000D02*
X441250000Y-222250000D01*
X437350000Y-258050000D02*
X428750000Y-266650000D01*
X435787500Y-252250000D02*
X441250000Y-252250000D01*
%TO.N,/R1TE*%
X344212500Y-101437500D02*
X344200000Y-101425000D01*
X217625000Y-101425000D02*
X224200000Y-101425000D01*
X254200000Y-101425000D02*
X284200000Y-101425000D01*
X404200000Y-101425000D02*
X433387500Y-101425000D01*
X284212500Y-101437500D02*
X284200000Y-101425000D01*
X314212500Y-101437500D02*
X314200000Y-101425000D01*
X224212500Y-102250000D02*
X224212500Y-101437500D01*
X224212500Y-101437500D02*
X224200000Y-101425000D01*
X254212500Y-101437500D02*
X254200000Y-101425000D01*
X374200000Y-101425000D02*
X404200000Y-101425000D01*
X314200000Y-101425000D02*
X344200000Y-101425000D01*
X433387500Y-101425000D02*
X434212500Y-102250000D01*
X374212500Y-102250000D02*
X374212500Y-101437500D01*
X344212500Y-102250000D02*
X344212500Y-101437500D01*
X284200000Y-101425000D02*
X314200000Y-101425000D01*
X254212500Y-102250000D02*
X254212500Y-101437500D01*
X215000000Y-104050000D02*
X217625000Y-101425000D01*
X404212500Y-102250000D02*
X404212500Y-101437500D01*
X374212500Y-101437500D02*
X374200000Y-101425000D01*
X404212500Y-101437500D02*
X404200000Y-101425000D01*
X224200000Y-101425000D02*
X254200000Y-101425000D01*
X344200000Y-101425000D02*
X374200000Y-101425000D01*
X314212500Y-102250000D02*
X314212500Y-101437500D01*
X284212500Y-102250000D02*
X284212500Y-101437500D01*
%TO.N,/R2TE*%
X217600000Y-131425000D02*
X224175000Y-131425000D01*
X254187500Y-132250000D02*
X254187500Y-131437500D01*
X344187500Y-131437500D02*
X344175000Y-131425000D01*
X254175000Y-131425000D02*
X284175000Y-131425000D01*
X284187500Y-131437500D02*
X284175000Y-131425000D01*
X314187500Y-131437500D02*
X314175000Y-131425000D01*
X284187500Y-132250000D02*
X284187500Y-131437500D01*
X404187500Y-131437500D02*
X404175000Y-131425000D01*
X404175000Y-131425000D02*
X433362500Y-131425000D01*
X284175000Y-131425000D02*
X314175000Y-131425000D01*
X224187500Y-131437500D02*
X224175000Y-131425000D01*
X314187500Y-132250000D02*
X314187500Y-131437500D01*
X404187500Y-132250000D02*
X404187500Y-131437500D01*
X224175000Y-131425000D02*
X254175000Y-131425000D01*
X254187500Y-131437500D02*
X254175000Y-131425000D01*
X214975000Y-134050000D02*
X217600000Y-131425000D01*
X344175000Y-131425000D02*
X374175000Y-131425000D01*
X314175000Y-131425000D02*
X344175000Y-131425000D01*
X433362500Y-131425000D02*
X434187500Y-132250000D01*
X344187500Y-132250000D02*
X344187500Y-131437500D01*
X374175000Y-131425000D02*
X404175000Y-131425000D01*
X374187500Y-132250000D02*
X374187500Y-131437500D01*
X224187500Y-132250000D02*
X224187500Y-131437500D01*
X374187500Y-131437500D02*
X374175000Y-131425000D01*
%TO.N,/R3TE*%
X314187500Y-161437500D02*
X314175000Y-161425000D01*
X404187500Y-162250000D02*
X404187500Y-161437500D01*
X374175000Y-161425000D02*
X404175000Y-161425000D01*
X214975000Y-164050000D02*
X217600000Y-161425000D01*
X254187500Y-162250000D02*
X254187500Y-161437500D01*
X374187500Y-161437500D02*
X374175000Y-161425000D01*
X217600000Y-161425000D02*
X224175000Y-161425000D01*
X284187500Y-162250000D02*
X284187500Y-161437500D01*
X254175000Y-161425000D02*
X284175000Y-161425000D01*
X404187500Y-161437500D02*
X404175000Y-161425000D01*
X404175000Y-161425000D02*
X433362500Y-161425000D01*
X433362500Y-161425000D02*
X434187500Y-162250000D01*
X314187500Y-162250000D02*
X314187500Y-161437500D01*
X284187500Y-161437500D02*
X284175000Y-161425000D01*
X374187500Y-162250000D02*
X374187500Y-161437500D01*
X344175000Y-161425000D02*
X374175000Y-161425000D01*
X344187500Y-162250000D02*
X344187500Y-161437500D01*
X224187500Y-162250000D02*
X224187500Y-161437500D01*
X284175000Y-161425000D02*
X314175000Y-161425000D01*
X224187500Y-161437500D02*
X224175000Y-161425000D01*
X314175000Y-161425000D02*
X344175000Y-161425000D01*
X224175000Y-161425000D02*
X254175000Y-161425000D01*
X254187500Y-161437500D02*
X254175000Y-161425000D01*
X344187500Y-161437500D02*
X344175000Y-161425000D01*
%TO.N,/R4TE*%
X254187500Y-192250000D02*
X254187500Y-191437500D01*
X217600000Y-191425000D02*
X224175000Y-191425000D01*
X314187500Y-192250000D02*
X314187500Y-191437500D01*
X344175000Y-191425000D02*
X374175000Y-191425000D01*
X224187500Y-192250000D02*
X224187500Y-191437500D01*
X344187500Y-192250000D02*
X344187500Y-191437500D01*
X404175000Y-191425000D02*
X433362500Y-191425000D01*
X254175000Y-191425000D02*
X284175000Y-191425000D01*
X314187500Y-191437500D02*
X314175000Y-191425000D01*
X374187500Y-191437500D02*
X374175000Y-191425000D01*
X344187500Y-191437500D02*
X344175000Y-191425000D01*
X214975000Y-194050000D02*
X217600000Y-191425000D01*
X224187500Y-191437500D02*
X224175000Y-191425000D01*
X404187500Y-191437500D02*
X404175000Y-191425000D01*
X284175000Y-191425000D02*
X314175000Y-191425000D01*
X224175000Y-191425000D02*
X254175000Y-191425000D01*
X433362500Y-191425000D02*
X434187500Y-192250000D01*
X314175000Y-191425000D02*
X344175000Y-191425000D01*
X374175000Y-191425000D02*
X404175000Y-191425000D01*
X284187500Y-191437500D02*
X284175000Y-191425000D01*
X284187500Y-192250000D02*
X284187500Y-191437500D01*
X254187500Y-191437500D02*
X254175000Y-191425000D01*
X404187500Y-192250000D02*
X404187500Y-191437500D01*
X374187500Y-192250000D02*
X374187500Y-191437500D01*
%TO.N,/R5TE*%
X344175000Y-221425000D02*
X374175000Y-221425000D01*
X284187500Y-221437500D02*
X284175000Y-221425000D01*
X224187500Y-221437500D02*
X224175000Y-221425000D01*
X404187500Y-221437500D02*
X404175000Y-221425000D01*
X314187500Y-221437500D02*
X314175000Y-221425000D01*
X374175000Y-221425000D02*
X404175000Y-221425000D01*
X254187500Y-222250000D02*
X254187500Y-221437500D01*
X254187500Y-221437500D02*
X254175000Y-221425000D01*
X254175000Y-221425000D02*
X284175000Y-221425000D01*
X433362500Y-221425000D02*
X434187500Y-222250000D01*
X224187500Y-222250000D02*
X224187500Y-221437500D01*
X344187500Y-221437500D02*
X344175000Y-221425000D01*
X404187500Y-222250000D02*
X404187500Y-221437500D01*
X217600000Y-221425000D02*
X224175000Y-221425000D01*
X284175000Y-221425000D02*
X314175000Y-221425000D01*
X314187500Y-222250000D02*
X314187500Y-221437500D01*
X344187500Y-222250000D02*
X344187500Y-221437500D01*
X374187500Y-222250000D02*
X374187500Y-221437500D01*
X224175000Y-221425000D02*
X254175000Y-221425000D01*
X214975000Y-224050000D02*
X217600000Y-221425000D01*
X314175000Y-221425000D02*
X344175000Y-221425000D01*
X404175000Y-221425000D02*
X433362500Y-221425000D01*
X284187500Y-222250000D02*
X284187500Y-221437500D01*
X374187500Y-221437500D02*
X374175000Y-221425000D01*
%TO.N,/R6TE*%
X344175000Y-251425000D02*
X374175000Y-251425000D01*
X404187500Y-252250000D02*
X404187500Y-251437500D01*
X224175000Y-251425000D02*
X254175000Y-251425000D01*
X314187500Y-252250000D02*
X314187500Y-251437500D01*
X284187500Y-251437500D02*
X284175000Y-251425000D01*
X254175000Y-251425000D02*
X284175000Y-251425000D01*
X314175000Y-251425000D02*
X344175000Y-251425000D01*
X404175000Y-251425000D02*
X433362500Y-251425000D01*
X224187500Y-251437500D02*
X224175000Y-251425000D01*
X404187500Y-251437500D02*
X404175000Y-251425000D01*
X214975000Y-254050000D02*
X217600000Y-251425000D01*
X344187500Y-252250000D02*
X344187500Y-251437500D01*
X224187500Y-252250000D02*
X224187500Y-251437500D01*
X254187500Y-252250000D02*
X254187500Y-251437500D01*
X344187500Y-251437500D02*
X344175000Y-251425000D01*
X314187500Y-251437500D02*
X314175000Y-251425000D01*
X374187500Y-252250000D02*
X374187500Y-251437500D01*
X284187500Y-252250000D02*
X284187500Y-251437500D01*
X374175000Y-251425000D02*
X404175000Y-251425000D01*
X284175000Y-251425000D02*
X314175000Y-251425000D01*
X217600000Y-251425000D02*
X224175000Y-251425000D01*
X374187500Y-251437500D02*
X374175000Y-251425000D01*
X433362500Y-251425000D02*
X434187500Y-252250000D01*
X254187500Y-251437500D02*
X254175000Y-251425000D01*
%TO.N,/R7TE*%
X374175000Y-281425000D02*
X404175000Y-281425000D01*
X374187500Y-282250000D02*
X374187500Y-281437500D01*
X217600000Y-281425000D02*
X224175000Y-281425000D01*
X254187500Y-281437500D02*
X254175000Y-281425000D01*
X344187500Y-281437500D02*
X344175000Y-281425000D01*
X314187500Y-282250000D02*
X314187500Y-281437500D01*
X314175000Y-281425000D02*
X344175000Y-281425000D01*
X224175000Y-281425000D02*
X254175000Y-281425000D01*
X433362500Y-281425000D02*
X434187500Y-282250000D01*
X404187500Y-282250000D02*
X404187500Y-281437500D01*
X224187500Y-281437500D02*
X224175000Y-281425000D01*
X374187500Y-281437500D02*
X374175000Y-281425000D01*
X214975000Y-284050000D02*
X217600000Y-281425000D01*
X284187500Y-282250000D02*
X284187500Y-281437500D01*
X254175000Y-281425000D02*
X284175000Y-281425000D01*
X344175000Y-281425000D02*
X374175000Y-281425000D01*
X284175000Y-281425000D02*
X314175000Y-281425000D01*
X344187500Y-282250000D02*
X344187500Y-281437500D01*
X284187500Y-281437500D02*
X284175000Y-281425000D01*
X404187500Y-281437500D02*
X404175000Y-281425000D01*
X224187500Y-282250000D02*
X224187500Y-281437500D01*
X254187500Y-282250000D02*
X254187500Y-281437500D01*
X314187500Y-281437500D02*
X314175000Y-281425000D01*
X404175000Y-281425000D02*
X433362500Y-281425000D01*
%TO.N,/CONT_1*%
X288299000Y-345000000D02*
X291200000Y-342099000D01*
X303080000Y-319375500D02*
X303080000Y-315000000D01*
X286450000Y-345000000D02*
X288299000Y-345000000D01*
X291200000Y-331255500D02*
X303080000Y-319375500D01*
D49*
%TO.N,/USB_CC1*%
X458520000Y-331270000D02*
X457850000Y-331270000D01*
X459260000Y-336500000D02*
X459500000Y-336500000D01*
X460200000Y-335800000D02*
X460200000Y-332950000D01*
X459500000Y-336500000D02*
X460200000Y-335800000D01*
X460200000Y-332950000D02*
X458520000Y-331270000D01*
%TO.N,USB_D-*%
X446468751Y-330357500D02*
X446493751Y-330332500D01*
X446493751Y-330332500D02*
X450922206Y-330332500D01*
X451306249Y-330295000D02*
X452031249Y-331020000D01*
X450959706Y-330295000D02*
X451306249Y-330295000D01*
X450922206Y-330332500D02*
X450959706Y-330295000D01*
X452031249Y-331020000D02*
X453025000Y-331020000D01*
X445362500Y-330357500D02*
X446468751Y-330357500D01*
%TO.N,USB_D+*%
X445362500Y-329857500D02*
X446468751Y-329857500D01*
X450787500Y-329845000D02*
X451306249Y-329845000D01*
X452031249Y-329120000D02*
X453025000Y-329120000D01*
X451306249Y-329845000D02*
X452031249Y-329120000D01*
X446468751Y-329857500D02*
X446493751Y-329882500D01*
X450750000Y-329882500D02*
X450787500Y-329845000D01*
X446493751Y-329882500D02*
X450750000Y-329882500D01*
%TO.N,/USB_CC2*%
X458675000Y-328270000D02*
X460200000Y-326745000D01*
X460200000Y-324940000D02*
X458760000Y-323500000D01*
X460200000Y-326745000D02*
X460200000Y-324940000D01*
X457850000Y-328270000D02*
X458675000Y-328270000D01*
D47*
%TO.N,/SWCLK*%
X443950000Y-326147500D02*
X446240000Y-323857500D01*
X443950000Y-326945000D02*
X443950000Y-326147500D01*
%TO.N,/SWDIO*%
X444250000Y-329083541D02*
X444250000Y-328131459D01*
X445362500Y-329357500D02*
X444523959Y-329357500D01*
X444250000Y-328131459D02*
X448523959Y-323857500D01*
X444523959Y-329357500D02*
X444250000Y-329083541D01*
X448523959Y-323857500D02*
X448780000Y-323857500D01*
%TO.N,/R0TB*%
X215500000Y-76450000D02*
X215000000Y-75950000D01*
X215500000Y-77490000D02*
X215500000Y-76450000D01*
%TO.N,/R0TC*%
X211500000Y-75000000D02*
X213125000Y-75000000D01*
%TO.N,/R1TB*%
X215500000Y-107490000D02*
X215500000Y-106450000D01*
X215500000Y-106450000D02*
X215000000Y-105950000D01*
%TO.N,/R1TC*%
X211500000Y-105000000D02*
X213125000Y-105000000D01*
%TO.N,/R2TB*%
X215475000Y-137490000D02*
X215475000Y-136450000D01*
X215475000Y-136450000D02*
X214975000Y-135950000D01*
%TO.N,/R2TC*%
X211475000Y-135000000D02*
X213100000Y-135000000D01*
%TO.N,/R3TB*%
X215475000Y-166450000D02*
X214975000Y-165950000D01*
X215475000Y-167490000D02*
X215475000Y-166450000D01*
%TO.N,/R3TC*%
X211475000Y-165000000D02*
X213100000Y-165000000D01*
%TO.N,/R4TB*%
X215475000Y-196450000D02*
X214975000Y-195950000D01*
X215475000Y-197490000D02*
X215475000Y-196450000D01*
%TO.N,/R4TC*%
X211475000Y-195000000D02*
X213100000Y-195000000D01*
%TO.N,/R5TB*%
X215475000Y-227490000D02*
X215475000Y-226450000D01*
X215475000Y-226450000D02*
X214975000Y-225950000D01*
%TO.N,/R5TC*%
X211475000Y-225000000D02*
X213100000Y-225000000D01*
%TO.N,/R6TB*%
X215475000Y-257490000D02*
X215475000Y-256450000D01*
X215475000Y-256450000D02*
X214975000Y-255950000D01*
%TO.N,/R6TC*%
X211475000Y-255000000D02*
X213100000Y-255000000D01*
%TO.N,/R7TB*%
X215475000Y-287490000D02*
X215475000Y-286450000D01*
X215475000Y-286450000D02*
X214975000Y-285950000D01*
%TO.N,/R7TC*%
X211475000Y-285000000D02*
X213100000Y-285000000D01*
%TO.N,/BOOT0*%
X434960000Y-326107500D02*
X436273959Y-326107500D01*
X440201041Y-328032500D02*
X440450000Y-327783541D01*
X438198959Y-328032500D02*
X440201041Y-328032500D01*
X436273959Y-326107500D02*
X438198959Y-328032500D01*
X440450000Y-327783541D02*
X440450000Y-326945000D01*
%TO.N,LED_R0*%
X225100000Y-313600000D02*
X225865000Y-314365000D01*
X225865000Y-314365000D02*
X227475000Y-314365000D01*
X215500000Y-78510000D02*
X215500000Y-79400000D01*
%TO.N,LED_R1*%
X225900000Y-313100000D02*
X225905000Y-313095000D01*
X225905000Y-313095000D02*
X227475000Y-313095000D01*
X215500000Y-108510000D02*
X215500000Y-109250500D01*
X215500000Y-109250500D02*
X216149500Y-109900000D01*
%TO.N,LED_R2*%
X225900000Y-311825000D02*
X227475000Y-311825000D01*
X215500000Y-138750500D02*
X216649500Y-139900000D01*
X215500000Y-138510000D02*
X215500000Y-138750500D01*
%TO.N,LED_R3*%
X215659500Y-168510000D02*
X217149500Y-170000000D01*
X227440000Y-315600000D02*
X227475000Y-315635000D01*
X225900000Y-315600000D02*
X227440000Y-315600000D01*
X215500000Y-168510000D02*
X215659500Y-168510000D01*
%TO.N,LED_R4*%
X222525000Y-310555000D02*
X221136468Y-310555000D01*
X215500000Y-198510000D02*
X215500000Y-198750500D01*
X221136468Y-310555000D02*
X220690734Y-310109266D01*
X215500000Y-198750500D02*
X214850500Y-199400000D01*
%TO.N,LED_R5*%
X215500000Y-228510000D02*
X215140500Y-228510000D01*
X215140500Y-228510000D02*
X214350500Y-229300000D01*
X222490000Y-315600000D02*
X222525000Y-315635000D01*
X220900000Y-315600000D02*
X222490000Y-315600000D01*
%TO.N,LED_R6*%
X214940500Y-258510000D02*
X213850500Y-259600000D01*
X220827816Y-311825000D02*
X222525000Y-311825000D01*
X215500000Y-258510000D02*
X214940500Y-258510000D01*
%TO.N,LED_R7*%
X221365000Y-314365000D02*
X222525000Y-314365000D01*
X215500000Y-288510000D02*
X215500000Y-308500000D01*
X215500000Y-308500000D02*
X221365000Y-314365000D01*
%TO.N,LCD_RS*%
X441950000Y-335270000D02*
X441950000Y-337771318D01*
X441950000Y-337771318D02*
X436621819Y-343099500D01*
X328024000Y-328474500D02*
X335200000Y-335650500D01*
X319094500Y-328474500D02*
X328024000Y-328474500D01*
X336850000Y-343099500D02*
X335200000Y-341449500D01*
X436621819Y-343099500D02*
X336850000Y-343099500D01*
X305620000Y-315000000D02*
X319094500Y-328474500D01*
%TO.N,LCD_LATCH*%
X375000000Y-334600000D02*
X373800000Y-335800000D01*
X377475000Y-330635000D02*
X378235000Y-330635000D01*
X440950000Y-335270000D02*
X440950000Y-337357106D01*
X377475000Y-330635000D02*
X377062893Y-330635000D01*
X378235000Y-330635000D02*
X380440734Y-332840734D01*
X373800000Y-335800000D02*
X339400000Y-335800000D01*
X339400000Y-335800000D02*
X331574500Y-327974500D01*
X440950000Y-337357106D02*
X436207606Y-342099500D01*
X380600000Y-341569236D02*
X380600000Y-341449500D01*
X323674500Y-327974500D02*
X310700000Y-315000000D01*
X377062893Y-330635000D02*
X375000000Y-332697893D01*
X375000000Y-332697893D02*
X375000000Y-334600000D01*
X331574500Y-327974500D02*
X323674500Y-327974500D01*
X381130264Y-342099500D02*
X380600000Y-341569236D01*
X436207606Y-342099500D02*
X381130264Y-342099500D01*
%TO.N,SELECTED_HALL*%
X445362500Y-339330394D02*
X445362500Y-333857500D01*
X334280761Y-341449500D02*
X336430761Y-343599500D01*
X280200000Y-341449500D02*
X334280761Y-341449500D01*
X282112893Y-328095000D02*
X280200000Y-330007893D01*
X280200000Y-330007893D02*
X280200000Y-337150500D01*
X441093394Y-343599500D02*
X445362500Y-339330394D01*
X282525000Y-328095000D02*
X282112893Y-328095000D01*
X336430761Y-343599500D02*
X441093394Y-343599500D01*
%TO.N,GRID_LATCH*%
X407062893Y-315635000D02*
X404200000Y-318497893D01*
X438950000Y-336363940D02*
X438950000Y-335270000D01*
X407475000Y-315635000D02*
X407062893Y-315635000D01*
X404200000Y-318497893D02*
X404200000Y-324255500D01*
X407440000Y-330600000D02*
X407475000Y-330635000D01*
X435013941Y-340300000D02*
X438950000Y-336363940D01*
X405800000Y-330600000D02*
X404700000Y-331700000D01*
X405800000Y-330600000D02*
X407440000Y-330600000D01*
X408392894Y-340300000D02*
X435013941Y-340300000D01*
X404700000Y-336607106D02*
X408392894Y-340300000D01*
X404700000Y-331700000D02*
X404700000Y-336607106D01*
%TO.N,GRID_SER_DATA*%
X405905000Y-328095000D02*
X407475000Y-328095000D01*
X439450000Y-335270000D02*
X439450000Y-336571046D01*
X404200000Y-329800000D02*
X405905000Y-328095000D01*
X408185787Y-340800000D02*
X404200000Y-336814212D01*
X435221048Y-340800000D02*
X408185787Y-340800000D01*
X439450000Y-336571046D02*
X435221048Y-340800000D01*
X404200000Y-336814212D02*
X404200000Y-329800000D01*
%TO.N,GRID_SER_CLK*%
X434911834Y-339695000D02*
X408495000Y-339695000D01*
X407887107Y-331905000D02*
X407475000Y-331905000D01*
X434911834Y-339695000D02*
X438450000Y-336156834D01*
X407475000Y-331905000D02*
X406095000Y-331905000D01*
X407887107Y-316905000D02*
X408800000Y-317817893D01*
X406095000Y-331905000D02*
X405200000Y-332800000D01*
X407475000Y-316905000D02*
X407887107Y-316905000D01*
X408800000Y-330992107D02*
X407887107Y-331905000D01*
X405200000Y-332800000D02*
X405200000Y-336400000D01*
X405200000Y-336400000D02*
X408495000Y-339695000D01*
X438450000Y-336156834D02*
X438450000Y-335270000D01*
X408800000Y-317817893D02*
X408800000Y-330992107D01*
%TO.N,LED_ROW_B*%
X394947840Y-333359266D02*
X395159266Y-333359266D01*
X227062893Y-318175000D02*
X221937893Y-323300000D01*
X221937893Y-323300000D02*
X218700000Y-323300000D01*
X216700000Y-325300000D02*
X216700000Y-331207106D01*
X394240734Y-332440734D02*
X401126468Y-325555000D01*
X223792894Y-338300000D02*
X390007106Y-338300000D01*
X218700000Y-323300000D02*
X216700000Y-325300000D01*
X227475000Y-318175000D02*
X227062893Y-318175000D01*
X401126468Y-325555000D02*
X402525000Y-325555000D01*
X390007106Y-338300000D02*
X394947840Y-333359266D01*
X216700000Y-331207106D02*
X223792894Y-338300000D01*
%TO.N,LED_ROW_C*%
X224000000Y-337800000D02*
X389800000Y-337800000D01*
X217200000Y-331000000D02*
X224000000Y-337800000D01*
X400775000Y-326825000D02*
X402525000Y-326825000D01*
X227475000Y-319445000D02*
X223120000Y-323800000D01*
X223120000Y-323800000D02*
X219000000Y-323800000D01*
X219000000Y-323800000D02*
X217200000Y-325600000D01*
X217200000Y-325600000D02*
X217200000Y-331000000D01*
X389800000Y-337800000D02*
X400775000Y-326825000D01*
%TO.N,LED_COL_A*%
X233949500Y-339300000D02*
X390844877Y-339300000D01*
X390844877Y-339300000D02*
X402049877Y-328095000D01*
X233800000Y-334400000D02*
X233800000Y-337150500D01*
X227475000Y-331905000D02*
X231305000Y-331905000D01*
X231305000Y-331905000D02*
X233800000Y-334400000D01*
X402049877Y-328095000D02*
X402525000Y-328095000D01*
X233800000Y-339449500D02*
X233949500Y-339300000D01*
%TO.N,LED_COL_B*%
X233631261Y-340200000D02*
X235200000Y-340200000D01*
X391677893Y-339800000D02*
X402112893Y-329365000D01*
X402112893Y-329365000D02*
X402525000Y-329365000D01*
X235600000Y-339800000D02*
X391677893Y-339800000D01*
X233000000Y-339449500D02*
X233000000Y-339568739D01*
X227475000Y-333175000D02*
X229024500Y-333175000D01*
X229024500Y-333175000D02*
X233000000Y-337150500D01*
X233000000Y-339568739D02*
X233631261Y-340200000D01*
X235200000Y-340200000D02*
X235600000Y-339800000D01*
%TO.N,LED_COL_C*%
X402112893Y-330635000D02*
X402525000Y-330635000D01*
X237400000Y-340300000D02*
X392447893Y-340300000D01*
X237000000Y-340700000D02*
X237400000Y-340300000D01*
X231600000Y-339449500D02*
X232850500Y-340700000D01*
X232850500Y-340700000D02*
X237000000Y-340700000D01*
X392447893Y-340300000D02*
X402112893Y-330635000D01*
X227475000Y-334445000D02*
X228894500Y-334445000D01*
X228894500Y-334445000D02*
X231600000Y-337150500D01*
%TO.N,DISABLE_LEDS*%
X394487893Y-340800000D02*
X402112893Y-333175000D01*
X222525000Y-331905000D02*
X222937107Y-331905000D01*
X224400000Y-333367893D02*
X224400000Y-337150500D01*
X222937107Y-331905000D02*
X224400000Y-333367893D01*
X239200000Y-341200000D02*
X239600000Y-340800000D01*
X224400000Y-339449500D02*
X226150500Y-341200000D01*
X239600000Y-340800000D02*
X394487893Y-340800000D01*
X402112893Y-333175000D02*
X402525000Y-333175000D01*
X226150500Y-341200000D02*
X239200000Y-341200000D01*
%TO.N,/GRID_REGS_SER_LINK*%
X409300000Y-314507893D02*
X409300000Y-333900000D01*
X409300000Y-333900000D02*
X408755000Y-334445000D01*
X407887107Y-313095000D02*
X409300000Y-314507893D01*
X408755000Y-334445000D02*
X407475000Y-334445000D01*
X407475000Y-313095000D02*
X407887107Y-313095000D01*
%TO.N,LED_ROW_A*%
X216200000Y-325092893D02*
X216200000Y-331414212D01*
X221167893Y-322800000D02*
X218492894Y-322800000D01*
X400857936Y-324905000D02*
X404705000Y-324905000D01*
X227062893Y-316905000D02*
X221167893Y-322800000D01*
X227475000Y-316905000D02*
X227062893Y-316905000D01*
X394481468Y-331281468D02*
X400857936Y-324905000D01*
X390637771Y-338800000D02*
X395859266Y-333578505D01*
X395859266Y-333578505D02*
X395859266Y-332659266D01*
X223585788Y-338800000D02*
X390637771Y-338800000D01*
X404705000Y-324905000D02*
X406625000Y-326825000D01*
X406625000Y-326825000D02*
X407475000Y-326825000D01*
X216200000Y-331414212D02*
X223585788Y-338800000D01*
X218492894Y-322800000D02*
X216200000Y-325092893D01*
%TO.N,HALL_ROW_B*%
X403787893Y-306450000D02*
X407062893Y-303175000D01*
X376790000Y-303180000D02*
X384492894Y-303180000D01*
X407500000Y-303180000D02*
X414492894Y-303180000D01*
X267817894Y-306505000D02*
X283405000Y-306505000D01*
X373465000Y-306505000D02*
X376790000Y-303180000D01*
X227475000Y-303175000D02*
X234467894Y-303175000D01*
X397775761Y-306505000D02*
X397930761Y-306350000D01*
X398850000Y-306450000D02*
X403787893Y-306450000D01*
X286730000Y-303180000D02*
X294492894Y-303180000D01*
X433555000Y-306505000D02*
X436880000Y-303180000D01*
X253737893Y-306500000D02*
X257062893Y-303175000D01*
X407062893Y-303175000D02*
X407475000Y-303175000D01*
X316850000Y-303180000D02*
X324492894Y-303180000D01*
X324492894Y-303180000D02*
X327817894Y-306505000D01*
X400810000Y-310555000D02*
X402525000Y-310555000D01*
X387817894Y-306505000D02*
X397775761Y-306505000D01*
X234467894Y-303175000D02*
X237792894Y-306500000D01*
X283405000Y-306505000D02*
X286730000Y-303180000D01*
X397930761Y-306350000D02*
X398750000Y-306350000D01*
X398750000Y-306350000D02*
X398800000Y-306400000D01*
X354492894Y-303180000D02*
X357817894Y-306505000D01*
X264492894Y-303180000D02*
X267817894Y-306505000D01*
X357817894Y-306505000D02*
X373465000Y-306505000D01*
X414492894Y-303180000D02*
X417817894Y-306505000D01*
X237792894Y-306500000D02*
X253737893Y-306500000D01*
X294492894Y-303180000D02*
X297817894Y-306505000D01*
X257062893Y-303175000D02*
X257475000Y-303175000D01*
X436880000Y-303180000D02*
X437500000Y-303180000D01*
X297817894Y-306505000D02*
X313525000Y-306505000D01*
X343415000Y-306505000D02*
X346740000Y-303180000D01*
X313525000Y-306505000D02*
X316850000Y-303180000D01*
X384492894Y-303180000D02*
X387817894Y-306505000D01*
X257500000Y-303180000D02*
X264492894Y-303180000D01*
X398800000Y-306400000D02*
X398850000Y-306450000D01*
X346740000Y-303180000D02*
X354492894Y-303180000D01*
X417817894Y-306505000D02*
X433555000Y-306505000D01*
X327817894Y-306505000D02*
X343415000Y-306505000D01*
%TO.N,HALL_ROW_C*%
X317500000Y-304450000D02*
X325055788Y-304450000D01*
X257500000Y-304450000D02*
X265055788Y-304450000D01*
X325055788Y-304450000D02*
X327610788Y-307005000D01*
X398195000Y-307005000D02*
X398200000Y-307000000D01*
X284945000Y-307005000D02*
X287500000Y-304450000D01*
X377500000Y-304450000D02*
X385055788Y-304450000D01*
X314945000Y-307005000D02*
X317500000Y-304450000D01*
X434945000Y-307005000D02*
X437500000Y-304450000D01*
X407500000Y-304450000D02*
X415055788Y-304450000D01*
X385055788Y-304450000D02*
X387610788Y-307005000D01*
X297610788Y-307005000D02*
X314945000Y-307005000D01*
X287500000Y-304450000D02*
X295055788Y-304450000D01*
X417610788Y-307005000D02*
X434945000Y-307005000D01*
X387610788Y-307005000D02*
X398195000Y-307005000D01*
X398200000Y-307000000D02*
X398250000Y-307050000D01*
X344945000Y-307005000D02*
X347500000Y-304450000D01*
X357610788Y-307005000D02*
X374945000Y-307005000D01*
X400175500Y-311825000D02*
X402525000Y-311825000D01*
X398200000Y-309849500D02*
X400175500Y-311825000D01*
X398250000Y-307050000D02*
X404870000Y-307050000D01*
X237585788Y-307000000D02*
X254920000Y-307000000D01*
X254920000Y-307000000D02*
X257475000Y-304445000D01*
X374945000Y-307005000D02*
X377500000Y-304450000D01*
X295055788Y-304450000D02*
X297610788Y-307005000D01*
X235030788Y-304445000D02*
X237585788Y-307000000D01*
X415055788Y-304450000D02*
X417610788Y-307005000D01*
X227475000Y-304445000D02*
X235030788Y-304445000D01*
X267610788Y-307005000D02*
X284945000Y-307005000D01*
X347500000Y-304450000D02*
X355055788Y-304450000D01*
X327610788Y-307005000D02*
X344945000Y-307005000D01*
X355055788Y-304450000D02*
X357610788Y-307005000D01*
X404870000Y-307050000D02*
X407475000Y-304445000D01*
X265055788Y-304450000D02*
X267610788Y-307005000D01*
%TO.N,HALL_COL_A*%
X326897894Y-331905000D02*
X331292893Y-336300000D01*
X331292893Y-336300000D02*
X377900000Y-336300000D01*
X377900000Y-336300000D02*
X401105000Y-313095000D01*
X401105000Y-313095000D02*
X402525000Y-313095000D01*
X287475000Y-331905000D02*
X326897894Y-331905000D01*
%TO.N,HALL_COL_B*%
X331085786Y-336800000D02*
X378437893Y-336800000D01*
X378437893Y-336800000D02*
X400872893Y-314365000D01*
X287475000Y-333175000D02*
X327460788Y-333175000D01*
X327460788Y-333175000D02*
X331085786Y-336800000D01*
X400872893Y-314365000D02*
X402525000Y-314365000D01*
%TO.N,HALL_COL_C*%
X402112893Y-315635000D02*
X402525000Y-315635000D01*
X328023681Y-334445000D02*
X330878679Y-337300000D01*
X380447893Y-337300000D02*
X402112893Y-315635000D01*
X330878679Y-337300000D02*
X380447893Y-337300000D01*
X287475000Y-334445000D02*
X328023681Y-334445000D01*
%TO.N,HALL_ROW_A*%
X323930000Y-301910000D02*
X328025000Y-306005000D01*
X287500000Y-301910000D02*
X293930000Y-301910000D01*
X342677107Y-306005000D02*
X346772107Y-301910000D01*
X407025000Y-311825000D02*
X407475000Y-311825000D01*
X347500000Y-301910000D02*
X353930000Y-301910000D01*
X328025000Y-306005000D02*
X342677107Y-306005000D01*
X397823654Y-305750000D02*
X399550000Y-305750000D01*
X227475000Y-301905000D02*
X233905000Y-301905000D01*
X407500000Y-301910000D02*
X413930000Y-301910000D01*
X377500000Y-301910000D02*
X383930000Y-301910000D01*
X317500000Y-301910000D02*
X323930000Y-301910000D01*
X252652107Y-306000000D02*
X256747107Y-301905000D01*
X413930000Y-301910000D02*
X418025000Y-306005000D01*
X256747107Y-301905000D02*
X257475000Y-301905000D01*
X257500000Y-301910000D02*
X263930000Y-301910000D01*
X405049500Y-309849500D02*
X407025000Y-311825000D01*
X282677107Y-306005000D02*
X286772107Y-301910000D01*
X376772107Y-301910000D02*
X377500000Y-301910000D01*
X316772107Y-301910000D02*
X317500000Y-301910000D01*
X263930000Y-301910000D02*
X268025000Y-306005000D01*
X346772107Y-301910000D02*
X347500000Y-301910000D01*
X286772107Y-301910000D02*
X287500000Y-301910000D01*
X383930000Y-301910000D02*
X388025000Y-306005000D01*
X233905000Y-301905000D02*
X238000000Y-306000000D01*
X372677107Y-306005000D02*
X376772107Y-301910000D01*
X358025000Y-306005000D02*
X372677107Y-306005000D01*
X418025000Y-306005000D02*
X432677107Y-306005000D01*
X399550000Y-305750000D02*
X399600000Y-305800000D01*
X293930000Y-301910000D02*
X298025000Y-306005000D01*
X400200000Y-309849500D02*
X405049500Y-309849500D01*
X268025000Y-306005000D02*
X282677107Y-306005000D01*
X397568654Y-306005000D02*
X397823654Y-305750000D01*
X298025000Y-306005000D02*
X312677107Y-306005000D01*
X436772107Y-301910000D02*
X437500000Y-301910000D01*
X432677107Y-306005000D02*
X436772107Y-301910000D01*
X238000000Y-306000000D02*
X252652107Y-306000000D01*
X388025000Y-306005000D02*
X397568654Y-306005000D01*
X353930000Y-301910000D02*
X358025000Y-306005000D01*
X399600000Y-305800000D02*
X403167893Y-305800000D01*
X312677107Y-306005000D02*
X316772107Y-301910000D01*
X403167893Y-305800000D02*
X407062893Y-301905000D01*
X407062893Y-301905000D02*
X407475000Y-301905000D01*
%TO.N,HALL_C4*%
X335579766Y-298095000D02*
X328319266Y-305355500D01*
X342525000Y-298095000D02*
X335579766Y-298095000D01*
X324700000Y-308849500D02*
X324550500Y-308700000D01*
X293700000Y-308700000D02*
X282525000Y-319875000D01*
X282525000Y-319875000D02*
X282525000Y-325555000D01*
X324550500Y-308700000D02*
X293700000Y-308700000D01*
%TO.N,HALL_C6*%
X282937107Y-326825000D02*
X282525000Y-326825000D01*
X293907106Y-309200000D02*
X284100000Y-319007106D01*
X284100000Y-319007106D02*
X284100000Y-325662107D01*
X395560500Y-298095000D02*
X388300000Y-305355500D01*
X326200500Y-309499500D02*
X322999500Y-309499500D01*
X402525000Y-298095000D02*
X395560500Y-298095000D01*
X322999500Y-309499500D02*
X322700000Y-309200000D01*
X385000000Y-308700000D02*
X327000000Y-308700000D01*
X327000000Y-308700000D02*
X326200500Y-309499500D01*
X386693628Y-307006372D02*
X385000000Y-308700000D01*
X322700000Y-309200000D02*
X293907106Y-309200000D01*
X284100000Y-325662107D02*
X282937107Y-326825000D01*
%TO.N,HALL_C7*%
X414500000Y-309200000D02*
X327700000Y-309200000D01*
X416693628Y-307006372D02*
X414500000Y-309200000D01*
X320299500Y-309999500D02*
X320000000Y-309700000D01*
X320000000Y-309700000D02*
X294114212Y-309700000D01*
X425579766Y-298095000D02*
X418319266Y-305355500D01*
X284600000Y-319214212D02*
X284600000Y-327702107D01*
X284600000Y-327702107D02*
X282937107Y-329365000D01*
X432525000Y-298095000D02*
X425579766Y-298095000D01*
X326900500Y-309999500D02*
X320299500Y-309999500D01*
X282937107Y-329365000D02*
X282525000Y-329365000D01*
X327700000Y-309200000D02*
X326900500Y-309999500D01*
X294114212Y-309700000D02*
X284600000Y-319214212D01*
%TO.N,HALL_C5*%
X372525000Y-298095000D02*
X365505000Y-298095000D01*
X355400000Y-308200000D02*
X356643628Y-306956372D01*
X292100000Y-308200000D02*
X355400000Y-308200000D01*
X282525000Y-330635000D02*
X281035000Y-330635000D01*
X281035000Y-330635000D02*
X281000000Y-330600000D01*
X365505000Y-298095000D02*
X358269266Y-305330734D01*
X279550500Y-320749500D02*
X292100000Y-308200000D01*
X279550500Y-330600000D02*
X279550500Y-320749500D01*
%TO.N,HALL_C3*%
X305598319Y-298095000D02*
X298337819Y-305355500D01*
X298100000Y-310349500D02*
X295500000Y-312949500D01*
X312525000Y-298095000D02*
X305598319Y-298095000D01*
X287887107Y-330635000D02*
X287475000Y-330635000D01*
X295500000Y-323022107D02*
X287887107Y-330635000D01*
X295500000Y-312949500D02*
X295500000Y-323022107D01*
%TO.N,HALL_C0*%
X277400000Y-328000000D02*
X278800000Y-329400000D01*
X259250500Y-307900000D02*
X264571697Y-313221197D01*
X220200000Y-303802107D02*
X224297893Y-307900000D01*
X287440000Y-329400000D02*
X287475000Y-329365000D01*
X222525000Y-298095000D02*
X222112893Y-298095000D01*
X284400000Y-329400000D02*
X287440000Y-329400000D01*
X224297893Y-307900000D02*
X259250500Y-307900000D01*
X222112893Y-298095000D02*
X220200000Y-300007893D01*
X220200000Y-300007893D02*
X220200000Y-303802107D01*
X277400000Y-326026345D02*
X277400000Y-328000000D01*
X264571697Y-313221197D02*
X264594852Y-313221197D01*
X264594852Y-313221197D02*
X277400000Y-326026345D01*
%TO.N,HALL_C1*%
X285200000Y-328000000D02*
X287380000Y-328000000D01*
X264778803Y-312721197D02*
X264801958Y-312721197D01*
X250200000Y-300007893D02*
X250200000Y-305350500D01*
X277900000Y-327100000D02*
X278800000Y-328000000D01*
X264801958Y-312721197D02*
X277880761Y-325800000D01*
X277880761Y-325800000D02*
X277900000Y-325800000D01*
X259308106Y-307250500D02*
X264778803Y-312721197D01*
X255600000Y-307250500D02*
X259308106Y-307250500D01*
X287380000Y-328000000D02*
X287475000Y-328095000D01*
X252112893Y-298095000D02*
X250200000Y-300007893D01*
X277900000Y-325800000D02*
X277900000Y-327100000D01*
X252525000Y-298095000D02*
X252112893Y-298095000D01*
%TO.N,HALL_C2*%
X278400000Y-326299000D02*
X278901000Y-326800000D01*
X282112893Y-298095000D02*
X278400000Y-301807893D01*
X282525000Y-298095000D02*
X282112893Y-298095000D01*
X285249500Y-326800000D02*
X287450000Y-326800000D01*
X278400000Y-308800000D02*
X278400000Y-326299000D01*
X278400000Y-301807893D02*
X278400000Y-305355500D01*
X287450000Y-326800000D02*
X287475000Y-326825000D01*
%TO.N,/JMP_BOOT0*%
X430850000Y-325357500D02*
X433190000Y-325357500D01*
X433190000Y-325357500D02*
X433940000Y-326107500D01*
%TO.N,BUTTON*%
X293200000Y-349400000D02*
X258950500Y-349400000D01*
X446450000Y-333606459D02*
X446450000Y-338950000D01*
X441300500Y-344099500D02*
X298500500Y-344099500D01*
X446450000Y-338950000D02*
X441300500Y-344099500D01*
X446201041Y-333357500D02*
X446450000Y-333606459D01*
X445362500Y-333357500D02*
X446201041Y-333357500D01*
X251000000Y-336000000D02*
X251190000Y-335810000D01*
X258950500Y-349400000D02*
X251000000Y-341449500D01*
X298500500Y-344099500D02*
X293200000Y-349400000D01*
X251190000Y-335810000D02*
X251190000Y-327817500D01*
%TO.N,LCD_SER_DATA*%
X377475000Y-328095000D02*
X377887107Y-328095000D01*
X381449003Y-341400000D02*
X436200000Y-341400000D01*
X377887107Y-328095000D02*
X381006068Y-331213961D01*
X440450000Y-335270000D02*
X440450000Y-337150000D01*
X381006068Y-331213961D02*
X381006068Y-332275400D01*
X440450000Y-337150000D02*
X436200000Y-341400000D01*
X381399503Y-341449500D02*
X381449003Y-341400000D01*
%TO.N,LCD_SER_CLK*%
X380830761Y-342599500D02*
X436414712Y-342599500D01*
X436414712Y-342599500D02*
X441450000Y-337564212D01*
X441450000Y-337564212D02*
X441450000Y-335270000D01*
X379800000Y-341449500D02*
X379800000Y-341568739D01*
X379800000Y-341568739D02*
X380830761Y-342599500D01*
X378305000Y-331905000D02*
X379800000Y-333400000D01*
X377475000Y-331905000D02*
X378305000Y-331905000D01*
%TO.N,/LCD1_D0*%
X377475000Y-326825000D02*
X378975000Y-326825000D01*
X325714500Y-327474500D02*
X313240000Y-315000000D01*
X370800000Y-327474500D02*
X325714500Y-327474500D01*
X378975000Y-326825000D02*
X379000000Y-326800000D01*
%TO.N,/LCD1_D1*%
X372525000Y-325555000D02*
X329793532Y-325555000D01*
X329793532Y-325555000D02*
X321519266Y-317280734D01*
%TO.N,/LCD1_D2*%
X330145000Y-326825000D02*
X318320000Y-315000000D01*
X372525000Y-326825000D02*
X330145000Y-326825000D01*
%TO.N,/LCD1_D3*%
X374150000Y-321778424D02*
X371771576Y-319400000D01*
X325260000Y-319400000D02*
X320860000Y-315000000D01*
X374150000Y-327450000D02*
X374150000Y-321778424D01*
X372525000Y-328095000D02*
X373505000Y-328095000D01*
X371771576Y-319400000D02*
X325260000Y-319400000D01*
X373505000Y-328095000D02*
X374150000Y-327450000D01*
%TO.N,/LCD1_D4*%
X374650000Y-321571318D02*
X371978682Y-318900000D01*
X327300000Y-318900000D02*
X323400000Y-315000000D01*
X374650000Y-328550000D02*
X374650000Y-321571318D01*
X371978682Y-318900000D02*
X327300000Y-318900000D01*
X373835000Y-329365000D02*
X374650000Y-328550000D01*
X372525000Y-329365000D02*
X373835000Y-329365000D01*
%TO.N,/LCD1_D5*%
X372185788Y-318400000D02*
X329340000Y-318400000D01*
X375150000Y-328850000D02*
X375150000Y-321364212D01*
X375150000Y-321364212D02*
X372185788Y-318400000D01*
X372525000Y-330635000D02*
X373365000Y-330635000D01*
X373365000Y-330635000D02*
X375150000Y-328850000D01*
X329340000Y-318400000D02*
X325940000Y-315000000D01*
%TO.N,/LCD1_D6*%
X372392894Y-317900000D02*
X331380000Y-317900000D01*
X375650000Y-321157106D02*
X372392894Y-317900000D01*
X375650000Y-329192107D02*
X375650000Y-321157106D01*
X372525000Y-331905000D02*
X372937107Y-331905000D01*
X372937107Y-331905000D02*
X375650000Y-329192107D01*
X331380000Y-317900000D02*
X328480000Y-315000000D01*
%TO.N,/LCD1_D7*%
X376150000Y-329962107D02*
X376150000Y-320950000D01*
X333420000Y-317400000D02*
X331020000Y-315000000D01*
X372937107Y-333175000D02*
X376150000Y-329962107D01*
X372525000Y-333175000D02*
X372937107Y-333175000D01*
X372600000Y-317400000D02*
X333420000Y-317400000D01*
X376150000Y-320950000D02*
X372600000Y-317400000D01*
%TO.N,USB_CON_D+*%
X459332227Y-328970500D02*
X459003154Y-328970500D01*
D49*
X455450000Y-329270000D02*
X457850000Y-329270000D01*
X455300000Y-329120000D02*
X455450000Y-329270000D01*
D47*
X459003154Y-328970500D02*
X458703654Y-329270000D01*
X458703654Y-329270000D02*
X457850000Y-329270000D01*
X457850000Y-330270000D02*
X459330000Y-330270000D01*
D49*
%TO.N,USB_CON_D-*%
X455300000Y-331020000D02*
X455550000Y-330770000D01*
D47*
X458780000Y-330770000D02*
X457850000Y-330770000D01*
D49*
X455550000Y-330770000D02*
X457850000Y-330770000D01*
D47*
X457850000Y-329770000D02*
X458910761Y-329770000D01*
X458930000Y-330920000D02*
X458780000Y-330770000D01*
X458910761Y-329770000D02*
X459060761Y-329620000D01*
X459980000Y-330000761D02*
X459980000Y-330539239D01*
X459599239Y-330920000D02*
X458930000Y-330920000D01*
X459599239Y-329620000D02*
X459980000Y-330000761D01*
X459060761Y-329620000D02*
X459599239Y-329620000D01*
X459980000Y-330539239D02*
X459599239Y-330920000D01*
%TD*%
%TA.AperFunction,Conductor*%
%TO.N,GND*%
G36*
X253343039Y-301619685D02*
G01*
X253388794Y-301672489D01*
X253400000Y-301724000D01*
X253400000Y-304476000D01*
X253380315Y-304543039D01*
X253327511Y-304588794D01*
X253276000Y-304600000D01*
X251724000Y-304600000D01*
X251656961Y-304580315D01*
X251611206Y-304527511D01*
X251600000Y-304476000D01*
X251600000Y-301724000D01*
X251619685Y-301656961D01*
X251672489Y-301611206D01*
X251724000Y-301600000D01*
X253276000Y-301600000D01*
X253343039Y-301619685D01*
G37*
%TD.AperFunction*%
%TD*%
%TA.AperFunction,Conductor*%
%TO.N,GND*%
G36*
X223343039Y-301619685D02*
G01*
X223388794Y-301672489D01*
X223400000Y-301724000D01*
X223400000Y-304476000D01*
X223380315Y-304543039D01*
X223327511Y-304588794D01*
X223276000Y-304600000D01*
X221724000Y-304600000D01*
X221656961Y-304580315D01*
X221611206Y-304527511D01*
X221600000Y-304476000D01*
X221600000Y-301724000D01*
X221619685Y-301656961D01*
X221672489Y-301611206D01*
X221724000Y-301600000D01*
X223276000Y-301600000D01*
X223343039Y-301619685D01*
G37*
%TD.AperFunction*%
%TD*%
%TA.AperFunction,Conductor*%
%TO.N,GND*%
G36*
X453243039Y-333819685D02*
G01*
X453288794Y-333872489D01*
X453300000Y-333923999D01*
X453300000Y-337200000D01*
X455376000Y-337200000D01*
X455443039Y-337219685D01*
X455488794Y-337272489D01*
X455500000Y-337324000D01*
X455500000Y-338876000D01*
X455480315Y-338943039D01*
X455427511Y-338988794D01*
X455376000Y-339000000D01*
X452566363Y-339000000D01*
X452499324Y-338980315D01*
X452463189Y-338944783D01*
X451720826Y-337831239D01*
X451700018Y-337764540D01*
X451700000Y-337762456D01*
X451700000Y-334900000D01*
X450824000Y-334900000D01*
X450756961Y-334880315D01*
X450711206Y-334827511D01*
X450700000Y-334776000D01*
X450700000Y-334124150D01*
X450719685Y-334057111D01*
X450736316Y-334036471D01*
X450936469Y-333836318D01*
X450997792Y-333802834D01*
X451024150Y-333800000D01*
X453176000Y-333800000D01*
X453243039Y-333819685D01*
G37*
%TD.AperFunction*%
%TD*%
%TA.AperFunction,Conductor*%
%TO.N,+3.3V*%
G36*
X450893039Y-336397185D02*
G01*
X450938794Y-336449989D01*
X450950000Y-336501500D01*
X450949999Y-339877500D01*
X450950000Y-339877500D01*
X455326000Y-339877500D01*
X455393039Y-339897185D01*
X455438794Y-339949989D01*
X455450000Y-340001500D01*
X455450000Y-342877589D01*
X455445617Y-343754120D01*
X455425598Y-343821060D01*
X455372566Y-343866551D01*
X455321619Y-343877500D01*
X448574000Y-343877500D01*
X448506961Y-343857815D01*
X448461206Y-343805011D01*
X448450000Y-343753500D01*
X448450000Y-341954136D01*
X448469685Y-341887097D01*
X448518546Y-341843227D01*
X449449998Y-341377501D01*
X449450000Y-341377500D01*
X449450000Y-336501500D01*
X449469685Y-336434461D01*
X449522489Y-336388706D01*
X449574000Y-336377500D01*
X450826000Y-336377500D01*
X450893039Y-336397185D01*
G37*
%TD.AperFunction*%
%TD*%
M02*
